<?xml version="1.0" encoding="UTF-8" standalone="no"?>
<!DOCTYPE svg PUBLIC "-//W3C//DTD SVG 1.1//EN"
 "http://www.w3.org/Graphics/SVG/1.1/DTD/svg11.dtd">
<!-- Generated by graphviz version 2.43.0 (0)
 -->
<!-- Title: g Pages: 1 -->
<svg width="140pt" height="442pt"
 viewBox="0.00 0.00 140.00 442.38" xmlns="http://www.w3.org/2000/svg" xmlns:xlink="http://www.w3.org/1999/xlink">
<g id="graph0" class="graph" transform="scale(1 1) rotate(0) translate(4 438.38)">
<title>g</title>
<polygon fill="white" stroke="transparent" points="-4,4 -4,-438.38 136,-438.38 136,4 -4,4"/>
<g id="clust1" class="cluster">
<title>cluster_S</title>
<polygon fill="none" stroke="black" points="8,-8 8,-426.38 124,-426.38 124,-8 8,-8"/>
<text text-anchor="middle" x="66" y="-411.18" font-family="Times,serif" font-size="14.00">S</text>
</g>
<!-- S_1 -->
<g id="node1" class="node">
<title>S_1</title>
<ellipse fill="none" stroke="black" cx="66" cy="-262.49" rx="27.1" ry="27.1"/>
<text text-anchor="middle" x="66" y="-258.79" font-family="Times,serif" font-size="14.00">S_1</text>
</g>
<!-- S_2 -->
<g id="node2" class="node">
<title>S_2</title>
<ellipse fill="none" stroke="black" cx="43" cy="-156.89" rx="27.1" ry="27.1"/>
<text text-anchor="middle" x="43" y="-153.19" font-family="Times,serif" font-size="14.00">S_2</text>
</g>
<!-- S_1&#45;&gt;S_2 -->
<g id="edge2" class="edge">
<title>S_1&#45;&gt;S_2</title>
<path fill="none" stroke="black" d="M60.26,-235.61C57.46,-223.01 54.04,-207.64 51,-193.91"/>
<polygon fill="black" stroke="black" points="54.34,-192.8 48.75,-183.8 47.5,-194.32 54.34,-192.8"/>
<text text-anchor="middle" x="60" y="-205.99" font-family="Times,serif" font-size="14.00">S</text>
</g>
<!-- S_3 -->
<g id="node3" class="node">
<title>S_3</title>
<ellipse fill="none" stroke="red" cx="66" cy="-47.3" rx="27.12" ry="27.12"/>
<ellipse fill="none" stroke="red" cx="66" cy="-47.3" rx="31.1" ry="31.1"/>
<text text-anchor="middle" x="66" y="-43.6" font-family="Times,serif" font-size="14.00">S_3</text>
</g>
<!-- S_1&#45;&gt;S_3 -->
<g id="edge1" class="edge">
<title>S_1&#45;&gt;S_3</title>
<path fill="none" stroke="black" d="M71.48,-235.51C74.35,-220.57 77.56,-201.41 79,-184.19 81.02,-160.01 80.92,-153.78 79,-129.6 77.93,-116.1 75.87,-101.47 73.7,-88.39"/>
<polygon fill="black" stroke="black" points="77.11,-87.53 71.96,-78.28 70.21,-88.73 77.11,-87.53"/>
<text text-anchor="middle" x="85" y="-153.19" font-family="Times,serif" font-size="14.00">b</text>
</g>
<!-- S_2&#45;&gt;S_3 -->
<g id="edge3" class="edge">
<title>S_2&#45;&gt;S_3</title>
<path fill="none" stroke="black" d="M48.51,-130.12C51.2,-117.51 54.51,-102.06 57.52,-87.99"/>
<polygon fill="black" stroke="black" points="60.97,-88.56 59.64,-78.05 54.13,-87.1 60.97,-88.56"/>
<text text-anchor="middle" x="60" y="-100.4" font-family="Times,serif" font-size="14.00">b</text>
</g>
<!-- S_0 -->
<g id="node4" class="node">
<title>S_0</title>
<ellipse fill="none" stroke="green" cx="66" cy="-368.08" rx="27.1" ry="27.1"/>
<text text-anchor="middle" x="66" y="-364.38" font-family="Times,serif" font-size="14.00">S_0</text>
</g>
<!-- S_0&#45;&gt;S_1 -->
<g id="edge4" class="edge">
<title>S_0&#45;&gt;S_1</title>
<path fill="none" stroke="black" d="M66,-340.67C66,-328.38 66,-313.54 66,-300.18"/>
<polygon fill="black" stroke="black" points="69.5,-299.85 66,-289.85 62.5,-299.85 69.5,-299.85"/>
<text text-anchor="middle" x="70.5" y="-311.59" font-family="Times,serif" font-size="14.00">a</text>
</g>
</g>
</svg>
