<?xml version="1.0" encoding="UTF-8" standalone="no"?>
<!DOCTYPE svg PUBLIC "-//W3C//DTD SVG 1.1//EN"
 "http://www.w3.org/Graphics/SVG/1.1/DTD/svg11.dtd">
<!-- Generated by graphviz version 2.43.0 (0)
 -->
<!-- Title: %3 Pages: 1 -->
<svg width="74pt" height="291pt"
 viewBox="0.00 0.00 74.29 291.00" xmlns="http://www.w3.org/2000/svg" xmlns:xlink="http://www.w3.org/1999/xlink">
<g id="graph0" class="graph" transform="scale(1 1) rotate(0) translate(4 287)">
<title>%3</title>
<polygon fill="white" stroke="transparent" points="-4,4 -4,-287 70.29,-287 70.29,4 -4,4"/>
<!-- start -->
<g id="node1" class="node">
<title>start</title>
<ellipse fill="none" stroke="black" cx="33.15" cy="-265" rx="33.29" ry="18"/>
<text text-anchor="middle" x="33.15" y="-261.3" font-family="Times,serif" font-size="14.00">start</text>
</g>
<!-- 0 -->
<g id="node2" class="node">
<title>0</title>
<ellipse fill="none" stroke="black" cx="33.15" cy="-192" rx="27" ry="18"/>
<text text-anchor="middle" x="33.15" y="-188.3" font-family="Times,serif" font-size="14.00">0</text>
</g>
<!-- start&#45;&gt;0 -->
<g id="edge1" class="edge">
<title>start&#45;&gt;0</title>
<path fill="none" stroke="black" d="M33.15,-246.81C33.15,-238.79 33.15,-229.05 33.15,-220.07"/>
<polygon fill="black" stroke="black" points="36.65,-220.03 33.15,-210.03 29.65,-220.03 36.65,-220.03"/>
</g>
<!-- 1 -->
<g id="node3" class="node">
<title>1</title>
<ellipse fill="none" stroke="black" cx="33.15" cy="-105" rx="27" ry="18"/>
<text text-anchor="middle" x="33.15" y="-101.3" font-family="Times,serif" font-size="14.00">1</text>
</g>
<!-- 0&#45;&gt;1 -->
<g id="edge2" class="edge">
<title>0&#45;&gt;1</title>
<path fill="none" stroke="black" d="M33.15,-173.8C33.15,-162.16 33.15,-146.55 33.15,-133.24"/>
<polygon fill="black" stroke="black" points="36.65,-133.18 33.15,-123.18 29.65,-133.18 36.65,-133.18"/>
<text text-anchor="middle" x="37.65" y="-144.8" font-family="Times,serif" font-size="14.00">a</text>
</g>
<!-- 2 -->
<g id="node4" class="node">
<title>2</title>
<ellipse fill="none" stroke="black" cx="33.15" cy="-18" rx="27" ry="18"/>
<text text-anchor="middle" x="33.15" y="-14.3" font-family="Times,serif" font-size="14.00">2</text>
</g>
<!-- 1&#45;&gt;2 -->
<g id="edge3" class="edge">
<title>1&#45;&gt;2</title>
<path fill="none" stroke="black" d="M16.83,-90.32C11.04,-84.43 5.2,-77.05 2.15,-69 -1.64,-59.01 2.84,-48.84 9.47,-40.3"/>
<polygon fill="black" stroke="black" points="12.23,-42.47 16.27,-32.68 7,-37.8 12.23,-42.47"/>
<text text-anchor="middle" x="6.65" y="-57.8" font-family="Times,serif" font-size="14.00">a</text>
</g>
<!-- 1&#45;&gt;2 -->
<g id="edge4" class="edge">
<title>1&#45;&gt;2</title>
<path fill="none" stroke="black" d="M33.15,-86.8C33.15,-75.16 33.15,-59.55 33.15,-46.24"/>
<polygon fill="black" stroke="black" points="36.65,-46.18 33.15,-36.18 29.65,-46.18 36.65,-46.18"/>
<text text-anchor="middle" x="38.15" y="-57.8" font-family="Times,serif" font-size="14.00">b</text>
</g>
<!-- 2&#45;&gt;1 -->
<g id="edge5" class="edge">
<title>2&#45;&gt;1</title>
<path fill="none" stroke="black" d="M39.58,-35.84C41.44,-41.52 43.22,-47.96 44.15,-54 45.33,-61.73 44.4,-70.06 42.67,-77.65"/>
<polygon fill="black" stroke="black" points="39.26,-76.86 39.94,-87.43 46,-78.74 39.26,-76.86"/>
<text text-anchor="middle" x="49.15" y="-57.8" font-family="Times,serif" font-size="14.00">b</text>
</g>
</g>
</svg>
