<?xml version="1.0" encoding="UTF-8" standalone="no"?>
<!DOCTYPE svg PUBLIC "-//W3C//DTD SVG 1.1//EN"
 "http://www.w3.org/Graphics/SVG/1.1/DTD/svg11.dtd">
<!-- Generated by graphviz version 2.43.0 (0)
 -->
<!-- Title: g Pages: 1 -->
<svg width="1828pt" height="1207pt"
 viewBox="0.00 0.00 1828.00 1207.00" xmlns="http://www.w3.org/2000/svg" xmlns:xlink="http://www.w3.org/1999/xlink">
<g id="graph0" class="graph" transform="scale(1 1) rotate(0) translate(4 1203)">
<title>g</title>
<polygon fill="white" stroke="transparent" points="-4,4 -4,-1203 1824,-1203 1824,4 -4,4"/>
<g id="clust1" class="cluster">
<title>cluster_0</title>
<polygon fill="none" stroke="black" points="8,-8 8,-1191 1812,-1191 1812,-8 8,-8"/>
</g>
<!-- _0_0 -->
<g id="node1" class="node">
<title>_0_0</title>
<polygon fill="none" stroke="black" points="1267.19,-1147 1476.81,-1147 1551.47,-1183 1192.53,-1183 1267.19,-1147"/>
<text text-anchor="middle" x="1372" y="-1161.3" font-family="Times,serif" font-size="14.00">0 &#160;&#160;&#160;&#160;Nonterminal S, input: [0, 3]</text>
</g>
<!-- _0_1 -->
<g id="node2" class="node">
<title>_0_1</title>
<ellipse fill="none" stroke="black" cx="1372" cy="-1093" rx="161.37" ry="18"/>
<text text-anchor="middle" x="1372" y="-1089.3" font-family="Times,serif" font-size="14.00">1 &#160;&#160;&#160;&#160;Range , input: [0, 3], rsm: [S_0, S_2]</text>
</g>
<!-- _0_0&#45;&gt;_0_1 -->
<g id="edge1" class="edge">
<title>_0_0&#45;&gt;_0_1</title>
<path fill="none" stroke="black" d="M1372,-1146.7C1372,-1138.98 1372,-1129.71 1372,-1121.11"/>
<polygon fill="black" stroke="black" points="1375.5,-1121.1 1372,-1111.1 1368.5,-1121.1 1375.5,-1121.1"/>
</g>
<!-- _0_12 -->
<g id="node13" class="node">
<title>_0_12</title>
<text text-anchor="middle" x="1372" y="-1027.8" font-family="Times,serif" font-size="14.00">2 &#160;&#160;&#160;&#160;Intermediate input: 2, rsm: S_0, input: [0, 3]</text>
</g>
<!-- _0_1&#45;&gt;_0_12 -->
<g id="edge2" class="edge">
<title>_0_1&#45;&gt;_0_12</title>
<path fill="none" stroke="black" d="M1372,-1074.79C1372,-1066.77 1372,-1057.25 1372,-1049.28"/>
<polygon fill="black" stroke="black" points="1375.5,-1049.06 1372,-1039.06 1368.5,-1049.06 1375.5,-1049.06"/>
</g>
<!-- _0_2 -->
<g id="node3" class="node">
<title>_0_2</title>
<polygon fill="none" stroke="black" points="699.8,-736 938.2,-736 1023.11,-772 614.89,-772 699.8,-736"/>
<text text-anchor="middle" x="819" y="-750.3" font-family="Times,serif" font-size="14.00">10 &#160;&#160;&#160;&#160;Nonterminal Alias, input: [0, 1]</text>
</g>
<!-- _0_6 -->
<g id="node7" class="node">
<title>_0_6</title>
<ellipse fill="none" stroke="black" cx="756" cy="-682" rx="192.27" ry="18"/>
<text text-anchor="middle" x="756" y="-678.3" font-family="Times,serif" font-size="14.00">14 &#160;&#160;&#160;&#160;Range , input: [0, 1], rsm: [Alias_0, Alias_2]</text>
</g>
<!-- _0_2&#45;&gt;_0_6 -->
<g id="edge3" class="edge">
<title>_0_2&#45;&gt;_0_6</title>
<path fill="none" stroke="black" d="M803.43,-735.7C795.8,-727.22 786.48,-716.86 778.12,-707.58"/>
<polygon fill="black" stroke="black" points="780.69,-705.2 771.39,-700.1 775.48,-709.88 780.69,-705.2"/>
</g>
<!-- _0_3 -->
<g id="node4" class="node">
<title>_0_3</title>
<text text-anchor="middle" x="1180" y="-750.3" font-family="Times,serif" font-size="14.00">11 &#160;&#160;&#160;&#160;Intermediate input: 2, rsm: S_0, input: [0, 1]</text>
</g>
<!-- _0_7 -->
<g id="node8" class="node">
<title>_0_7</title>
<ellipse fill="none" stroke="black" cx="1180" cy="-682" rx="165.17" ry="18"/>
<text text-anchor="middle" x="1180" y="-678.3" font-family="Times,serif" font-size="14.00">15 &#160;&#160;&#160;&#160;Range , input: [2, 1], rsm: [S_0, S_1]</text>
</g>
<!-- _0_3&#45;&gt;_0_7 -->
<g id="edge5" class="edge">
<title>_0_3&#45;&gt;_0_7</title>
<path fill="none" stroke="black" d="M1180,-746.29C1180,-737.97 1180,-723.29 1180,-710.16"/>
<polygon fill="black" stroke="black" points="1183.5,-710.12 1180,-700.12 1176.5,-710.12 1183.5,-710.12"/>
</g>
<!-- _0_23 -->
<g id="node24" class="node">
<title>_0_23</title>
<ellipse fill="none" stroke="red" cx="1180" cy="-970" rx="161.37" ry="18"/>
<text text-anchor="middle" x="1180" y="-966.3" font-family="Times,serif" font-size="14.00">3 &#160;&#160;&#160;&#160;Range , input: [0, 2], rsm: [S_0, S_0]</text>
</g>
<!-- _0_3&#45;&gt;_0_23 -->
<g id="edge4" class="edge">
<title>_0_3&#45;&gt;_0_23</title>
<path fill="none" stroke="black" d="M1180,-761.76C1180,-789.07 1180,-892.09 1180,-941.81"/>
<polygon fill="black" stroke="black" points="1176.5,-941.85 1180,-951.85 1183.5,-941.85 1176.5,-941.85"/>
</g>
<!-- _0_4 -->
<g id="node5" class="node">
<title>_0_4</title>
<polygon fill="none" stroke="black" points="596.5,-772 377.5,-772 377.5,-736 596.5,-736 596.5,-772"/>
<text text-anchor="middle" x="487" y="-750.3" font-family="Times,serif" font-size="14.00">12 &#160;&#160;&#160;&#160;Terminal &#39;store_0&#39;, input: [1, 2]</text>
</g>
<!-- _0_5 -->
<g id="node6" class="node">
<title>_0_5</title>
<polygon fill="none" stroke="black" points="1693,-196 1487,-196 1487,-160 1693,-160 1693,-196"/>
<text text-anchor="middle" x="1590" y="-174.3" font-family="Times,serif" font-size="14.00">13 &#160;&#160;&#160;&#160;Terminal &#39;alloc&#39;, input: [2, 3]</text>
</g>
<!-- _0_8 -->
<g id="node9" class="node">
<title>_0_8</title>
<text text-anchor="middle" x="734" y="-606.3" font-family="Times,serif" font-size="14.00">16 &#160;&#160;&#160;&#160;Intermediate input: 4, rsm: Alias_1, input: [0, 1]</text>
</g>
<!-- _0_6&#45;&gt;_0_8 -->
<g id="edge6" class="edge">
<title>_0_6&#45;&gt;_0_8</title>
<path fill="none" stroke="black" d="M750.56,-663.7C747.09,-652.64 742.61,-638.38 739.18,-627.49"/>
<polygon fill="black" stroke="black" points="742.42,-626.12 736.08,-617.62 735.74,-628.21 742.42,-626.12"/>
</g>
<!-- _0_9 -->
<g id="node10" class="node">
<title>_0_9</title>
<polygon fill="none" stroke="black" points="1060.8,-592 1299.2,-592 1384.11,-628 975.89,-628 1060.8,-592"/>
<text text-anchor="middle" x="1180" y="-606.3" font-family="Times,serif" font-size="14.00">17 &#160;&#160;&#160;&#160;Nonterminal Alias, input: [2, 1]</text>
</g>
<!-- _0_7&#45;&gt;_0_9 -->
<g id="edge7" class="edge">
<title>_0_7&#45;&gt;_0_9</title>
<path fill="none" stroke="black" d="M1180,-663.7C1180,-655.98 1180,-646.71 1180,-638.11"/>
<polygon fill="black" stroke="black" points="1183.5,-638.1 1180,-628.1 1176.5,-638.1 1183.5,-638.1"/>
</g>
<!-- _0_10 -->
<g id="node11" class="node">
<title>_0_10</title>
<ellipse fill="none" stroke="black" cx="734" cy="-538" rx="192.27" ry="18"/>
<text text-anchor="middle" x="734" y="-534.3" font-family="Times,serif" font-size="14.00">18 &#160;&#160;&#160;&#160;Range , input: [0, 4], rsm: [Alias_0, Alias_1]</text>
</g>
<!-- _0_8&#45;&gt;_0_10 -->
<g id="edge8" class="edge">
<title>_0_8&#45;&gt;_0_10</title>
<path fill="none" stroke="black" d="M734,-602.29C734,-593.97 734,-579.29 734,-566.16"/>
<polygon fill="black" stroke="black" points="737.5,-566.12 734,-556.12 730.5,-566.12 737.5,-566.12"/>
</g>
<!-- _0_11 -->
<g id="node12" class="node">
<title>_0_11</title>
<ellipse fill="none" stroke="black" cx="301" cy="-538" rx="192.27" ry="18"/>
<text text-anchor="middle" x="301" y="-534.3" font-family="Times,serif" font-size="14.00">19 &#160;&#160;&#160;&#160;Range , input: [4, 1], rsm: [Alias_1, Alias_2]</text>
</g>
<!-- _0_8&#45;&gt;_0_11 -->
<g id="edge9" class="edge">
<title>_0_8&#45;&gt;_0_11</title>
<path fill="none" stroke="black" d="M693.65,-602.48C627.92,-591.85 495.75,-570.48 402.98,-555.49"/>
<polygon fill="black" stroke="black" points="403.43,-552.01 393,-553.87 402.31,-558.92 403.43,-552.01"/>
</g>
<!-- _0_13 -->
<g id="node14" class="node">
<title>_0_13</title>
<ellipse fill="none" stroke="black" cx="1180" cy="-538" rx="192.27" ry="18"/>
<text text-anchor="middle" x="1180" y="-534.3" font-family="Times,serif" font-size="14.00">20 &#160;&#160;&#160;&#160;Range , input: [2, 1], rsm: [Alias_0, Alias_2]</text>
</g>
<!-- _0_9&#45;&gt;_0_13 -->
<g id="edge10" class="edge">
<title>_0_9&#45;&gt;_0_13</title>
<path fill="none" stroke="black" d="M1180,-591.7C1180,-583.98 1180,-574.71 1180,-566.11"/>
<polygon fill="black" stroke="black" points="1183.5,-566.1 1180,-556.1 1176.5,-566.1 1183.5,-566.1"/>
</g>
<!-- _0_14 -->
<g id="node15" class="node">
<title>_0_14</title>
<polygon fill="none" stroke="black" points="603.64,-448 864.36,-448 957.21,-484 510.79,-484 603.64,-448"/>
<text text-anchor="middle" x="734" y="-462.3" font-family="Times,serif" font-size="14.00">21 &#160;&#160;&#160;&#160;Nonterminal PointsTo, input: [0, 4]</text>
</g>
<!-- _0_10&#45;&gt;_0_14 -->
<g id="edge11" class="edge">
<title>_0_10&#45;&gt;_0_14</title>
<path fill="none" stroke="black" d="M734,-519.7C734,-511.98 734,-502.71 734,-494.11"/>
<polygon fill="black" stroke="black" points="737.5,-494.1 734,-484.1 730.5,-494.1 737.5,-494.1"/>
</g>
<!-- _0_15 -->
<g id="node16" class="node">
<title>_0_15</title>
<polygon fill="none" stroke="black" points="140.13,-448 399.87,-448 492.37,-484 47.63,-484 140.13,-448"/>
<text text-anchor="middle" x="270" y="-462.3" font-family="Times,serif" font-size="14.00">22 &#160;&#160;&#160;&#160;Nonterminal FlowsTo, input: [4, 1]</text>
</g>
<!-- _0_11&#45;&gt;_0_15 -->
<g id="edge12" class="edge">
<title>_0_11&#45;&gt;_0_15</title>
<path fill="none" stroke="black" d="M293.34,-519.7C289.81,-511.73 285.54,-502.1 281.63,-493.26"/>
<polygon fill="black" stroke="black" points="284.82,-491.83 277.57,-484.1 278.42,-494.67 284.82,-491.83"/>
</g>
<!-- _0_12&#45;&gt;_0_23 -->
<g id="edge13" class="edge">
<title>_0_12&#45;&gt;_0_23</title>
<path fill="none" stroke="black" d="M1350.72,-1023.91C1324.64,-1015.82 1279.3,-1001.77 1241.9,-990.18"/>
<polygon fill="black" stroke="black" points="1242.67,-986.76 1232.08,-987.14 1240.6,-993.44 1242.67,-986.76"/>
</g>
<!-- _0_34 -->
<g id="node35" class="node">
<title>_0_34</title>
<ellipse fill="none" stroke="black" cx="1564" cy="-970" rx="161.37" ry="18"/>
<text text-anchor="middle" x="1564" y="-966.3" font-family="Times,serif" font-size="14.00">4 &#160;&#160;&#160;&#160;Range , input: [2, 3], rsm: [S_0, S_2]</text>
</g>
<!-- _0_12&#45;&gt;_0_34 -->
<g id="edge14" class="edge">
<title>_0_12&#45;&gt;_0_34</title>
<path fill="none" stroke="black" d="M1393.28,-1023.91C1419.36,-1015.82 1464.7,-1001.77 1502.1,-990.18"/>
<polygon fill="black" stroke="black" points="1503.4,-993.44 1511.92,-987.14 1501.33,-986.76 1503.4,-993.44"/>
</g>
<!-- _0_16 -->
<g id="node17" class="node">
<title>_0_16</title>
<text text-anchor="middle" x="1180" y="-462.3" font-family="Times,serif" font-size="14.00">23 &#160;&#160;&#160;&#160;Intermediate input: 3, rsm: Alias_1, input: [2, 1]</text>
</g>
<!-- _0_13&#45;&gt;_0_16 -->
<g id="edge15" class="edge">
<title>_0_13&#45;&gt;_0_16</title>
<path fill="none" stroke="black" d="M1180,-519.7C1180,-508.76 1180,-494.68 1180,-483.83"/>
<polygon fill="black" stroke="black" points="1183.5,-483.62 1180,-473.62 1176.5,-483.62 1183.5,-483.62"/>
</g>
<!-- _0_17 -->
<g id="node18" class="node">
<title>_0_17</title>
<ellipse fill="none" stroke="black" cx="729" cy="-394" rx="219.06" ry="18"/>
<text text-anchor="middle" x="729" y="-390.3" font-family="Times,serif" font-size="14.00">24 &#160;&#160;&#160;&#160;Range , input: [0, 4], rsm: [PointsTo_0, PointsTo_5]</text>
</g>
<!-- _0_14&#45;&gt;_0_17 -->
<g id="edge16" class="edge">
<title>_0_14&#45;&gt;_0_17</title>
<path fill="none" stroke="black" d="M732.76,-447.7C732.21,-439.98 731.55,-430.71 730.94,-422.11"/>
<polygon fill="black" stroke="black" points="734.43,-421.83 730.22,-412.1 727.44,-422.33 734.43,-421.83"/>
</g>
<!-- _0_18 -->
<g id="node19" class="node">
<title>_0_18</title>
<ellipse fill="none" stroke="black" cx="270" cy="-394" rx="217.96" ry="18"/>
<text text-anchor="middle" x="270" y="-390.3" font-family="Times,serif" font-size="14.00">25 &#160;&#160;&#160;&#160;Range , input: [4, 1], rsm: [FlowsTo_0, FlowsTo_1]</text>
</g>
<!-- _0_15&#45;&gt;_0_18 -->
<g id="edge17" class="edge">
<title>_0_15&#45;&gt;_0_18</title>
<path fill="none" stroke="black" d="M270,-447.7C270,-439.98 270,-430.71 270,-422.11"/>
<polygon fill="black" stroke="black" points="273.5,-422.1 270,-412.1 266.5,-422.1 273.5,-422.1"/>
</g>
<!-- _0_19 -->
<g id="node20" class="node">
<title>_0_19</title>
<ellipse fill="none" stroke="black" cx="1561" cy="-394" rx="192.27" ry="18"/>
<text text-anchor="middle" x="1561" y="-390.3" font-family="Times,serif" font-size="14.00">26 &#160;&#160;&#160;&#160;Range , input: [2, 3], rsm: [Alias_0, Alias_1]</text>
</g>
<!-- _0_16&#45;&gt;_0_19 -->
<g id="edge18" class="edge">
<title>_0_16&#45;&gt;_0_19</title>
<path fill="none" stroke="black" d="M1215.5,-458.48C1272.46,-448.01 1386.1,-427.13 1467.51,-412.18"/>
<polygon fill="black" stroke="black" points="1468.57,-415.54 1477.77,-410.29 1467.3,-408.66 1468.57,-415.54"/>
</g>
<!-- _0_20 -->
<g id="node21" class="node">
<title>_0_20</title>
<ellipse fill="none" stroke="black" cx="1158" cy="-394" rx="192.27" ry="18"/>
<text text-anchor="middle" x="1158" y="-390.3" font-family="Times,serif" font-size="14.00">27 &#160;&#160;&#160;&#160;Range , input: [3, 1], rsm: [Alias_1, Alias_2]</text>
</g>
<!-- _0_16&#45;&gt;_0_20 -->
<g id="edge19" class="edge">
<title>_0_16&#45;&gt;_0_20</title>
<path fill="none" stroke="black" d="M1177.89,-458.29C1175.25,-449.89 1170.57,-435 1166.41,-421.77"/>
<polygon fill="black" stroke="black" points="1169.72,-420.61 1163.38,-412.12 1163.04,-422.7 1169.72,-420.61"/>
</g>
<!-- _0_21 -->
<g id="node22" class="node">
<title>_0_21</title>
<polygon fill="none" stroke="black" points="832,-340 626,-340 626,-304 832,-304 832,-340"/>
<text text-anchor="middle" x="729" y="-318.3" font-family="Times,serif" font-size="14.00">28 &#160;&#160;&#160;&#160;Terminal &#39;alloc&#39;, input: [0, 4]</text>
</g>
<!-- _0_17&#45;&gt;_0_21 -->
<g id="edge20" class="edge">
<title>_0_17&#45;&gt;_0_21</title>
<path fill="none" stroke="black" d="M729,-375.7C729,-367.98 729,-358.71 729,-350.11"/>
<polygon fill="black" stroke="black" points="732.5,-350.1 729,-340.1 725.5,-350.1 732.5,-350.1"/>
</g>
<!-- _0_22 -->
<g id="node23" class="node">
<title>_0_22</title>
<text text-anchor="middle" x="270" y="-318.3" font-family="Times,serif" font-size="14.00">29 &#160;&#160;&#160;&#160;Intermediate input: 0, rsm: FlowsTo_1, input: [4, 1]</text>
</g>
<!-- _0_18&#45;&gt;_0_22 -->
<g id="edge21" class="edge">
<title>_0_18&#45;&gt;_0_22</title>
<path fill="none" stroke="black" d="M270,-375.7C270,-364.76 270,-350.68 270,-339.83"/>
<polygon fill="black" stroke="black" points="273.5,-339.62 270,-329.62 266.5,-339.62 273.5,-339.62"/>
</g>
<!-- _0_24 -->
<g id="node25" class="node">
<title>_0_24</title>
<polygon fill="none" stroke="black" points="1430.64,-304 1691.36,-304 1784.21,-340 1337.79,-340 1430.64,-304"/>
<text text-anchor="middle" x="1561" y="-318.3" font-family="Times,serif" font-size="14.00">30 &#160;&#160;&#160;&#160;Nonterminal PointsTo, input: [2, 3]</text>
</g>
<!-- _0_19&#45;&gt;_0_24 -->
<g id="edge22" class="edge">
<title>_0_19&#45;&gt;_0_24</title>
<path fill="none" stroke="black" d="M1561,-375.7C1561,-367.98 1561,-358.71 1561,-350.11"/>
<polygon fill="black" stroke="black" points="1564.5,-350.1 1561,-340.1 1557.5,-350.1 1564.5,-350.1"/>
</g>
<!-- _0_25 -->
<g id="node26" class="node">
<title>_0_25</title>
<polygon fill="none" stroke="black" points="967.13,-304 1226.87,-304 1319.37,-340 874.63,-340 967.13,-304"/>
<text text-anchor="middle" x="1097" y="-318.3" font-family="Times,serif" font-size="14.00">31 &#160;&#160;&#160;&#160;Nonterminal FlowsTo, input: [3, 1]</text>
</g>
<!-- _0_20&#45;&gt;_0_25 -->
<g id="edge23" class="edge">
<title>_0_20&#45;&gt;_0_25</title>
<path fill="none" stroke="black" d="M1142.92,-375.7C1135.61,-367.3 1126.69,-357.07 1118.66,-347.86"/>
<polygon fill="black" stroke="black" points="1121.11,-345.34 1111.91,-340.1 1115.84,-349.94 1121.11,-345.34"/>
</g>
<!-- _0_26 -->
<g id="node27" class="node">
<title>_0_26</title>
<ellipse fill="none" stroke="black" cx="234" cy="-250" rx="217.96" ry="18"/>
<text text-anchor="middle" x="234" y="-246.3" font-family="Times,serif" font-size="14.00">32 &#160;&#160;&#160;&#160;Range , input: [4, 0], rsm: [FlowsTo_0, FlowsTo_1]</text>
</g>
<!-- _0_22&#45;&gt;_0_26 -->
<g id="edge24" class="edge">
<title>_0_22&#45;&gt;_0_26</title>
<path fill="none" stroke="black" d="M266.55,-314.29C262.19,-305.81 254.42,-290.71 247.57,-277.38"/>
<polygon fill="black" stroke="black" points="250.49,-275.41 242.8,-268.12 244.26,-278.61 250.49,-275.41"/>
</g>
<!-- _0_27 -->
<g id="node28" class="node">
<title>_0_27</title>
<ellipse fill="none" stroke="black" cx="687" cy="-250" rx="217.96" ry="18"/>
<text text-anchor="middle" x="687" y="-246.3" font-family="Times,serif" font-size="14.00">33 &#160;&#160;&#160;&#160;Range , input: [0, 1], rsm: [FlowsTo_1, FlowsTo_1]</text>
</g>
<!-- _0_22&#45;&gt;_0_27 -->
<g id="edge25" class="edge">
<title>_0_22&#45;&gt;_0_27</title>
<path fill="none" stroke="black" d="M308.86,-314.48C371.41,-303.98 496.45,-282.99 585.62,-268.02"/>
<polygon fill="black" stroke="black" points="586.2,-271.47 595.49,-266.36 585.05,-264.57 586.2,-271.47"/>
</g>
<!-- _0_37 -->
<g id="node38" class="node">
<title>_0_37</title>
<text text-anchor="middle" x="957" y="-894.3" font-family="Times,serif" font-size="14.00">5 &#160;&#160;&#160;&#160;Intermediate input: 1, rsm: S_1, input: [0, 2]</text>
</g>
<!-- _0_23&#45;&gt;_0_37 -->
<g id="edge26" class="edge">
<title>_0_23&#45;&gt;_0_37</title>
<path fill="none" stroke="black" d="M1128.56,-952.85C1085.01,-939.18 1024.03,-920.04 987.72,-908.64"/>
<polygon fill="black" stroke="black" points="988.32,-905.16 977.73,-905.51 986.23,-911.84 988.32,-905.16"/>
</g>
<!-- _0_41 -->
<g id="node42" class="node">
<title>_0_41</title>
<ellipse fill="none" stroke="black" cx="1590" cy="-250" rx="214.46" ry="18"/>
<text text-anchor="middle" x="1590" y="-246.3" font-family="Times,serif" font-size="14.00">9 &#160;&#160;&#160;&#160;Range , input: [2, 3], rsm: [PointsTo_0, PointsTo_5]</text>
</g>
<!-- _0_24&#45;&gt;_0_41 -->
<g id="edge27" class="edge">
<title>_0_24&#45;&gt;_0_41</title>
<path fill="none" stroke="black" d="M1568.17,-303.7C1571.43,-295.81 1575.37,-286.3 1579,-277.55"/>
<polygon fill="black" stroke="black" points="1582.32,-278.68 1582.91,-268.1 1575.85,-276 1582.32,-278.68"/>
</g>
<!-- _0_28 -->
<g id="node29" class="node">
<title>_0_28</title>
<ellipse fill="none" stroke="black" cx="1140" cy="-250" rx="217.96" ry="18"/>
<text text-anchor="middle" x="1140" y="-246.3" font-family="Times,serif" font-size="14.00">34 &#160;&#160;&#160;&#160;Range , input: [3, 1], rsm: [FlowsTo_0, FlowsTo_1]</text>
</g>
<!-- _0_25&#45;&gt;_0_28 -->
<g id="edge28" class="edge">
<title>_0_25&#45;&gt;_0_28</title>
<path fill="none" stroke="black" d="M1107.63,-303.7C1112.63,-295.56 1118.69,-285.69 1124.21,-276.7"/>
<polygon fill="black" stroke="black" points="1127.24,-278.46 1129.49,-268.1 1121.28,-274.79 1127.24,-278.46"/>
</g>
<!-- _0_29 -->
<g id="node30" class="node">
<title>_0_29</title>
<polygon fill="none" stroke="black" points="342.5,-196 125.5,-196 125.5,-160 342.5,-160 342.5,-196"/>
<text text-anchor="middle" x="234" y="-174.3" font-family="Times,serif" font-size="14.00">35 &#160;&#160;&#160;&#160;Terminal &#39;alloc_r&#39;, input: [4, 0]</text>
</g>
<!-- _0_26&#45;&gt;_0_29 -->
<g id="edge29" class="edge">
<title>_0_26&#45;&gt;_0_29</title>
<path fill="none" stroke="black" d="M234,-231.7C234,-223.98 234,-214.71 234,-206.11"/>
<polygon fill="black" stroke="black" points="237.5,-206.1 234,-196.1 230.5,-206.1 237.5,-206.1"/>
</g>
<!-- _0_30 -->
<g id="node31" class="node">
<title>_0_30</title>
<polygon fill="none" stroke="black" points="799,-196 575,-196 575,-160 799,-160 799,-196"/>
<text text-anchor="middle" x="687" y="-174.3" font-family="Times,serif" font-size="14.00">36 &#160;&#160;&#160;&#160;Terminal &#39;assign_r&#39;, input: [0, 1]</text>
</g>
<!-- _0_27&#45;&gt;_0_30 -->
<g id="edge30" class="edge">
<title>_0_27&#45;&gt;_0_30</title>
<path fill="none" stroke="black" d="M687,-231.7C687,-223.98 687,-214.71 687,-206.11"/>
<polygon fill="black" stroke="black" points="690.5,-206.1 687,-196.1 683.5,-206.1 690.5,-206.1"/>
</g>
<!-- _0_31 -->
<g id="node32" class="node">
<title>_0_31</title>
<text text-anchor="middle" x="1140" y="-174.3" font-family="Times,serif" font-size="14.00">37 &#160;&#160;&#160;&#160;Intermediate input: 2, rsm: FlowsTo_1, input: [3, 1]</text>
</g>
<!-- _0_28&#45;&gt;_0_31 -->
<g id="edge31" class="edge">
<title>_0_28&#45;&gt;_0_31</title>
<path fill="none" stroke="black" d="M1140,-231.7C1140,-220.76 1140,-206.68 1140,-195.83"/>
<polygon fill="black" stroke="black" points="1143.5,-195.62 1140,-185.62 1136.5,-195.62 1143.5,-195.62"/>
</g>
<!-- _0_32 -->
<g id="node33" class="node">
<title>_0_32</title>
<ellipse fill="none" stroke="black" cx="910" cy="-106" rx="217.96" ry="18"/>
<text text-anchor="middle" x="910" y="-102.3" font-family="Times,serif" font-size="14.00">38 &#160;&#160;&#160;&#160;Range , input: [3, 2], rsm: [FlowsTo_0, FlowsTo_1]</text>
</g>
<!-- _0_31&#45;&gt;_0_32 -->
<g id="edge32" class="edge">
<title>_0_31&#45;&gt;_0_32</title>
<path fill="none" stroke="black" d="M1118.36,-170.41C1085.62,-160.45 1022.17,-141.14 973.85,-126.43"/>
<polygon fill="black" stroke="black" points="974.68,-123.03 964.1,-123.46 972.65,-129.72 974.68,-123.03"/>
</g>
<!-- _0_33 -->
<g id="node34" class="node">
<title>_0_33</title>
<ellipse fill="none" stroke="black" cx="1363" cy="-106" rx="217.96" ry="18"/>
<text text-anchor="middle" x="1363" y="-102.3" font-family="Times,serif" font-size="14.00">39 &#160;&#160;&#160;&#160;Range , input: [2, 1], rsm: [FlowsTo_1, FlowsTo_1]</text>
</g>
<!-- _0_31&#45;&gt;_0_33 -->
<g id="edge33" class="edge">
<title>_0_31&#45;&gt;_0_33</title>
<path fill="none" stroke="black" d="M1160.98,-170.41C1192.56,-160.5 1253.59,-141.34 1300.35,-126.67"/>
<polygon fill="black" stroke="black" points="1301.6,-129.94 1310.09,-123.61 1299.5,-123.26 1301.6,-129.94"/>
</g>
<!-- _0_35 -->
<g id="node36" class="node">
<title>_0_35</title>
<polygon fill="none" stroke="black" points="1018.5,-52 801.5,-52 801.5,-16 1018.5,-16 1018.5,-52"/>
<text text-anchor="middle" x="910" y="-30.3" font-family="Times,serif" font-size="14.00">40 &#160;&#160;&#160;&#160;Terminal &#39;alloc_r&#39;, input: [3, 2]</text>
</g>
<!-- _0_32&#45;&gt;_0_35 -->
<g id="edge34" class="edge">
<title>_0_32&#45;&gt;_0_35</title>
<path fill="none" stroke="black" d="M910,-87.7C910,-79.98 910,-70.71 910,-62.11"/>
<polygon fill="black" stroke="black" points="913.5,-62.1 910,-52.1 906.5,-62.1 913.5,-62.1"/>
</g>
<!-- _0_36 -->
<g id="node37" class="node">
<title>_0_36</title>
<polygon fill="none" stroke="black" points="1475,-52 1251,-52 1251,-16 1475,-16 1475,-52"/>
<text text-anchor="middle" x="1363" y="-30.3" font-family="Times,serif" font-size="14.00">41 &#160;&#160;&#160;&#160;Terminal &#39;assign_r&#39;, input: [2, 1]</text>
</g>
<!-- _0_33&#45;&gt;_0_36 -->
<g id="edge35" class="edge">
<title>_0_33&#45;&gt;_0_36</title>
<path fill="none" stroke="black" d="M1363,-87.7C1363,-79.98 1363,-70.71 1363,-62.11"/>
<polygon fill="black" stroke="black" points="1366.5,-62.1 1363,-52.1 1359.5,-62.1 1366.5,-62.1"/>
</g>
<!-- _0_38 -->
<g id="node39" class="node">
<title>_0_38</title>
<polygon fill="none" stroke="black" points="1448.36,-880 1701.64,-880 1791.84,-916 1358.16,-916 1448.36,-880"/>
<text text-anchor="middle" x="1575" y="-894.3" font-family="Times,serif" font-size="14.00">6 &#160;&#160;&#160;&#160;Nonterminal PointsTo, input: [2, 3]</text>
</g>
<!-- _0_34&#45;&gt;_0_38 -->
<g id="edge36" class="edge">
<title>_0_34&#45;&gt;_0_38</title>
<path fill="none" stroke="black" d="M1566.72,-951.7C1567.93,-943.98 1569.39,-934.71 1570.74,-926.11"/>
<polygon fill="black" stroke="black" points="1574.22,-926.53 1572.31,-916.1 1567.3,-925.44 1574.22,-926.53"/>
</g>
<!-- _0_39 -->
<g id="node40" class="node">
<title>_0_39</title>
<ellipse fill="none" stroke="red" cx="957" cy="-826" rx="161.37" ry="18"/>
<text text-anchor="middle" x="957" y="-822.3" font-family="Times,serif" font-size="14.00">7 &#160;&#160;&#160;&#160;Range , input: [0, 1], rsm: [S_0, S_1]</text>
</g>
<!-- _0_37&#45;&gt;_0_39 -->
<g id="edge37" class="edge">
<title>_0_37&#45;&gt;_0_39</title>
<path fill="none" stroke="black" d="M957,-890.29C957,-881.97 957,-867.29 957,-854.16"/>
<polygon fill="black" stroke="black" points="960.5,-854.12 957,-844.12 953.5,-854.12 960.5,-854.12"/>
</g>
<!-- _0_40 -->
<g id="node41" class="node">
<title>_0_40</title>
<ellipse fill="none" stroke="black" cx="531" cy="-826" rx="161.37" ry="18"/>
<text text-anchor="middle" x="531" y="-822.3" font-family="Times,serif" font-size="14.00">8 &#160;&#160;&#160;&#160;Range , input: [1, 2], rsm: [S_1, S_0]</text>
</g>
<!-- _0_37&#45;&gt;_0_40 -->
<g id="edge38" class="edge">
<title>_0_37&#45;&gt;_0_40</title>
<path fill="none" stroke="black" d="M917.31,-890.48C851.81,-879.71 719.25,-857.93 627.83,-842.91"/>
<polygon fill="black" stroke="black" points="628.17,-839.42 617.73,-841.25 627.03,-846.33 628.17,-839.42"/>
</g>
<!-- _0_38&#45;&gt;_0_41 -->
<g id="edge39" class="edge">
<title>_0_38&#45;&gt;_0_41</title>
<path fill="none" stroke="black" d="M1660.55,-879.92C1725.24,-861.43 1803,-824.72 1803,-755 1803,-755 1803,-755 1803,-393 1803,-353.2 1819.06,-334.09 1793,-304 1779.76,-288.7 1739.78,-276.7 1698.76,-268.02"/>
<polygon fill="black" stroke="black" points="1699.39,-264.57 1688.89,-265.99 1697.98,-271.43 1699.39,-264.57"/>
</g>
<!-- _0_39&#45;&gt;_0_2 -->
<g id="edge40" class="edge">
<title>_0_39&#45;&gt;_0_2</title>
<path fill="none" stroke="black" d="M923.95,-808.23C905.28,-798.76 881.73,-786.82 861.68,-776.65"/>
<polygon fill="black" stroke="black" points="863.25,-773.52 852.74,-772.12 860.08,-779.76 863.25,-773.52"/>
</g>
<!-- _0_39&#45;&gt;_0_3 -->
<g id="edge41" class="edge">
<title>_0_39&#45;&gt;_0_3</title>
<path fill="none" stroke="black" d="M1008.44,-808.85C1051.99,-795.18 1112.97,-776.04 1149.28,-764.64"/>
<polygon fill="black" stroke="black" points="1150.77,-767.84 1159.27,-761.51 1148.68,-761.16 1150.77,-767.84"/>
</g>
<!-- _0_40&#45;&gt;_0_4 -->
<g id="edge42" class="edge">
<title>_0_40&#45;&gt;_0_4</title>
<path fill="none" stroke="black" d="M520.12,-807.7C515.01,-799.56 508.8,-789.69 503.16,-780.7"/>
<polygon fill="black" stroke="black" points="506.04,-778.71 497.75,-772.1 500.11,-782.43 506.04,-778.71"/>
</g>
<!-- _0_41&#45;&gt;_0_5 -->
<g id="edge43" class="edge">
<title>_0_41&#45;&gt;_0_5</title>
<path fill="none" stroke="black" d="M1590,-231.7C1590,-223.98 1590,-214.71 1590,-206.11"/>
<polygon fill="black" stroke="black" points="1593.5,-206.1 1590,-196.1 1586.5,-206.1 1593.5,-206.1"/>
</g>
</g>
</svg>
