<?xml version="1.0" encoding="UTF-8" standalone="no"?>
<!DOCTYPE svg PUBLIC "-//W3C//DTD SVG 1.1//EN"
 "http://www.w3.org/Graphics/SVG/1.1/DTD/svg11.dtd">
<!-- Generated by graphviz version 2.43.0 (0)
 -->
<!-- Title: %503 Pages: 1 -->
<svg width="574pt" height="552pt"
 viewBox="0.00 0.00 574.05 552.00" xmlns="http://www.w3.org/2000/svg" xmlns:xlink="http://www.w3.org/1999/xlink">
<g id="page0,1_graph0" class="graph" transform="scale(1 1) rotate(0) translate(4 548)">
<title>%503</title>
<polygon fill="white" stroke="transparent" points="-4,4 -4,-548 570.05,-548 570.05,4 -4,4"/>
<!-- start -->
<g id="node1" class="node">
<title>start</title>
<ellipse fill="none" stroke="black" cx="401.05" cy="-526" rx="27" ry="18"/>
<text text-anchor="middle" x="401.05" y="-522.3" font-family="Times,serif" font-size="14.00">start</text>
</g>
<!-- 1 -->
<g id="node2" class="node">
<title>1</title>
<ellipse fill="none" stroke="black" cx="236.05" cy="-453" rx="27" ry="18"/>
<text text-anchor="middle" x="236.05" y="-449.3" font-family="Times,serif" font-size="14.00">1 | n</text>
</g>
<!-- start&#45;&gt;1 -->
<g id="edge1" class="edge">
<title>start&#45;&gt;1</title>
<path fill="none" stroke="black" d="M378.79,-515.42C350.17,-503.11 300.29,-481.64 267.72,-467.63"/>
<polygon fill="black" stroke="black" points="268.78,-464.27 258.21,-463.54 266.01,-470.7 268.78,-464.27"/>
</g>
<!-- 8 -->
<g id="node3" class="node">
<title>8</title>
<ellipse fill="none" stroke="black" cx="257.05" cy="-192" rx="27" ry="18"/>
<text text-anchor="middle" x="257.05" y="-188.3" font-family="Times,serif" font-size="14.00">8 | v</text>
</g>
<!-- start&#45;&gt;8 -->
<g id="edge2" class="edge">
<title>start&#45;&gt;8</title>
<path fill="none" stroke="black" d="M428.29,-525.09C475.16,-523.66 566.05,-513.25 566.05,-454 566.05,-454 566.05,-454 566.05,-278 566.05,-246.89 544.86,-241.94 517.05,-228 497.48,-218.19 360.72,-203.38 293.78,-196.61"/>
<polygon fill="black" stroke="black" points="293.96,-193.11 283.66,-195.59 293.26,-200.07 293.96,-193.11"/>
</g>
<!-- 0 -->
<g id="node4" class="node">
<title>0</title>
<ellipse fill="none" stroke="black" cx="58.05" cy="-366" rx="51.19" ry="18"/>
<text text-anchor="middle" x="58.05" y="-362.3" font-family="Times,serif" font-size="14.00">0 | new X()</text>
</g>
<!-- 1&#45;&gt;0 -->
<g id="edge3" class="edge">
<title>1&#45;&gt;0</title>
<path fill="none" stroke="black" d="M210.36,-446.79C186.77,-441.39 151.31,-431.64 123.05,-417 108.91,-409.67 94.71,-399.21 83.21,-389.74"/>
<polygon fill="black" stroke="black" points="85.25,-386.87 75.36,-383.08 80.72,-392.21 85.25,-386.87"/>
<text text-anchor="middle" x="136.55" y="-405.8" font-family="Times,serif" font-size="14.00">alloc</text>
</g>
<!-- 4 -->
<g id="node5" class="node">
<title>4</title>
<ellipse fill="none" stroke="black" cx="161.05" cy="-366" rx="27" ry="18"/>
<text text-anchor="middle" x="161.05" y="-362.3" font-family="Times,serif" font-size="14.00">4 | z</text>
</g>
<!-- 1&#45;&gt;4 -->
<g id="edge18" class="edge">
<title>1&#45;&gt;4</title>
<path fill="none" stroke="black" d="M209.85,-447.79C191.93,-443.4 169.42,-434.57 158.05,-417 153.71,-410.3 152.87,-401.98 153.57,-394.06"/>
<polygon fill="black" stroke="black" points="157.05,-394.48 155.23,-384.05 150.14,-393.34 157.05,-394.48"/>
<text text-anchor="middle" x="184.05" y="-405.8" font-family="Times,serif" font-size="14.00">store_0_r</text>
</g>
<!-- 5 -->
<g id="node7" class="node">
<title>5</title>
<ellipse fill="none" stroke="black" cx="360.05" cy="-366" rx="27" ry="18"/>
<text text-anchor="middle" x="360.05" y="-362.3" font-family="Times,serif" font-size="14.00">5 | u</text>
</g>
<!-- 1&#45;&gt;5 -->
<g id="edge20" class="edge">
<title>1&#45;&gt;5</title>
<path fill="none" stroke="black" d="M262.72,-449.29C285.86,-445.62 318.87,-437.03 340.05,-417 346.69,-410.72 351.17,-401.95 354.18,-393.5"/>
<polygon fill="black" stroke="black" points="357.54,-394.49 357.07,-383.9 350.83,-392.47 357.54,-394.49"/>
<text text-anchor="middle" x="377.05" y="-405.8" font-family="Times,serif" font-size="14.00">store_1_r</text>
</g>
<!-- 10 -->
<g id="node9" class="node">
<title>10</title>
<ellipse fill="none" stroke="black" cx="279.05" cy="-105" rx="74.99" ry="18"/>
<text text-anchor="middle" x="279.05" y="-101.3" font-family="Times,serif" font-size="14.00">10 | tmp3 // line 7</text>
</g>
<!-- 8&#45;&gt;10 -->
<g id="edge21" class="edge">
<title>8&#45;&gt;10</title>
<path fill="none" stroke="black" d="M251.84,-173.93C249.69,-164.07 248.44,-151.57 252.05,-141 253.19,-137.63 254.81,-134.33 256.7,-131.19"/>
<polygon fill="black" stroke="black" points="259.68,-133.02 262.52,-122.82 253.94,-129.03 259.68,-133.02"/>
<text text-anchor="middle" x="272.05" y="-144.8" font-family="Times,serif" font-size="14.00">store_2</text>
</g>
<!-- 6 -->
<g id="node13" class="node">
<title>6</title>
<ellipse fill="none" stroke="black" cx="188.05" cy="-279" rx="70.39" ry="18"/>
<text text-anchor="middle" x="188.05" y="-275.3" font-family="Times,serif" font-size="14.00">6 | tmp1 // line 6</text>
</g>
<!-- 8&#45;&gt;6 -->
<g id="edge13" class="edge">
<title>8&#45;&gt;6</title>
<path fill="none" stroke="black" d="M252.05,-209.94C248.45,-220.22 242.84,-233.21 235.05,-243 231.39,-247.59 227,-251.89 222.39,-255.79"/>
<polygon fill="black" stroke="black" points="220.21,-253.04 214.51,-261.97 224.54,-258.55 220.21,-253.04"/>
<text text-anchor="middle" x="261.05" y="-231.8" font-family="Times,serif" font-size="14.00">assign</text>
</g>
<!-- 0&#45;&gt;1 -->
<g id="edge4" class="edge">
<title>0&#45;&gt;1</title>
<path fill="none" stroke="black" d="M53.42,-384.17C51.65,-394.8 51.57,-408.09 59.05,-417 76.63,-437.98 152.71,-446.62 199.21,-450"/>
<polygon fill="black" stroke="black" points="199.01,-453.49 209.22,-450.68 199.48,-446.51 199.01,-453.49"/>
<text text-anchor="middle" x="78.05" y="-405.8" font-family="Times,serif" font-size="14.00">alloc_r</text>
</g>
<!-- 4&#45;&gt;1 -->
<g id="edge17" class="edge">
<title>4&#45;&gt;1</title>
<path fill="none" stroke="black" d="M182.28,-377.28C192.93,-383.29 205.37,-391.72 214.05,-402 219.78,-408.8 224.27,-417.34 227.66,-425.42"/>
<polygon fill="black" stroke="black" points="224.43,-426.79 231.24,-434.91 230.98,-424.31 224.43,-426.79"/>
<text text-anchor="middle" x="244.05" y="-405.8" font-family="Times,serif" font-size="14.00">store_0</text>
</g>
<!-- 2 -->
<g id="node6" class="node">
<title>2</title>
<ellipse fill="none" stroke="black" cx="50.05" cy="-279" rx="50.09" ry="18"/>
<text text-anchor="middle" x="50.05" y="-275.3" font-family="Times,serif" font-size="14.00">2 | new Z()</text>
</g>
<!-- 4&#45;&gt;2 -->
<g id="edge5" class="edge">
<title>4&#45;&gt;2</title>
<path fill="none" stroke="black" d="M143.7,-351.72C126.23,-338.34 98.98,-317.48 78.37,-301.69"/>
<polygon fill="black" stroke="black" points="80.34,-298.79 70.28,-295.49 76.09,-304.35 80.34,-298.79"/>
<text text-anchor="middle" x="126.55" y="-318.8" font-family="Times,serif" font-size="14.00">alloc</text>
</g>
<!-- 4&#45;&gt;6 -->
<g id="edge26" class="edge">
<title>4&#45;&gt;6</title>
<path fill="none" stroke="black" d="M156.65,-347.83C154.93,-337.94 154.18,-325.44 158.05,-315 159.37,-311.41 161.25,-307.94 163.43,-304.67"/>
<polygon fill="black" stroke="black" points="166.37,-306.59 169.71,-296.54 160.83,-302.31 166.37,-306.59"/>
<text text-anchor="middle" x="182.55" y="-318.8" font-family="Times,serif" font-size="14.00">load_0_r</text>
</g>
<!-- 2&#45;&gt;4 -->
<g id="edge6" class="edge">
<title>2&#45;&gt;4</title>
<path fill="none" stroke="black" d="M48.07,-297.18C47.82,-307.82 49.38,-321.1 57.05,-330 75.5,-351.41 91.32,-338.79 118.05,-348 121.59,-349.22 125.28,-350.56 128.94,-351.94"/>
<polygon fill="black" stroke="black" points="127.84,-355.27 138.42,-355.62 130.36,-348.74 127.84,-355.27"/>
<text text-anchor="middle" x="76.05" y="-318.8" font-family="Times,serif" font-size="14.00">alloc_r</text>
</g>
<!-- 5&#45;&gt;1 -->
<g id="edge19" class="edge">
<title>5&#45;&gt;1</title>
<path fill="none" stroke="black" d="M339.63,-378C327.82,-384.59 312.82,-393.34 300.05,-402 286.43,-411.23 271.93,-422.43 260.18,-431.89"/>
<polygon fill="black" stroke="black" points="257.71,-429.39 252.16,-438.42 262.13,-434.82 257.71,-429.39"/>
<text text-anchor="middle" x="320.05" y="-405.8" font-family="Times,serif" font-size="14.00">store_1</text>
</g>
<!-- 3 -->
<g id="node8" class="node">
<title>3</title>
<ellipse fill="none" stroke="black" cx="328.05" cy="-279" rx="51.19" ry="18"/>
<text text-anchor="middle" x="328.05" y="-275.3" font-family="Times,serif" font-size="14.00">3 | new U()</text>
</g>
<!-- 5&#45;&gt;3 -->
<g id="edge7" class="edge">
<title>5&#45;&gt;3</title>
<path fill="none" stroke="black" d="M353.72,-348.21C349.24,-336.29 343.13,-320.06 337.99,-306.42"/>
<polygon fill="black" stroke="black" points="341.26,-305.17 334.46,-297.05 334.71,-307.64 341.26,-305.17"/>
<text text-anchor="middle" x="359.55" y="-318.8" font-family="Times,serif" font-size="14.00">alloc</text>
</g>
<!-- 7 -->
<g id="node15" class="node">
<title>7</title>
<ellipse fill="none" stroke="black" cx="468.05" cy="-279" rx="70.39" ry="18"/>
<text text-anchor="middle" x="468.05" y="-275.3" font-family="Times,serif" font-size="14.00">7 | tmp2 // line 8</text>
</g>
<!-- 5&#45;&gt;7 -->
<g id="edge28" class="edge">
<title>5&#45;&gt;7</title>
<path fill="none" stroke="black" d="M385.84,-360.21C404.9,-355.47 430.34,-346.45 447.05,-330 453.44,-323.71 457.98,-315.17 461.16,-306.94"/>
<polygon fill="black" stroke="black" points="464.56,-307.81 464.41,-297.21 457.92,-305.59 464.56,-307.81"/>
<text text-anchor="middle" x="482.55" y="-318.8" font-family="Times,serif" font-size="14.00">load_1_r</text>
</g>
<!-- 3&#45;&gt;5 -->
<g id="edge8" class="edge">
<title>3&#45;&gt;5</title>
<path fill="none" stroke="black" d="M310.25,-296.31C301.76,-306.14 294.7,-318.86 301.05,-330 306.82,-340.14 316.82,-347.65 326.96,-353.05"/>
<polygon fill="black" stroke="black" points="325.67,-356.31 336.2,-357.44 328.67,-349.99 325.67,-356.31"/>
<text text-anchor="middle" x="320.05" y="-318.8" font-family="Times,serif" font-size="14.00">alloc_r</text>
</g>
<!-- 10&#45;&gt;8 -->
<g id="edge22" class="edge">
<title>10&#45;&gt;8</title>
<path fill="none" stroke="black" d="M288.84,-123.05C293.19,-132.89 296.44,-145.39 292.05,-156 289.73,-161.59 286.03,-166.76 281.9,-171.31"/>
<polygon fill="black" stroke="black" points="279.39,-168.86 274.68,-178.35 284.28,-173.87 279.39,-168.86"/>
<text text-anchor="middle" x="321.05" y="-144.8" font-family="Times,serif" font-size="14.00">store_2_r</text>
</g>
<!-- 12 -->
<g id="node10" class="node">
<title>12</title>
<ellipse fill="none" stroke="black" cx="296.05" cy="-18" rx="55.49" ry="18"/>
<text text-anchor="middle" x="296.05" y="-14.3" font-family="Times,serif" font-size="14.00">12 | new Y()</text>
</g>
<!-- 10&#45;&gt;12 -->
<g id="edge9" class="edge">
<title>10&#45;&gt;12</title>
<path fill="none" stroke="black" d="M274.73,-86.59C273.04,-76.85 272.12,-64.57 275.05,-54 275.93,-50.79 277.21,-47.58 278.69,-44.48"/>
<polygon fill="black" stroke="black" points="281.82,-46.04 283.6,-35.6 275.69,-42.65 281.82,-46.04"/>
<text text-anchor="middle" x="288.55" y="-57.8" font-family="Times,serif" font-size="14.00">alloc</text>
</g>
<!-- 12&#45;&gt;10 -->
<g id="edge10" class="edge">
<title>12&#45;&gt;10</title>
<path fill="none" stroke="black" d="M301.45,-35.96C303.75,-45.78 305.25,-58.28 302.05,-69 301.09,-72.2 299.73,-75.39 298.15,-78.45"/>
<polygon fill="black" stroke="black" points="295.04,-76.82 292.91,-87.2 301.05,-80.42 295.04,-76.82"/>
<text text-anchor="middle" x="323.05" y="-57.8" font-family="Times,serif" font-size="14.00">alloc_r</text>
</g>
<!-- 11 -->
<g id="node11" class="node">
<title>11</title>
<ellipse fill="none" stroke="black" cx="460.05" cy="-105" rx="74.99" ry="18"/>
<text text-anchor="middle" x="460.05" y="-101.3" font-family="Times,serif" font-size="14.00">11 | tmp4 // line 9</text>
</g>
<!-- 13 -->
<g id="node12" class="node">
<title>13</title>
<ellipse fill="none" stroke="black" cx="434.05" cy="-18" rx="53.89" ry="18"/>
<text text-anchor="middle" x="434.05" y="-14.3" font-family="Times,serif" font-size="14.00">13 | new P()</text>
</g>
<!-- 11&#45;&gt;13 -->
<g id="edge11" class="edge">
<title>11&#45;&gt;13</title>
<path fill="none" stroke="black" d="M437.13,-87.8C431.46,-82.52 426.12,-76.15 423.05,-69 419.92,-61.73 420.29,-53.48 422.12,-45.8"/>
<polygon fill="black" stroke="black" points="425.48,-46.75 425.17,-36.16 418.81,-44.64 425.48,-46.75"/>
<text text-anchor="middle" x="436.55" y="-57.8" font-family="Times,serif" font-size="14.00">alloc</text>
</g>
<!-- 9 -->
<g id="node14" class="node">
<title>9</title>
<ellipse fill="none" stroke="black" cx="452.05" cy="-192" rx="27" ry="18"/>
<text text-anchor="middle" x="452.05" y="-188.3" font-family="Times,serif" font-size="14.00">9 | r</text>
</g>
<!-- 11&#45;&gt;9 -->
<g id="edge24" class="edge">
<title>11&#45;&gt;9</title>
<path fill="none" stroke="black" d="M471.47,-123.08C476.51,-132.71 480.57,-145 477.05,-156 475.74,-160.08 473.76,-164.09 471.48,-167.85"/>
<polygon fill="black" stroke="black" points="468.58,-165.9 465.78,-176.12 474.34,-169.87 468.58,-165.9"/>
<text text-anchor="middle" x="505.05" y="-144.8" font-family="Times,serif" font-size="14.00">store_3_r</text>
</g>
<!-- 13&#45;&gt;11 -->
<g id="edge12" class="edge">
<title>13&#45;&gt;11</title>
<path fill="none" stroke="black" d="M442.67,-35.77C445.33,-41.45 448.07,-47.9 450.05,-54 452.38,-61.21 454.27,-69.2 455.76,-76.63"/>
<polygon fill="black" stroke="black" points="452.34,-77.42 457.59,-86.62 459.23,-76.16 452.34,-77.42"/>
<text text-anchor="middle" x="474.05" y="-57.8" font-family="Times,serif" font-size="14.00">alloc_r</text>
</g>
<!-- 6&#45;&gt;8 -->
<g id="edge14" class="edge">
<title>6&#45;&gt;8</title>
<path fill="none" stroke="black" d="M182.33,-261.02C179.94,-250.72 178.96,-237.73 185.05,-228 193.17,-215.01 207.65,-206.72 221.51,-201.49"/>
<polygon fill="black" stroke="black" points="223,-204.68 231.38,-198.19 220.79,-198.04 223,-204.68"/>
<text text-anchor="middle" x="208.05" y="-231.8" font-family="Times,serif" font-size="14.00">assign_r</text>
</g>
<!-- 6&#45;&gt;4 -->
<g id="edge25" class="edge">
<title>6&#45;&gt;4</title>
<path fill="none" stroke="black" d="M203.78,-296.86C210.94,-306.65 216.69,-319.15 211.05,-330 206.79,-338.17 199.66,-344.83 192.09,-350.06"/>
<polygon fill="black" stroke="black" points="189.84,-347.34 183.15,-355.55 193.51,-353.3 189.84,-347.34"/>
<text text-anchor="middle" x="232.55" y="-318.8" font-family="Times,serif" font-size="14.00">load_0</text>
</g>
<!-- 9&#45;&gt;11 -->
<g id="edge23" class="edge">
<title>9&#45;&gt;11</title>
<path fill="none" stroke="black" d="M442.27,-174.79C437.59,-165 433.67,-152.29 437.05,-141 438,-137.8 439.36,-134.61 440.94,-131.55"/>
<polygon fill="black" stroke="black" points="444.05,-133.18 446.18,-122.8 438.04,-129.58 444.05,-133.18"/>
<text text-anchor="middle" x="457.05" y="-144.8" font-family="Times,serif" font-size="14.00">store_3</text>
</g>
<!-- 9&#45;&gt;7 -->
<g id="edge15" class="edge">
<title>9&#45;&gt;7</title>
<path fill="none" stroke="black" d="M438.66,-207.87C431.4,-217.81 424.87,-231.19 430.05,-243 431.88,-247.18 434.48,-251.08 437.48,-254.65"/>
<polygon fill="black" stroke="black" points="435.05,-257.17 444.52,-261.9 440.07,-252.29 435.05,-257.17"/>
<text text-anchor="middle" x="447.05" y="-231.8" font-family="Times,serif" font-size="14.00">assign</text>
</g>
<!-- 7&#45;&gt;5 -->
<g id="edge27" class="edge">
<title>7&#45;&gt;5</title>
<path fill="none" stroke="black" d="M439.11,-295.6C429.53,-301.24 419.03,-307.97 410.05,-315 399.47,-323.28 388.81,-333.61 380.06,-342.73"/>
<polygon fill="black" stroke="black" points="377.5,-340.34 373.2,-350.03 382.6,-345.13 377.5,-340.34"/>
<text text-anchor="middle" x="428.55" y="-318.8" font-family="Times,serif" font-size="14.00">load_1</text>
</g>
<!-- 7&#45;&gt;9 -->
<g id="edge16" class="edge">
<title>7&#45;&gt;9</title>
<path fill="none" stroke="black" d="M467.73,-260.72C467.28,-251.02 466.28,-238.74 464.05,-228 463.44,-225.11 462.67,-222.13 461.81,-219.19"/>
<polygon fill="black" stroke="black" points="465.08,-217.92 458.65,-209.5 458.42,-220.09 465.08,-217.92"/>
<text text-anchor="middle" x="490.05" y="-231.8" font-family="Times,serif" font-size="14.00">assign_r</text>
</g>
</g>
</svg>
