<?xml version="1.0" encoding="UTF-8" standalone="no"?>
<!DOCTYPE svg PUBLIC "-//W3C//DTD SVG 1.1//EN"
 "http://www.w3.org/Graphics/SVG/1.1/DTD/svg11.dtd">
<!-- Generated by graphviz version 2.43.0 (0)
 -->
<!-- Title: %393 Pages: 1 -->
<svg width="334pt" height="378pt"
 viewBox="0.00 0.00 334.22 378.00" xmlns="http://www.w3.org/2000/svg" xmlns:xlink="http://www.w3.org/1999/xlink">
<g id="page0,1_graph0" class="graph" transform="scale(1 1) rotate(0) translate(4 374)">
<title>%393</title>
<polygon fill="white" stroke="transparent" points="-4,4 -4,-374 330.22,-374 330.22,4 -4,4"/>
<!-- start -->
<g id="node1" class="node">
<title>start</title>
<ellipse fill="none" stroke="black" cx="178.98" cy="-352" rx="27" ry="18"/>
<text text-anchor="middle" x="178.98" y="-348.3" font-family="Times,serif" font-size="14.00">start</text>
</g>
<!-- 0 -->
<g id="node2" class="node">
<title>0</title>
<ellipse fill="none" stroke="black" cx="178.98" cy="-279" rx="27" ry="18"/>
<text text-anchor="middle" x="178.98" y="-275.3" font-family="Times,serif" font-size="14.00">0 | n</text>
</g>
<!-- start&#45;&gt;0 -->
<g id="edge1" class="edge">
<title>start&#45;&gt;0</title>
<path fill="none" stroke="black" d="M178.98,-333.81C178.98,-325.79 178.98,-316.05 178.98,-307.07"/>
<polygon fill="black" stroke="black" points="182.48,-307.03 178.98,-297.03 175.48,-307.03 182.48,-307.03"/>
</g>
<!-- 1 -->
<g id="node3" class="node">
<title>1</title>
<ellipse fill="none" stroke="black" cx="93.98" cy="-192" rx="27" ry="18"/>
<text text-anchor="middle" x="93.98" y="-188.3" font-family="Times,serif" font-size="14.00">1 | l</text>
</g>
<!-- 0&#45;&gt;1 -->
<g id="edge3" class="edge">
<title>0&#45;&gt;1</title>
<path fill="none" stroke="black" d="M151.88,-276.53C128.79,-273.68 96.9,-265.59 80.98,-243 75.93,-235.83 76.63,-226.85 79.43,-218.48"/>
<polygon fill="black" stroke="black" points="82.73,-219.66 83.45,-209.09 76.3,-216.9 82.73,-219.66"/>
<text text-anchor="middle" x="103.98" y="-231.8" font-family="Times,serif" font-size="14.00">assign_r</text>
</g>
<!-- 4 -->
<g id="node6" class="node">
<title>4</title>
<ellipse fill="none" stroke="black" cx="244.98" cy="-192" rx="81.49" ry="18"/>
<text text-anchor="middle" x="244.98" y="-188.3" font-family="Times,serif" font-size="14.00">4 | new X() // line 1</text>
</g>
<!-- 0&#45;&gt;4 -->
<g id="edge10" class="edge">
<title>0&#45;&gt;4</title>
<path fill="none" stroke="black" d="M187.43,-261.54C192.96,-251.44 200.68,-238.47 208.98,-228 212,-224.19 215.41,-220.37 218.91,-216.74"/>
<polygon fill="black" stroke="black" points="221.47,-219.13 226.09,-209.59 216.53,-214.17 221.47,-219.13"/>
<text text-anchor="middle" x="222.48" y="-231.8" font-family="Times,serif" font-size="14.00">alloc</text>
</g>
<!-- 1&#45;&gt;0 -->
<g id="edge2" class="edge">
<title>1&#45;&gt;0</title>
<path fill="none" stroke="black" d="M108.47,-207.49C121.92,-220.95 142.13,-241.16 157.47,-256.49"/>
<polygon fill="black" stroke="black" points="155.01,-258.98 164.56,-263.58 159.96,-254.03 155.01,-258.98"/>
<text text-anchor="middle" x="157.98" y="-231.8" font-family="Times,serif" font-size="14.00">assign</text>
</g>
<!-- 2 -->
<g id="node4" class="node">
<title>2</title>
<ellipse fill="none" stroke="black" cx="93.98" cy="-105" rx="27" ry="18"/>
<text text-anchor="middle" x="93.98" y="-101.3" font-family="Times,serif" font-size="14.00">2 | t</text>
</g>
<!-- 1&#45;&gt;2 -->
<g id="edge4" class="edge">
<title>1&#45;&gt;2</title>
<path fill="none" stroke="black" d="M67.9,-187.01C35.41,-180.86 -13.79,-166.96 3.98,-141 15.93,-123.52 38,-114.77 57.29,-110.39"/>
<polygon fill="black" stroke="black" points="58.2,-113.78 67.34,-108.43 56.86,-106.91 58.2,-113.78"/>
<text text-anchor="middle" x="23.98" y="-144.8" font-family="Times,serif" font-size="14.00">store_0</text>
</g>
<!-- 1&#45;&gt;2 -->
<g id="edge6" class="edge">
<title>1&#45;&gt;2</title>
<path fill="none" stroke="black" d="M77.66,-177.32C71.87,-171.43 66.03,-164.05 62.98,-156 59.19,-146.01 63.67,-135.84 70.29,-127.3"/>
<polygon fill="black" stroke="black" points="73.05,-129.47 77.1,-119.68 67.83,-124.8 73.05,-129.47"/>
<text text-anchor="middle" x="79.98" y="-144.8" font-family="Times,serif" font-size="14.00">assign</text>
</g>
<!-- 2&#45;&gt;1 -->
<g id="edge5" class="edge">
<title>2&#45;&gt;1</title>
<path fill="none" stroke="black" d="M98.07,-122.99C99.26,-128.68 100.39,-135.08 100.98,-141 101.72,-148.47 101.18,-156.54 100.13,-163.97"/>
<polygon fill="black" stroke="black" points="96.67,-163.46 98.4,-173.92 103.56,-164.67 96.67,-163.46"/>
<text text-anchor="middle" x="127.98" y="-144.8" font-family="Times,serif" font-size="14.00">store_0_r</text>
</g>
<!-- 2&#45;&gt;1 -->
<g id="edge7" class="edge">
<title>2&#45;&gt;1</title>
<path fill="none" stroke="black" d="M118.24,-113.33C140.9,-121.55 169.63,-136.35 157.98,-156 151.37,-167.15 139.81,-174.98 128.32,-180.36"/>
<polygon fill="black" stroke="black" points="126.69,-177.25 118.8,-184.32 129.38,-183.71 126.69,-177.25"/>
<text text-anchor="middle" x="182.98" y="-144.8" font-family="Times,serif" font-size="14.00">assign_r</text>
</g>
<!-- 3 -->
<g id="node5" class="node">
<title>3</title>
<ellipse fill="none" stroke="black" cx="93.98" cy="-18" rx="81.49" ry="18"/>
<text text-anchor="middle" x="93.98" y="-14.3" font-family="Times,serif" font-size="14.00">3 | new X() // line 4</text>
</g>
<!-- 2&#45;&gt;3 -->
<g id="edge8" class="edge">
<title>2&#45;&gt;3</title>
<path fill="none" stroke="black" d="M80.79,-89.03C76.46,-83.19 72.2,-76.18 69.98,-69 67.46,-60.89 69.53,-52.44 73.31,-44.84"/>
<polygon fill="black" stroke="black" points="76.43,-46.45 78.59,-36.08 70.44,-42.83 76.43,-46.45"/>
<text text-anchor="middle" x="83.48" y="-57.8" font-family="Times,serif" font-size="14.00">alloc</text>
</g>
<!-- 3&#45;&gt;2 -->
<g id="edge9" class="edge">
<title>3&#45;&gt;2</title>
<path fill="none" stroke="black" d="M95.87,-36.12C96.73,-45.77 97.44,-58.05 96.98,-69 96.87,-71.56 96.71,-74.22 96.53,-76.88"/>
<polygon fill="black" stroke="black" points="93.04,-76.68 95.73,-86.93 100.01,-77.24 93.04,-76.68"/>
<text text-anchor="middle" x="116.98" y="-57.8" font-family="Times,serif" font-size="14.00">alloc_r</text>
</g>
<!-- 4&#45;&gt;0 -->
<g id="edge11" class="edge">
<title>4&#45;&gt;0</title>
<path fill="none" stroke="black" d="M245.31,-210.06C244.73,-220.39 242.54,-233.39 235.98,-243 229.77,-252.08 220.36,-259.24 210.95,-264.65"/>
<polygon fill="black" stroke="black" points="209.29,-261.57 202.05,-269.3 212.53,-267.77 209.29,-261.57"/>
<text text-anchor="middle" x="260.98" y="-231.8" font-family="Times,serif" font-size="14.00">alloc_r</text>
</g>
</g>
</svg>
