<?xml version="1.0" encoding="UTF-8" standalone="no"?>
<!DOCTYPE svg PUBLIC "-//W3C//DTD SVG 1.1//EN"
 "http://www.w3.org/Graphics/SVG/1.1/DTD/svg11.dtd">
<!-- Generated by graphviz version 2.43.0 (0)
 -->
<!-- Title: %3 Pages: 1 -->
<svg width="277pt" height="552pt"
 viewBox="0.00 0.00 277.35 552.00" xmlns="http://www.w3.org/2000/svg" xmlns:xlink="http://www.w3.org/1999/xlink">
<g id="graph0" class="graph" transform="scale(1 1) rotate(0) translate(4 548)">
<title>%3</title>
<polygon fill="white" stroke="transparent" points="-4,4 -4,-548 273.35,-548 273.35,4 -4,4"/>
<!-- start -->
<g id="node1" class="node">
<title>start</title>
<ellipse fill="none" stroke="black" cx="102.35" cy="-526" rx="27" ry="18"/>
<text text-anchor="middle" x="102.35" y="-522.3" font-family="Times,serif" font-size="14.00">start</text>
</g>
<!-- 1 -->
<g id="node2" class="node">
<title>1</title>
<ellipse fill="none" stroke="black" cx="102.35" cy="-453" rx="27" ry="18"/>
<text text-anchor="middle" x="102.35" y="-449.3" font-family="Times,serif" font-size="14.00">1 | n</text>
</g>
<!-- start&#45;&gt;1 -->
<g id="edge1" class="edge">
<title>start&#45;&gt;1</title>
<path fill="none" stroke="black" d="M102.35,-507.81C102.35,-499.79 102.35,-490.05 102.35,-481.07"/>
<polygon fill="black" stroke="black" points="105.85,-481.03 102.35,-471.03 98.85,-481.03 105.85,-481.03"/>
</g>
<!-- 0 -->
<g id="node3" class="node">
<title>0</title>
<ellipse fill="none" stroke="black" cx="51.35" cy="-366" rx="51.19" ry="18"/>
<text text-anchor="middle" x="51.35" y="-362.3" font-family="Times,serif" font-size="14.00">0 | new X()</text>
</g>
<!-- 1&#45;&gt;0 -->
<g id="edge2" class="edge">
<title>1&#45;&gt;0</title>
<path fill="none" stroke="black" d="M76.21,-447.98C58,-443.67 34.96,-434.85 23.35,-417 17.97,-408.74 20.94,-399.4 26.61,-391.04"/>
<polygon fill="black" stroke="black" points="29.45,-393.08 32.96,-383.08 23.98,-388.71 29.45,-393.08"/>
<text text-anchor="middle" x="36.85" y="-405.8" font-family="Times,serif" font-size="14.00">alloc</text>
</g>
<!-- 2 -->
<g id="node4" class="node">
<title>2</title>
<ellipse fill="none" stroke="black" cx="154.35" cy="-366" rx="27" ry="18"/>
<text text-anchor="middle" x="154.35" y="-362.3" font-family="Times,serif" font-size="14.00">2 | l</text>
</g>
<!-- 1&#45;&gt;2 -->
<g id="edge5" class="edge">
<title>1&#45;&gt;2</title>
<path fill="none" stroke="black" d="M111.06,-435.57C116.41,-425.71 123.52,-412.99 130.35,-402 132.62,-398.34 135.11,-394.52 137.59,-390.81"/>
<polygon fill="black" stroke="black" points="140.54,-392.71 143.29,-382.48 134.76,-388.76 140.54,-392.71"/>
<text text-anchor="middle" x="153.35" y="-405.8" font-family="Times,serif" font-size="14.00">assign_r</text>
</g>
<!-- 0&#45;&gt;1 -->
<g id="edge3" class="edge">
<title>0&#45;&gt;1</title>
<path fill="none" stroke="black" d="M57.56,-384.25C61.47,-394.17 66.97,-406.67 73.35,-417 75.95,-421.23 79.03,-425.49 82.19,-429.52"/>
<polygon fill="black" stroke="black" points="79.61,-431.88 88.67,-437.36 85,-427.42 79.61,-431.88"/>
<text text-anchor="middle" x="92.35" y="-405.8" font-family="Times,serif" font-size="14.00">alloc_r</text>
</g>
<!-- 2&#45;&gt;1 -->
<g id="edge4" class="edge">
<title>2&#45;&gt;1</title>
<path fill="none" stroke="black" d="M169.71,-380.98C179.07,-391.23 187.9,-405.34 180.35,-417 171.02,-431.41 154.19,-439.94 138.56,-444.97"/>
<polygon fill="black" stroke="black" points="137.22,-441.71 128.54,-447.79 139.11,-448.45 137.22,-441.71"/>
<text text-anchor="middle" x="200.35" y="-405.8" font-family="Times,serif" font-size="14.00">assign</text>
</g>
<!-- 3 -->
<g id="node5" class="node">
<title>3</title>
<ellipse fill="none" stroke="black" cx="154.35" cy="-279" rx="27" ry="18"/>
<text text-anchor="middle" x="154.35" y="-275.3" font-family="Times,serif" font-size="14.00">3 | y</text>
</g>
<!-- 2&#45;&gt;3 -->
<g id="edge6" class="edge">
<title>2&#45;&gt;3</title>
<path fill="none" stroke="black" d="M138.55,-351.23C132.94,-345.32 127.29,-337.96 124.35,-330 120.67,-320.07 125.01,-309.91 131.42,-301.36"/>
<polygon fill="black" stroke="black" points="134.13,-303.58 138.01,-293.73 128.83,-299.01 134.13,-303.58"/>
<text text-anchor="middle" x="144.35" y="-318.8" font-family="Times,serif" font-size="14.00">store_0</text>
</g>
<!-- 3&#45;&gt;2 -->
<g id="edge7" class="edge">
<title>3&#45;&gt;2</title>
<path fill="none" stroke="black" d="M160.2,-296.89C161.89,-302.57 163.5,-308.99 164.35,-315 165.43,-322.71 164.58,-331.03 163.01,-338.63"/>
<polygon fill="black" stroke="black" points="159.59,-337.86 160.52,-348.42 166.38,-339.59 159.59,-337.86"/>
<text text-anchor="middle" x="191.35" y="-318.8" font-family="Times,serif" font-size="14.00">store_0_r</text>
</g>
<!-- 4 -->
<g id="node6" class="node">
<title>4</title>
<ellipse fill="none" stroke="black" cx="103.35" cy="-192" rx="50.89" ry="18"/>
<text text-anchor="middle" x="103.35" y="-188.3" font-family="Times,serif" font-size="14.00">4 | new Y()</text>
</g>
<!-- 3&#45;&gt;4 -->
<g id="edge8" class="edge">
<title>3&#45;&gt;4</title>
<path fill="none" stroke="black" d="M128.21,-273.98C110,-269.67 86.96,-260.85 75.35,-243 69.97,-234.74 72.94,-225.4 78.61,-217.04"/>
<polygon fill="black" stroke="black" points="81.45,-219.08 84.96,-209.08 75.98,-214.71 81.45,-219.08"/>
<text text-anchor="middle" x="88.85" y="-231.8" font-family="Times,serif" font-size="14.00">alloc</text>
</g>
<!-- 5 -->
<g id="node7" class="node">
<title>5</title>
<ellipse fill="none" stroke="black" cx="206.35" cy="-192" rx="27" ry="18"/>
<text text-anchor="middle" x="206.35" y="-188.3" font-family="Times,serif" font-size="14.00">5 | t</text>
</g>
<!-- 3&#45;&gt;5 -->
<g id="edge11" class="edge">
<title>3&#45;&gt;5</title>
<path fill="none" stroke="black" d="M163.06,-261.57C168.41,-251.71 175.52,-238.99 182.35,-228 184.62,-224.34 187.11,-220.52 189.59,-216.81"/>
<polygon fill="black" stroke="black" points="192.54,-218.71 195.29,-208.48 186.76,-214.76 192.54,-218.71"/>
<text text-anchor="middle" x="205.35" y="-231.8" font-family="Times,serif" font-size="14.00">assign_r</text>
</g>
<!-- 4&#45;&gt;3 -->
<g id="edge9" class="edge">
<title>4&#45;&gt;3</title>
<path fill="none" stroke="black" d="M109.56,-210.25C113.47,-220.17 118.97,-232.67 125.35,-243 127.95,-247.23 131.03,-251.49 134.19,-255.52"/>
<polygon fill="black" stroke="black" points="131.61,-257.88 140.67,-263.36 137,-253.42 131.61,-257.88"/>
<text text-anchor="middle" x="144.35" y="-231.8" font-family="Times,serif" font-size="14.00">alloc_r</text>
</g>
<!-- 5&#45;&gt;3 -->
<g id="edge10" class="edge">
<title>5&#45;&gt;3</title>
<path fill="none" stroke="black" d="M221.71,-206.98C231.07,-217.23 239.9,-231.34 232.35,-243 223.02,-257.41 206.19,-265.94 190.56,-270.97"/>
<polygon fill="black" stroke="black" points="189.22,-267.71 180.54,-273.79 191.11,-274.45 189.22,-267.71"/>
<text text-anchor="middle" x="252.35" y="-231.8" font-family="Times,serif" font-size="14.00">assign</text>
</g>
<!-- 6 -->
<g id="node8" class="node">
<title>6</title>
<ellipse fill="none" stroke="black" cx="206.35" cy="-105" rx="27" ry="18"/>
<text text-anchor="middle" x="206.35" y="-101.3" font-family="Times,serif" font-size="14.00">6 | z</text>
</g>
<!-- 5&#45;&gt;6 -->
<g id="edge12" class="edge">
<title>5&#45;&gt;6</title>
<path fill="none" stroke="black" d="M190.55,-177.23C184.94,-171.32 179.29,-163.96 176.35,-156 172.67,-146.07 177.01,-135.91 183.42,-127.36"/>
<polygon fill="black" stroke="black" points="186.13,-129.58 190.01,-119.73 180.83,-125.01 186.13,-129.58"/>
<text text-anchor="middle" x="196.35" y="-144.8" font-family="Times,serif" font-size="14.00">store_1</text>
</g>
<!-- 6&#45;&gt;5 -->
<g id="edge13" class="edge">
<title>6&#45;&gt;5</title>
<path fill="none" stroke="black" d="M212.2,-122.89C213.89,-128.57 215.5,-134.99 216.35,-141 217.43,-148.71 216.58,-157.03 215.01,-164.63"/>
<polygon fill="black" stroke="black" points="211.59,-163.86 212.52,-174.42 218.38,-165.59 211.59,-163.86"/>
<text text-anchor="middle" x="243.35" y="-144.8" font-family="Times,serif" font-size="14.00">store_1_r</text>
</g>
<!-- 7 -->
<g id="node9" class="node">
<title>7</title>
<ellipse fill="none" stroke="black" cx="206.35" cy="-18" rx="50.09" ry="18"/>
<text text-anchor="middle" x="206.35" y="-14.3" font-family="Times,serif" font-size="14.00">7 | new Z()</text>
</g>
<!-- 6&#45;&gt;7 -->
<g id="edge14" class="edge">
<title>6&#45;&gt;7</title>
<path fill="none" stroke="black" d="M193.15,-89.03C188.83,-83.19 184.57,-76.18 182.35,-69 179.76,-60.67 182.01,-51.98 186,-44.22"/>
<polygon fill="black" stroke="black" points="189.03,-45.97 191.29,-35.62 183.07,-42.3 189.03,-45.97"/>
<text text-anchor="middle" x="195.85" y="-57.8" font-family="Times,serif" font-size="14.00">alloc</text>
</g>
<!-- 7&#45;&gt;6 -->
<g id="edge15" class="edge">
<title>7&#45;&gt;6</title>
<path fill="none" stroke="black" d="M208.24,-36.12C209.09,-45.77 209.81,-58.05 209.35,-69 209.24,-71.56 209.08,-74.22 208.9,-76.88"/>
<polygon fill="black" stroke="black" points="205.41,-76.68 208.1,-86.93 212.38,-77.24 205.41,-76.68"/>
<text text-anchor="middle" x="229.35" y="-57.8" font-family="Times,serif" font-size="14.00">alloc_r</text>
</g>
</g>
</svg>
