<?xml version="1.0" encoding="UTF-8" standalone="no"?>
<!DOCTYPE svg PUBLIC "-//W3C//DTD SVG 1.1//EN"
 "http://www.w3.org/Graphics/SVG/1.1/DTD/svg11.dtd">
<!-- Generated by graphviz version 2.43.0 (0)
 -->
<!-- Title: %191 Pages: 1 -->
<svg width="414pt" height="378pt"
 viewBox="0.00 0.00 414.24 378.00" xmlns="http://www.w3.org/2000/svg" xmlns:xlink="http://www.w3.org/1999/xlink">
<g id="page0,1_graph0" class="graph" transform="scale(1 1) rotate(0) translate(4 374)">
<title>%191</title>
<polygon fill="white" stroke="transparent" points="-4,4 -4,-374 410.24,-374 410.24,4 -4,4"/>
<!-- start -->
<g id="node1" class="node">
<title>start</title>
<ellipse fill="none" stroke="black" cx="148.24" cy="-352" rx="27" ry="18"/>
<text text-anchor="middle" x="148.24" y="-348.3" font-family="Times,serif" font-size="14.00">start</text>
</g>
<!-- 0 -->
<g id="node2" class="node">
<title>0</title>
<ellipse fill="none" stroke="black" cx="148.24" cy="-279" rx="27" ry="18"/>
<text text-anchor="middle" x="148.24" y="-275.3" font-family="Times,serif" font-size="14.00">0 | n</text>
</g>
<!-- start&#45;&gt;0 -->
<g id="edge1" class="edge">
<title>start&#45;&gt;0</title>
<path fill="none" stroke="black" d="M148.24,-333.81C148.24,-325.79 148.24,-316.05 148.24,-307.07"/>
<polygon fill="black" stroke="black" points="151.74,-307.03 148.24,-297.03 144.74,-307.03 151.74,-307.03"/>
</g>
<!-- 1 -->
<g id="node3" class="node">
<title>1</title>
<ellipse fill="none" stroke="black" cx="81.24" cy="-192" rx="81.49" ry="18"/>
<text text-anchor="middle" x="81.24" y="-188.3" font-family="Times,serif" font-size="14.00">1 | new X() // line 1</text>
</g>
<!-- 0&#45;&gt;1 -->
<g id="edge2" class="edge">
<title>0&#45;&gt;1</title>
<path fill="none" stroke="black" d="M122.11,-273.98C103.9,-269.67 80.86,-260.85 69.24,-243 64.67,-235.98 65.07,-227.39 67.4,-219.32"/>
<polygon fill="black" stroke="black" points="70.71,-220.47 71,-209.88 64.17,-217.97 70.71,-220.47"/>
<text text-anchor="middle" x="82.74" y="-231.8" font-family="Times,serif" font-size="14.00">alloc</text>
</g>
<!-- 2 -->
<g id="node4" class="node">
<title>2</title>
<ellipse fill="none" stroke="black" cx="234.24" cy="-192" rx="27" ry="18"/>
<text text-anchor="middle" x="234.24" y="-188.3" font-family="Times,serif" font-size="14.00">2 | l</text>
</g>
<!-- 0&#45;&gt;2 -->
<g id="edge5" class="edge">
<title>0&#45;&gt;2</title>
<path fill="none" stroke="black" d="M154.94,-261.28C159.73,-250.83 166.97,-237.58 176.24,-228 183.99,-220 193.95,-213.12 203.42,-207.64"/>
<polygon fill="black" stroke="black" points="205.15,-210.68 212.26,-202.82 201.8,-204.53 205.15,-210.68"/>
<text text-anchor="middle" x="199.24" y="-231.8" font-family="Times,serif" font-size="14.00">assign_r</text>
</g>
<!-- 1&#45;&gt;0 -->
<g id="edge3" class="edge">
<title>1&#45;&gt;0</title>
<path fill="none" stroke="black" d="M93.74,-209.8C101.07,-219.57 110.57,-232.07 119.24,-243 122.33,-246.89 125.65,-250.98 128.91,-254.94"/>
<polygon fill="black" stroke="black" points="126.32,-257.31 135.4,-262.78 131.72,-252.85 126.32,-257.31"/>
<text text-anchor="middle" x="138.24" y="-231.8" font-family="Times,serif" font-size="14.00">alloc_r</text>
</g>
<!-- 2&#45;&gt;0 -->
<g id="edge4" class="edge">
<title>2&#45;&gt;0</title>
<path fill="none" stroke="black" d="M235.4,-210.35C235.21,-220.78 233.3,-233.79 226.24,-243 215.88,-256.53 199.11,-264.96 183.78,-270.15"/>
<polygon fill="black" stroke="black" points="182.55,-266.87 173.99,-273.11 184.57,-273.57 182.55,-266.87"/>
<text text-anchor="middle" x="249.24" y="-231.8" font-family="Times,serif" font-size="14.00">assign</text>
</g>
<!-- 3 -->
<g id="node5" class="node">
<title>3</title>
<ellipse fill="none" stroke="black" cx="86.24" cy="-105" rx="70.39" ry="18"/>
<text text-anchor="middle" x="86.24" y="-101.3" font-family="Times,serif" font-size="14.00">3 | tmp1 // line 4</text>
</g>
<!-- 2&#45;&gt;3 -->
<g id="edge6" class="edge">
<title>2&#45;&gt;3</title>
<path fill="none" stroke="black" d="M209.83,-183.87C198.21,-180.61 184.07,-176.86 171.24,-174 148.78,-169 84.04,-173.63 69.24,-156 63.44,-149.09 64.61,-140.1 68.25,-131.66"/>
<polygon fill="black" stroke="black" points="71.34,-133.3 72.96,-122.83 65.17,-130.01 71.34,-133.3"/>
<text text-anchor="middle" x="89.24" y="-144.8" font-family="Times,serif" font-size="14.00">store_0</text>
</g>
<!-- 5 -->
<g id="node7" class="node">
<title>5</title>
<ellipse fill="none" stroke="black" cx="299.24" cy="-105" rx="70.39" ry="18"/>
<text text-anchor="middle" x="299.24" y="-101.3" font-family="Times,serif" font-size="14.00">5 | tmp2 // line 5</text>
</g>
<!-- 2&#45;&gt;5 -->
<g id="edge10" class="edge">
<title>2&#45;&gt;5</title>
<path fill="none" stroke="black" d="M218.22,-176.95C208.47,-166.66 199.29,-152.53 207.24,-141 213.7,-131.64 223.01,-124.78 233.25,-119.76"/>
<polygon fill="black" stroke="black" points="234.65,-122.97 242.45,-115.8 231.88,-116.54 234.65,-122.97"/>
<text text-anchor="middle" x="224.24" y="-144.8" font-family="Times,serif" font-size="14.00">assign</text>
</g>
<!-- 2&#45;&gt;5 -->
<g id="edge13" class="edge">
<title>2&#45;&gt;5</title>
<path fill="none" stroke="black" d="M241.06,-174.36C245.66,-164.18 252.33,-151.21 260.24,-141 263.29,-137.07 266.81,-133.23 270.46,-129.61"/>
<polygon fill="black" stroke="black" points="273.12,-131.92 278.05,-122.54 268.34,-126.8 273.12,-131.92"/>
<text text-anchor="middle" x="284.74" y="-144.8" font-family="Times,serif" font-size="14.00">load_0_r</text>
</g>
<!-- 3&#45;&gt;2 -->
<g id="edge7" class="edge">
<title>3&#45;&gt;2</title>
<path fill="none" stroke="black" d="M103.58,-122.64C115.24,-133.19 131.34,-146.58 147.24,-156 163.83,-165.82 183.69,-174.05 200.24,-180.05"/>
<polygon fill="black" stroke="black" points="199.47,-183.49 210.06,-183.49 201.79,-176.88 199.47,-183.49"/>
<text text-anchor="middle" x="173.24" y="-144.8" font-family="Times,serif" font-size="14.00">store_0_r</text>
</g>
<!-- 4 -->
<g id="node6" class="node">
<title>4</title>
<ellipse fill="none" stroke="black" cx="86.24" cy="-18" rx="81.49" ry="18"/>
<text text-anchor="middle" x="86.24" y="-14.3" font-family="Times,serif" font-size="14.00">4 | new X() // line 4</text>
</g>
<!-- 3&#45;&gt;4 -->
<g id="edge8" class="edge">
<title>3&#45;&gt;4</title>
<path fill="none" stroke="black" d="M71.78,-87.28C67.91,-81.82 64.25,-75.47 62.24,-69 59.73,-60.89 61.79,-52.44 65.58,-44.84"/>
<polygon fill="black" stroke="black" points="68.7,-46.45 70.86,-36.08 62.7,-42.83 68.7,-46.45"/>
<text text-anchor="middle" x="75.74" y="-57.8" font-family="Times,serif" font-size="14.00">alloc</text>
</g>
<!-- 4&#45;&gt;3 -->
<g id="edge9" class="edge">
<title>4&#45;&gt;3</title>
<path fill="none" stroke="black" d="M88.14,-36.12C88.99,-45.77 89.71,-58.05 89.24,-69 89.13,-71.56 88.98,-74.22 88.8,-76.88"/>
<polygon fill="black" stroke="black" points="85.3,-76.68 88,-86.93 92.28,-77.24 85.3,-76.68"/>
<text text-anchor="middle" x="109.24" y="-57.8" font-family="Times,serif" font-size="14.00">alloc_r</text>
</g>
<!-- 5&#45;&gt;2 -->
<g id="edge11" class="edge">
<title>5&#45;&gt;2</title>
<path fill="none" stroke="black" d="M310.48,-122.81C315.81,-133.04 319.73,-146.03 313.24,-156 303.62,-170.79 286.17,-179.37 270.11,-184.34"/>
<polygon fill="black" stroke="black" points="269.11,-180.98 260.38,-186.98 270.94,-187.74 269.11,-180.98"/>
<text text-anchor="middle" x="339.24" y="-144.8" font-family="Times,serif" font-size="14.00">assign_r</text>
</g>
<!-- 5&#45;&gt;2 -->
<g id="edge12" class="edge">
<title>5&#45;&gt;2</title>
<path fill="none" stroke="black" d="M340.78,-119.75C360.56,-128.58 377.66,-141.16 366.24,-156 354.65,-171.07 305.76,-181 270.86,-186.31"/>
<polygon fill="black" stroke="black" points="269.93,-182.91 260.54,-187.81 270.94,-189.83 269.93,-182.91"/>
<text text-anchor="middle" x="387.74" y="-144.8" font-family="Times,serif" font-size="14.00">load_0</text>
</g>
</g>
</svg>
