<?xml version="1.0" encoding="UTF-8" standalone="no"?>
<!DOCTYPE svg PUBLIC "-//W3C//DTD SVG 1.1//EN"
 "http://www.w3.org/Graphics/SVG/1.1/DTD/svg11.dtd">
<!-- Generated by graphviz version 2.43.0 (0)
 -->
<!-- Title: g Pages: 1 -->
<svg width="3429pt" height="1372pt"
 viewBox="0.00 0.00 3429.00 1372.00" xmlns="http://www.w3.org/2000/svg" xmlns:xlink="http://www.w3.org/1999/xlink">
<g id="graph0" class="graph" transform="scale(1 1) rotate(0) translate(4 1368)">
<title>g</title>
<polygon fill="white" stroke="transparent" points="-4,4 -4,-1368 3425,-1368 3425,4 -4,4"/>
<g id="clust1" class="cluster">
<title>cluster_0</title>
<polygon fill="none" stroke="black" points="8,-1016 8,-1356 458,-1356 458,-1016 8,-1016"/>
</g>
<g id="clust2" class="cluster">
<title>cluster_1</title>
<polygon fill="none" stroke="black" points="466,-296 466,-1356 1591,-1356 1591,-296 466,-296"/>
</g>
<g id="clust3" class="cluster">
<title>cluster_2</title>
<polygon fill="none" stroke="black" points="1599,-8 1599,-1356 3413,-1356 3413,-8 1599,-8"/>
</g>
<!-- _0_0 -->
<g id="node1" class="node">
<title>_0_0</title>
<polygon fill="none" stroke="black" points="128.19,-1312 337.81,-1312 412.47,-1348 53.53,-1348 128.19,-1312"/>
<text text-anchor="middle" x="233" y="-1326.3" font-family="Times,serif" font-size="14.00">0 &#160;&#160;&#160;&#160;Nonterminal S, input: [1, 0]</text>
</g>
<!-- _0_1 -->
<g id="node2" class="node">
<title>_0_1</title>
<ellipse fill="none" stroke="black" cx="233" cy="-1258" rx="161.37" ry="18"/>
<text text-anchor="middle" x="233" y="-1254.3" font-family="Times,serif" font-size="14.00">1 &#160;&#160;&#160;&#160;Range , input: [1, 0], rsm: [S_0, S_2]</text>
</g>
<!-- _0_0&#45;&gt;_0_1 -->
<g id="edge1" class="edge">
<title>_0_0&#45;&gt;_0_1</title>
<path fill="none" stroke="black" d="M233,-1311.7C233,-1303.98 233,-1294.71 233,-1286.11"/>
<polygon fill="black" stroke="black" points="236.5,-1286.1 233,-1276.1 229.5,-1286.1 236.5,-1286.1"/>
</g>
<!-- _0_2 -->
<g id="node3" class="node">
<title>_0_2</title>
<polygon fill="none" stroke="black" points="106.36,-1168 359.64,-1168 449.84,-1204 16.16,-1204 106.36,-1168"/>
<text text-anchor="middle" x="233" y="-1182.3" font-family="Times,serif" font-size="14.00">2 &#160;&#160;&#160;&#160;Nonterminal PointsTo, input: [1, 0]</text>
</g>
<!-- _0_1&#45;&gt;_0_2 -->
<g id="edge2" class="edge">
<title>_0_1&#45;&gt;_0_2</title>
<path fill="none" stroke="black" d="M233,-1239.7C233,-1231.98 233,-1222.71 233,-1214.11"/>
<polygon fill="black" stroke="black" points="236.5,-1214.1 233,-1204.1 229.5,-1214.1 236.5,-1214.1"/>
</g>
<!-- _0_3 -->
<g id="node4" class="node">
<title>_0_3</title>
<ellipse fill="none" stroke="black" cx="233" cy="-1114" rx="214.46" ry="18"/>
<text text-anchor="middle" x="233" y="-1110.3" font-family="Times,serif" font-size="14.00">3 &#160;&#160;&#160;&#160;Range , input: [1, 0], rsm: [PointsTo_0, PointsTo_5]</text>
</g>
<!-- _0_2&#45;&gt;_0_3 -->
<g id="edge3" class="edge">
<title>_0_2&#45;&gt;_0_3</title>
<path fill="none" stroke="black" d="M233,-1167.7C233,-1159.98 233,-1150.71 233,-1142.11"/>
<polygon fill="black" stroke="black" points="236.5,-1142.1 233,-1132.1 229.5,-1142.1 236.5,-1142.1"/>
</g>
<!-- _0_4 -->
<g id="node5" class="node">
<title>_0_4</title>
<polygon fill="none" stroke="black" points="332.5,-1060 133.5,-1060 133.5,-1024 332.5,-1024 332.5,-1060"/>
<text text-anchor="middle" x="233" y="-1038.3" font-family="Times,serif" font-size="14.00">4 &#160;&#160;&#160;&#160;Terminal &#39;alloc&#39;, input: [1, 0]</text>
</g>
<!-- _0_3&#45;&gt;_0_4 -->
<g id="edge4" class="edge">
<title>_0_3&#45;&gt;_0_4</title>
<path fill="none" stroke="black" d="M233,-1095.7C233,-1087.98 233,-1078.71 233,-1070.11"/>
<polygon fill="black" stroke="black" points="236.5,-1070.1 233,-1060.1 229.5,-1070.1 236.5,-1070.1"/>
</g>
<!-- _1_0 -->
<g id="node6" class="node">
<title>_1_0</title>
<polygon fill="none" stroke="black" points="1059.19,-1312 1268.81,-1312 1343.47,-1348 984.53,-1348 1059.19,-1312"/>
<text text-anchor="middle" x="1164" y="-1326.3" font-family="Times,serif" font-size="14.00">0 &#160;&#160;&#160;&#160;Nonterminal S, input: [1, 4]</text>
</g>
<!-- _1_1 -->
<g id="node7" class="node">
<title>_1_1</title>
<ellipse fill="none" stroke="black" cx="1164" cy="-1258" rx="161.37" ry="18"/>
<text text-anchor="middle" x="1164" y="-1254.3" font-family="Times,serif" font-size="14.00">1 &#160;&#160;&#160;&#160;Range , input: [1, 4], rsm: [S_0, S_2]</text>
</g>
<!-- _1_0&#45;&gt;_1_1 -->
<g id="edge5" class="edge">
<title>_1_0&#45;&gt;_1_1</title>
<path fill="none" stroke="black" d="M1164,-1311.7C1164,-1303.98 1164,-1294.71 1164,-1286.11"/>
<polygon fill="black" stroke="black" points="1167.5,-1286.1 1164,-1276.1 1160.5,-1286.1 1167.5,-1286.1"/>
</g>
<!-- _1_12 -->
<g id="node18" class="node">
<title>_1_12</title>
<text text-anchor="middle" x="1164" y="-1182.3" font-family="Times,serif" font-size="14.00">2 &#160;&#160;&#160;&#160;Intermediate input: 3, rsm: S_0, input: [1, 4]</text>
</g>
<!-- _1_1&#45;&gt;_1_12 -->
<g id="edge6" class="edge">
<title>_1_1&#45;&gt;_1_12</title>
<path fill="none" stroke="black" d="M1164,-1239.7C1164,-1228.76 1164,-1214.68 1164,-1203.83"/>
<polygon fill="black" stroke="black" points="1167.5,-1203.62 1164,-1193.62 1160.5,-1203.62 1167.5,-1203.62"/>
</g>
<!-- _1_2 -->
<g id="node8" class="node">
<title>_1_2</title>
<polygon fill="none" stroke="black" points="558.8,-880 797.2,-880 882.11,-916 473.89,-916 558.8,-880"/>
<text text-anchor="middle" x="678" y="-894.3" font-family="Times,serif" font-size="14.00">10 &#160;&#160;&#160;&#160;Nonterminal Alias, input: [1, 2]</text>
</g>
<!-- _1_5 -->
<g id="node11" class="node">
<title>_1_5</title>
<ellipse fill="none" stroke="black" cx="687" cy="-826" rx="192.27" ry="18"/>
<text text-anchor="middle" x="687" y="-822.3" font-family="Times,serif" font-size="14.00">13 &#160;&#160;&#160;&#160;Range , input: [1, 2], rsm: [Alias_0, Alias_2]</text>
</g>
<!-- _1_2&#45;&gt;_1_5 -->
<g id="edge7" class="edge">
<title>_1_2&#45;&gt;_1_5</title>
<path fill="none" stroke="black" d="M680.22,-879.7C681.22,-871.98 682.41,-862.71 683.51,-854.11"/>
<polygon fill="black" stroke="black" points="687,-854.47 684.8,-844.1 680.05,-853.58 687,-854.47"/>
</g>
<!-- _1_3 -->
<g id="node9" class="node">
<title>_1_3</title>
<polygon fill="none" stroke="black" points="1119.5,-916 900.5,-916 900.5,-880 1119.5,-880 1119.5,-916"/>
<text text-anchor="middle" x="1010" y="-894.3" font-family="Times,serif" font-size="14.00">11 &#160;&#160;&#160;&#160;Terminal &#39;store_0&#39;, input: [2, 3]</text>
</g>
<!-- _1_4 -->
<g id="node10" class="node">
<title>_1_4</title>
<polygon fill="none" stroke="black" points="1472,-916 1266,-916 1266,-880 1472,-880 1472,-916"/>
<text text-anchor="middle" x="1369" y="-894.3" font-family="Times,serif" font-size="14.00">12 &#160;&#160;&#160;&#160;Terminal &#39;alloc&#39;, input: [3, 4]</text>
</g>
<!-- _1_6 -->
<g id="node12" class="node">
<title>_1_6</title>
<text text-anchor="middle" x="697" y="-750.3" font-family="Times,serif" font-size="14.00">14 &#160;&#160;&#160;&#160;Intermediate input: 0, rsm: Alias_1, input: [1, 2]</text>
</g>
<!-- _1_5&#45;&gt;_1_6 -->
<g id="edge8" class="edge">
<title>_1_5&#45;&gt;_1_6</title>
<path fill="none" stroke="black" d="M689.47,-807.7C691.03,-796.76 693.05,-782.68 694.6,-771.83"/>
<polygon fill="black" stroke="black" points="698.1,-772.02 696.05,-761.62 691.17,-771.03 698.1,-772.02"/>
</g>
<!-- _1_7 -->
<g id="node13" class="node">
<title>_1_7</title>
<ellipse fill="none" stroke="black" cx="697" cy="-682" rx="192.27" ry="18"/>
<text text-anchor="middle" x="697" y="-678.3" font-family="Times,serif" font-size="14.00">15 &#160;&#160;&#160;&#160;Range , input: [1, 0], rsm: [Alias_0, Alias_1]</text>
</g>
<!-- _1_6&#45;&gt;_1_7 -->
<g id="edge9" class="edge">
<title>_1_6&#45;&gt;_1_7</title>
<path fill="none" stroke="black" d="M697,-746.29C697,-737.97 697,-723.29 697,-710.16"/>
<polygon fill="black" stroke="black" points="700.5,-710.12 697,-700.12 693.5,-710.12 700.5,-710.12"/>
</g>
<!-- _1_8 -->
<g id="node14" class="node">
<title>_1_8</title>
<ellipse fill="none" stroke="black" cx="1130" cy="-682" rx="192.27" ry="18"/>
<text text-anchor="middle" x="1130" y="-678.3" font-family="Times,serif" font-size="14.00">16 &#160;&#160;&#160;&#160;Range , input: [0, 2], rsm: [Alias_1, Alias_2]</text>
</g>
<!-- _1_6&#45;&gt;_1_8 -->
<g id="edge10" class="edge">
<title>_1_6&#45;&gt;_1_8</title>
<path fill="none" stroke="black" d="M737.35,-746.48C803.08,-735.85 935.25,-714.48 1028.02,-699.49"/>
<polygon fill="black" stroke="black" points="1028.69,-702.92 1038,-697.87 1027.57,-696.01 1028.69,-702.92"/>
</g>
<!-- _1_9 -->
<g id="node15" class="node">
<title>_1_9</title>
<polygon fill="none" stroke="black" points="566.64,-592 827.36,-592 920.21,-628 473.79,-628 566.64,-592"/>
<text text-anchor="middle" x="697" y="-606.3" font-family="Times,serif" font-size="14.00">17 &#160;&#160;&#160;&#160;Nonterminal PointsTo, input: [1, 0]</text>
</g>
<!-- _1_7&#45;&gt;_1_9 -->
<g id="edge11" class="edge">
<title>_1_7&#45;&gt;_1_9</title>
<path fill="none" stroke="black" d="M697,-663.7C697,-655.98 697,-646.71 697,-638.11"/>
<polygon fill="black" stroke="black" points="700.5,-638.1 697,-628.1 693.5,-638.1 700.5,-638.1"/>
</g>
<!-- _1_10 -->
<g id="node16" class="node">
<title>_1_10</title>
<polygon fill="none" stroke="black" points="1031.13,-592 1290.87,-592 1383.37,-628 938.63,-628 1031.13,-592"/>
<text text-anchor="middle" x="1161" y="-606.3" font-family="Times,serif" font-size="14.00">18 &#160;&#160;&#160;&#160;Nonterminal FlowsTo, input: [0, 2]</text>
</g>
<!-- _1_8&#45;&gt;_1_10 -->
<g id="edge12" class="edge">
<title>_1_8&#45;&gt;_1_10</title>
<path fill="none" stroke="black" d="M1137.66,-663.7C1141.19,-655.73 1145.46,-646.1 1149.37,-637.26"/>
<polygon fill="black" stroke="black" points="1152.58,-638.67 1153.43,-628.1 1146.18,-635.83 1152.58,-638.67"/>
</g>
<!-- _1_11 -->
<g id="node17" class="node">
<title>_1_11</title>
<ellipse fill="none" stroke="black" cx="697" cy="-538" rx="219.06" ry="18"/>
<text text-anchor="middle" x="697" y="-534.3" font-family="Times,serif" font-size="14.00">19 &#160;&#160;&#160;&#160;Range , input: [1, 0], rsm: [PointsTo_0, PointsTo_5]</text>
</g>
<!-- _1_9&#45;&gt;_1_11 -->
<g id="edge13" class="edge">
<title>_1_9&#45;&gt;_1_11</title>
<path fill="none" stroke="black" d="M697,-591.7C697,-583.98 697,-574.71 697,-566.11"/>
<polygon fill="black" stroke="black" points="700.5,-566.1 697,-556.1 693.5,-566.1 700.5,-566.1"/>
</g>
<!-- _1_13 -->
<g id="node19" class="node">
<title>_1_13</title>
<ellipse fill="none" stroke="black" cx="1161" cy="-538" rx="217.96" ry="18"/>
<text text-anchor="middle" x="1161" y="-534.3" font-family="Times,serif" font-size="14.00">20 &#160;&#160;&#160;&#160;Range , input: [0, 2], rsm: [FlowsTo_0, FlowsTo_1]</text>
</g>
<!-- _1_10&#45;&gt;_1_13 -->
<g id="edge14" class="edge">
<title>_1_10&#45;&gt;_1_13</title>
<path fill="none" stroke="black" d="M1161,-591.7C1161,-583.98 1161,-574.71 1161,-566.11"/>
<polygon fill="black" stroke="black" points="1164.5,-566.1 1161,-556.1 1157.5,-566.1 1164.5,-566.1"/>
</g>
<!-- _1_14 -->
<g id="node20" class="node">
<title>_1_14</title>
<polygon fill="none" stroke="black" points="800,-484 594,-484 594,-448 800,-448 800,-484"/>
<text text-anchor="middle" x="697" y="-462.3" font-family="Times,serif" font-size="14.00">21 &#160;&#160;&#160;&#160;Terminal &#39;alloc&#39;, input: [1, 0]</text>
</g>
<!-- _1_11&#45;&gt;_1_14 -->
<g id="edge15" class="edge">
<title>_1_11&#45;&gt;_1_14</title>
<path fill="none" stroke="black" d="M697,-519.7C697,-511.98 697,-502.71 697,-494.11"/>
<polygon fill="black" stroke="black" points="700.5,-494.1 697,-484.1 693.5,-494.1 700.5,-494.1"/>
</g>
<!-- _1_20 -->
<g id="node26" class="node">
<title>_1_20</title>
<ellipse fill="none" stroke="black" cx="987" cy="-1114" rx="161.37" ry="18"/>
<text text-anchor="middle" x="987" y="-1110.3" font-family="Times,serif" font-size="14.00">3 &#160;&#160;&#160;&#160;Range , input: [1, 3], rsm: [S_0, S_0]</text>
</g>
<!-- _1_12&#45;&gt;_1_20 -->
<g id="edge16" class="edge">
<title>_1_12&#45;&gt;_1_20</title>
<path fill="none" stroke="black" d="M1147.35,-1178.41C1122.62,-1168.64 1075.15,-1149.86 1038.25,-1135.27"/>
<polygon fill="black" stroke="black" points="1039.22,-1131.89 1028.63,-1131.46 1036.64,-1138.4 1039.22,-1131.89"/>
</g>
<!-- _1_21 -->
<g id="node27" class="node">
<title>_1_21</title>
<ellipse fill="none" stroke="black" cx="1342" cy="-1114" rx="161.37" ry="18"/>
<text text-anchor="middle" x="1342" y="-1110.3" font-family="Times,serif" font-size="14.00">4 &#160;&#160;&#160;&#160;Range , input: [3, 4], rsm: [S_0, S_2]</text>
</g>
<!-- _1_12&#45;&gt;_1_21 -->
<g id="edge17" class="edge">
<title>_1_12&#45;&gt;_1_21</title>
<path fill="none" stroke="black" d="M1180.75,-1178.41C1205.61,-1168.64 1253.35,-1149.86 1290.46,-1135.27"/>
<polygon fill="black" stroke="black" points="1292.11,-1138.38 1300.13,-1131.46 1289.55,-1131.87 1292.11,-1138.38"/>
</g>
<!-- _1_15 -->
<g id="node21" class="node">
<title>_1_15</title>
<text text-anchor="middle" x="1161" y="-462.3" font-family="Times,serif" font-size="14.00">22 &#160;&#160;&#160;&#160;Intermediate input: 1, rsm: FlowsTo_1, input: [0, 2]</text>
</g>
<!-- _1_13&#45;&gt;_1_15 -->
<g id="edge18" class="edge">
<title>_1_13&#45;&gt;_1_15</title>
<path fill="none" stroke="black" d="M1161,-519.7C1161,-508.76 1161,-494.68 1161,-483.83"/>
<polygon fill="black" stroke="black" points="1164.5,-483.62 1161,-473.62 1157.5,-483.62 1164.5,-483.62"/>
</g>
<!-- _1_16 -->
<g id="node22" class="node">
<title>_1_16</title>
<ellipse fill="none" stroke="black" cx="810" cy="-394" rx="217.96" ry="18"/>
<text text-anchor="middle" x="810" y="-390.3" font-family="Times,serif" font-size="14.00">23 &#160;&#160;&#160;&#160;Range , input: [0, 1], rsm: [FlowsTo_0, FlowsTo_1]</text>
</g>
<!-- _1_15&#45;&gt;_1_16 -->
<g id="edge19" class="edge">
<title>_1_15&#45;&gt;_1_16</title>
<path fill="none" stroke="black" d="M1128.29,-458.48C1076.5,-448.15 973.82,-427.67 899.05,-412.76"/>
<polygon fill="black" stroke="black" points="899.64,-409.31 889.15,-410.79 898.27,-416.17 899.64,-409.31"/>
</g>
<!-- _1_17 -->
<g id="node23" class="node">
<title>_1_17</title>
<ellipse fill="none" stroke="black" cx="1263" cy="-394" rx="217.96" ry="18"/>
<text text-anchor="middle" x="1263" y="-390.3" font-family="Times,serif" font-size="14.00">24 &#160;&#160;&#160;&#160;Range , input: [1, 2], rsm: [FlowsTo_1, FlowsTo_1]</text>
</g>
<!-- _1_15&#45;&gt;_1_17 -->
<g id="edge20" class="edge">
<title>_1_15&#45;&gt;_1_17</title>
<path fill="none" stroke="black" d="M1170.78,-458.29C1184.22,-449.07 1209.06,-432.02 1229.58,-417.94"/>
<polygon fill="black" stroke="black" points="1231.8,-420.66 1238.06,-412.12 1227.83,-414.89 1231.8,-420.66"/>
</g>
<!-- _1_18 -->
<g id="node24" class="node">
<title>_1_18</title>
<polygon fill="none" stroke="black" points="918.5,-340 701.5,-340 701.5,-304 918.5,-304 918.5,-340"/>
<text text-anchor="middle" x="810" y="-318.3" font-family="Times,serif" font-size="14.00">25 &#160;&#160;&#160;&#160;Terminal &#39;alloc_r&#39;, input: [0, 1]</text>
</g>
<!-- _1_16&#45;&gt;_1_18 -->
<g id="edge21" class="edge">
<title>_1_16&#45;&gt;_1_18</title>
<path fill="none" stroke="black" d="M810,-375.7C810,-367.98 810,-358.71 810,-350.11"/>
<polygon fill="black" stroke="black" points="813.5,-350.1 810,-340.1 806.5,-350.1 813.5,-350.1"/>
</g>
<!-- _1_19 -->
<g id="node25" class="node">
<title>_1_19</title>
<polygon fill="none" stroke="black" points="1375,-340 1151,-340 1151,-304 1375,-304 1375,-340"/>
<text text-anchor="middle" x="1263" y="-318.3" font-family="Times,serif" font-size="14.00">26 &#160;&#160;&#160;&#160;Terminal &#39;assign_r&#39;, input: [1, 2]</text>
</g>
<!-- _1_17&#45;&gt;_1_19 -->
<g id="edge22" class="edge">
<title>_1_17&#45;&gt;_1_19</title>
<path fill="none" stroke="black" d="M1263,-375.7C1263,-367.98 1263,-358.71 1263,-350.11"/>
<polygon fill="black" stroke="black" points="1266.5,-350.1 1263,-340.1 1259.5,-350.1 1266.5,-350.1"/>
</g>
<!-- _1_22 -->
<g id="node28" class="node">
<title>_1_22</title>
<text text-anchor="middle" x="975" y="-1038.3" font-family="Times,serif" font-size="14.00">5 &#160;&#160;&#160;&#160;Intermediate input: 2, rsm: S_1, input: [1, 3]</text>
</g>
<!-- _1_20&#45;&gt;_1_22 -->
<g id="edge23" class="edge">
<title>_1_20&#45;&gt;_1_22</title>
<path fill="none" stroke="black" d="M984.03,-1095.7C982.14,-1084.64 979.69,-1070.38 977.83,-1059.49"/>
<polygon fill="black" stroke="black" points="981.28,-1058.89 976.14,-1049.62 974.38,-1060.07 981.28,-1058.89"/>
</g>
<!-- _1_23 -->
<g id="node29" class="node">
<title>_1_23</title>
<polygon fill="none" stroke="black" points="1228.36,-1024 1481.64,-1024 1571.84,-1060 1138.16,-1060 1228.36,-1024"/>
<text text-anchor="middle" x="1355" y="-1038.3" font-family="Times,serif" font-size="14.00">6 &#160;&#160;&#160;&#160;Nonterminal PointsTo, input: [3, 4]</text>
</g>
<!-- _1_21&#45;&gt;_1_23 -->
<g id="edge24" class="edge">
<title>_1_21&#45;&gt;_1_23</title>
<path fill="none" stroke="black" d="M1345.21,-1095.7C1346.65,-1087.98 1348.37,-1078.71 1349.96,-1070.11"/>
<polygon fill="black" stroke="black" points="1353.44,-1070.58 1351.82,-1060.1 1346.56,-1069.3 1353.44,-1070.58"/>
</g>
<!-- _1_24 -->
<g id="node30" class="node">
<title>_1_24</title>
<ellipse fill="none" stroke="black" cx="635" cy="-970" rx="161.37" ry="18"/>
<text text-anchor="middle" x="635" y="-966.3" font-family="Times,serif" font-size="14.00">7 &#160;&#160;&#160;&#160;Range , input: [1, 2], rsm: [S_0, S_1]</text>
</g>
<!-- _1_22&#45;&gt;_1_24 -->
<g id="edge25" class="edge">
<title>_1_22&#45;&gt;_1_24</title>
<path fill="none" stroke="black" d="M943.32,-1034.48C892.46,-1024.01 790.96,-1003.11 718.31,-988.15"/>
<polygon fill="black" stroke="black" points="718.75,-984.67 708.25,-986.08 717.34,-991.53 718.75,-984.67"/>
</g>
<!-- _1_25 -->
<g id="node31" class="node">
<title>_1_25</title>
<ellipse fill="none" stroke="black" cx="975" cy="-970" rx="161.37" ry="18"/>
<text text-anchor="middle" x="975" y="-966.3" font-family="Times,serif" font-size="14.00">8 &#160;&#160;&#160;&#160;Range , input: [2, 3], rsm: [S_1, S_0]</text>
</g>
<!-- _1_22&#45;&gt;_1_25 -->
<g id="edge26" class="edge">
<title>_1_22&#45;&gt;_1_25</title>
<path fill="none" stroke="black" d="M975,-1034.29C975,-1025.97 975,-1011.29 975,-998.16"/>
<polygon fill="black" stroke="black" points="978.5,-998.12 975,-988.12 971.5,-998.12 978.5,-998.12"/>
</g>
<!-- _1_26 -->
<g id="node32" class="node">
<title>_1_26</title>
<ellipse fill="none" stroke="black" cx="1369" cy="-970" rx="214.46" ry="18"/>
<text text-anchor="middle" x="1369" y="-966.3" font-family="Times,serif" font-size="14.00">9 &#160;&#160;&#160;&#160;Range , input: [3, 4], rsm: [PointsTo_0, PointsTo_5]</text>
</g>
<!-- _1_23&#45;&gt;_1_26 -->
<g id="edge27" class="edge">
<title>_1_23&#45;&gt;_1_26</title>
<path fill="none" stroke="black" d="M1358.46,-1023.7C1360,-1015.98 1361.86,-1006.71 1363.58,-998.11"/>
<polygon fill="black" stroke="black" points="1367.05,-998.6 1365.58,-988.1 1360.19,-997.22 1367.05,-998.6"/>
</g>
<!-- _1_24&#45;&gt;_1_2 -->
<g id="edge28" class="edge">
<title>_1_24&#45;&gt;_1_2</title>
<path fill="none" stroke="black" d="M645.63,-951.7C650.63,-943.56 656.69,-933.69 662.21,-924.7"/>
<polygon fill="black" stroke="black" points="665.24,-926.46 667.49,-916.1 659.28,-922.79 665.24,-926.46"/>
</g>
<!-- _1_25&#45;&gt;_1_3 -->
<g id="edge29" class="edge">
<title>_1_25&#45;&gt;_1_3</title>
<path fill="none" stroke="black" d="M983.65,-951.7C987.64,-943.73 992.45,-934.1 996.87,-925.26"/>
<polygon fill="black" stroke="black" points="1000.11,-926.61 1001.45,-916.1 993.85,-923.48 1000.11,-926.61"/>
</g>
<!-- _1_26&#45;&gt;_1_4 -->
<g id="edge30" class="edge">
<title>_1_26&#45;&gt;_1_4</title>
<path fill="none" stroke="black" d="M1369,-951.7C1369,-943.98 1369,-934.71 1369,-926.11"/>
<polygon fill="black" stroke="black" points="1372.5,-926.1 1369,-916.1 1365.5,-926.1 1372.5,-926.1"/>
</g>
<!-- _2_0 -->
<g id="node33" class="node">
<title>_2_0</title>
<polygon fill="none" stroke="black" points="2875.19,-1312 3084.81,-1312 3159.47,-1348 2800.53,-1348 2875.19,-1312"/>
<text text-anchor="middle" x="2980" y="-1326.3" font-family="Times,serif" font-size="14.00">0 &#160;&#160;&#160;&#160;Nonterminal S, input: [1, 7]</text>
</g>
<!-- _2_1 -->
<g id="node34" class="node">
<title>_2_1</title>
<ellipse fill="none" stroke="black" cx="2980" cy="-1258" rx="161.37" ry="18"/>
<text text-anchor="middle" x="2980" y="-1254.3" font-family="Times,serif" font-size="14.00">1 &#160;&#160;&#160;&#160;Range , input: [1, 7], rsm: [S_0, S_2]</text>
</g>
<!-- _2_0&#45;&gt;_2_1 -->
<g id="edge31" class="edge">
<title>_2_0&#45;&gt;_2_1</title>
<path fill="none" stroke="black" d="M2980,-1311.7C2980,-1303.98 2980,-1294.71 2980,-1286.11"/>
<polygon fill="black" stroke="black" points="2983.5,-1286.1 2980,-1276.1 2976.5,-1286.1 2983.5,-1286.1"/>
</g>
<!-- _2_12 -->
<g id="node45" class="node">
<title>_2_12</title>
<text text-anchor="middle" x="2980" y="-1182.3" font-family="Times,serif" font-size="14.00">2 &#160;&#160;&#160;&#160;Intermediate input: 6, rsm: S_0, input: [1, 7]</text>
</g>
<!-- _2_1&#45;&gt;_2_12 -->
<g id="edge32" class="edge">
<title>_2_1&#45;&gt;_2_12</title>
<path fill="none" stroke="black" d="M2980,-1239.7C2980,-1228.76 2980,-1214.68 2980,-1203.83"/>
<polygon fill="black" stroke="black" points="2983.5,-1203.62 2980,-1193.62 2976.5,-1203.62 2983.5,-1203.62"/>
</g>
<!-- _2_2 -->
<g id="node35" class="node">
<title>_2_2</title>
<text text-anchor="middle" x="2450" y="-894.3" font-family="Times,serif" font-size="14.00">10 &#160;&#160;&#160;&#160;Intermediate input: 3, rsm: S_0, input: [1, 5]</text>
</g>
<!-- _2_5 -->
<g id="node38" class="node">
<title>_2_5</title>
<ellipse fill="none" stroke="black" cx="2443" cy="-826" rx="165.17" ry="18"/>
<text text-anchor="middle" x="2443" y="-822.3" font-family="Times,serif" font-size="14.00">13 &#160;&#160;&#160;&#160;Range , input: [1, 3], rsm: [S_0, S_0]</text>
</g>
<!-- _2_2&#45;&gt;_2_5 -->
<g id="edge33" class="edge">
<title>_2_2&#45;&gt;_2_5</title>
<path fill="none" stroke="black" d="M2449.33,-890.29C2448.5,-881.97 2447.03,-867.29 2445.72,-854.16"/>
<polygon fill="black" stroke="black" points="2449.19,-853.72 2444.71,-844.12 2442.22,-854.41 2449.19,-853.72"/>
</g>
<!-- _2_6 -->
<g id="node39" class="node">
<title>_2_6</title>
<ellipse fill="none" stroke="black" cx="2797" cy="-826" rx="165.17" ry="18"/>
<text text-anchor="middle" x="2797" y="-822.3" font-family="Times,serif" font-size="14.00">14 &#160;&#160;&#160;&#160;Range , input: [3, 5], rsm: [S_0, S_1]</text>
</g>
<!-- _2_2&#45;&gt;_2_6 -->
<g id="edge34" class="edge">
<title>_2_2&#45;&gt;_2_6</title>
<path fill="none" stroke="black" d="M2482.33,-890.48C2534.34,-879.99 2638.25,-859.02 2712.43,-844.06"/>
<polygon fill="black" stroke="black" points="2713.13,-847.49 2722.24,-842.08 2711.74,-840.63 2713.13,-847.49"/>
</g>
<!-- _2_3 -->
<g id="node36" class="node">
<title>_2_3</title>
<polygon fill="none" stroke="black" points="2899.5,-916 2680.5,-916 2680.5,-880 2899.5,-880 2899.5,-916"/>
<text text-anchor="middle" x="2790" y="-894.3" font-family="Times,serif" font-size="14.00">11 &#160;&#160;&#160;&#160;Terminal &#39;store_1&#39;, input: [5, 6]</text>
</g>
<!-- _2_4 -->
<g id="node37" class="node">
<title>_2_4</title>
<polygon fill="none" stroke="black" points="3287,-916 3081,-916 3081,-880 3287,-880 3287,-916"/>
<text text-anchor="middle" x="3184" y="-894.3" font-family="Times,serif" font-size="14.00">12 &#160;&#160;&#160;&#160;Terminal &#39;alloc&#39;, input: [6, 7]</text>
</g>
<!-- _2_7 -->
<g id="node40" class="node">
<title>_2_7</title>
<text text-anchor="middle" x="2436" y="-750.3" font-family="Times,serif" font-size="14.00">15 &#160;&#160;&#160;&#160;Intermediate input: 2, rsm: S_1, input: [1, 3]</text>
</g>
<!-- _2_5&#45;&gt;_2_7 -->
<g id="edge35" class="edge">
<title>_2_5&#45;&gt;_2_7</title>
<path fill="none" stroke="black" d="M2441.27,-807.7C2440.18,-796.76 2438.77,-782.68 2437.68,-771.83"/>
<polygon fill="black" stroke="black" points="2441.14,-771.23 2436.66,-761.62 2434.17,-771.92 2441.14,-771.23"/>
</g>
<!-- _2_8 -->
<g id="node41" class="node">
<title>_2_8</title>
<polygon fill="none" stroke="black" points="2684.8,-736 2923.2,-736 3008.11,-772 2599.89,-772 2684.8,-736"/>
<text text-anchor="middle" x="2804" y="-750.3" font-family="Times,serif" font-size="14.00">16 &#160;&#160;&#160;&#160;Nonterminal Alias, input: [3, 5]</text>
</g>
<!-- _2_6&#45;&gt;_2_8 -->
<g id="edge36" class="edge">
<title>_2_6&#45;&gt;_2_8</title>
<path fill="none" stroke="black" d="M2798.73,-807.7C2799.5,-799.98 2800.43,-790.71 2801.29,-782.11"/>
<polygon fill="black" stroke="black" points="2804.78,-782.4 2802.29,-772.1 2797.81,-781.71 2804.78,-782.4"/>
</g>
<!-- _2_9 -->
<g id="node42" class="node">
<title>_2_9</title>
<ellipse fill="none" stroke="black" cx="2088" cy="-682" rx="165.17" ry="18"/>
<text text-anchor="middle" x="2088" y="-678.3" font-family="Times,serif" font-size="14.00">17 &#160;&#160;&#160;&#160;Range , input: [1, 2], rsm: [S_0, S_1]</text>
</g>
<!-- _2_7&#45;&gt;_2_9 -->
<g id="edge37" class="edge">
<title>_2_7&#45;&gt;_2_9</title>
<path fill="none" stroke="black" d="M2403.57,-746.48C2351.41,-735.99 2247.21,-715.02 2172.81,-700.06"/>
<polygon fill="black" stroke="black" points="2173.47,-696.62 2162.98,-698.08 2172.09,-703.49 2173.47,-696.62"/>
</g>
<!-- _2_10 -->
<g id="node43" class="node">
<title>_2_10</title>
<ellipse fill="none" stroke="black" cx="2436" cy="-682" rx="165.17" ry="18"/>
<text text-anchor="middle" x="2436" y="-678.3" font-family="Times,serif" font-size="14.00">18 &#160;&#160;&#160;&#160;Range , input: [2, 3], rsm: [S_1, S_0]</text>
</g>
<!-- _2_7&#45;&gt;_2_10 -->
<g id="edge38" class="edge">
<title>_2_7&#45;&gt;_2_10</title>
<path fill="none" stroke="black" d="M2436,-746.29C2436,-737.97 2436,-723.29 2436,-710.16"/>
<polygon fill="black" stroke="black" points="2439.5,-710.12 2436,-700.12 2432.5,-710.12 2439.5,-710.12"/>
</g>
<!-- _2_11 -->
<g id="node44" class="node">
<title>_2_11</title>
<ellipse fill="none" stroke="black" cx="2811" cy="-682" rx="192.27" ry="18"/>
<text text-anchor="middle" x="2811" y="-678.3" font-family="Times,serif" font-size="14.00">19 &#160;&#160;&#160;&#160;Range , input: [3, 5], rsm: [Alias_0, Alias_2]</text>
</g>
<!-- _2_8&#45;&gt;_2_11 -->
<g id="edge39" class="edge">
<title>_2_8&#45;&gt;_2_11</title>
<path fill="none" stroke="black" d="M2805.73,-735.7C2806.5,-727.98 2807.43,-718.71 2808.29,-710.11"/>
<polygon fill="black" stroke="black" points="2811.78,-710.4 2809.29,-700.1 2804.81,-709.71 2811.78,-710.4"/>
</g>
<!-- _2_13 -->
<g id="node46" class="node">
<title>_2_13</title>
<polygon fill="none" stroke="black" points="1968.8,-592 2207.2,-592 2292.11,-628 1883.89,-628 1968.8,-592"/>
<text text-anchor="middle" x="2088" y="-606.3" font-family="Times,serif" font-size="14.00">20 &#160;&#160;&#160;&#160;Nonterminal Alias, input: [1, 2]</text>
</g>
<!-- _2_9&#45;&gt;_2_13 -->
<g id="edge40" class="edge">
<title>_2_9&#45;&gt;_2_13</title>
<path fill="none" stroke="black" d="M2088,-663.7C2088,-655.98 2088,-646.71 2088,-638.11"/>
<polygon fill="black" stroke="black" points="2091.5,-638.1 2088,-628.1 2084.5,-638.1 2091.5,-638.1"/>
</g>
<!-- _2_14 -->
<g id="node47" class="node">
<title>_2_14</title>
<polygon fill="none" stroke="black" points="2545.5,-628 2326.5,-628 2326.5,-592 2545.5,-592 2545.5,-628"/>
<text text-anchor="middle" x="2436" y="-606.3" font-family="Times,serif" font-size="14.00">21 &#160;&#160;&#160;&#160;Terminal &#39;store_0&#39;, input: [2, 3]</text>
</g>
<!-- _2_10&#45;&gt;_2_14 -->
<g id="edge41" class="edge">
<title>_2_10&#45;&gt;_2_14</title>
<path fill="none" stroke="black" d="M2436,-663.7C2436,-655.98 2436,-646.71 2436,-638.11"/>
<polygon fill="black" stroke="black" points="2439.5,-638.1 2436,-628.1 2432.5,-638.1 2439.5,-638.1"/>
</g>
<!-- _2_15 -->
<g id="node48" class="node">
<title>_2_15</title>
<text text-anchor="middle" x="2811" y="-606.3" font-family="Times,serif" font-size="14.00">22 &#160;&#160;&#160;&#160;Intermediate input: 4, rsm: Alias_1, input: [3, 5]</text>
</g>
<!-- _2_11&#45;&gt;_2_15 -->
<g id="edge42" class="edge">
<title>_2_11&#45;&gt;_2_15</title>
<path fill="none" stroke="black" d="M2811,-663.7C2811,-652.76 2811,-638.68 2811,-627.83"/>
<polygon fill="black" stroke="black" points="2814.5,-627.62 2811,-617.62 2807.5,-627.62 2814.5,-627.62"/>
</g>
<!-- _2_23 -->
<g id="node56" class="node">
<title>_2_23</title>
<ellipse fill="none" stroke="black" cx="2803" cy="-1114" rx="161.37" ry="18"/>
<text text-anchor="middle" x="2803" y="-1110.3" font-family="Times,serif" font-size="14.00">3 &#160;&#160;&#160;&#160;Range , input: [1, 6], rsm: [S_0, S_0]</text>
</g>
<!-- _2_12&#45;&gt;_2_23 -->
<g id="edge43" class="edge">
<title>_2_12&#45;&gt;_2_23</title>
<path fill="none" stroke="black" d="M2963.35,-1178.41C2938.62,-1168.64 2891.15,-1149.86 2854.25,-1135.27"/>
<polygon fill="black" stroke="black" points="2855.22,-1131.89 2844.63,-1131.46 2852.64,-1138.4 2855.22,-1131.89"/>
</g>
<!-- _2_34 -->
<g id="node67" class="node">
<title>_2_34</title>
<ellipse fill="none" stroke="black" cx="3158" cy="-1114" rx="161.37" ry="18"/>
<text text-anchor="middle" x="3158" y="-1110.3" font-family="Times,serif" font-size="14.00">4 &#160;&#160;&#160;&#160;Range , input: [6, 7], rsm: [S_0, S_2]</text>
</g>
<!-- _2_12&#45;&gt;_2_34 -->
<g id="edge44" class="edge">
<title>_2_12&#45;&gt;_2_34</title>
<path fill="none" stroke="black" d="M2996.75,-1178.41C3021.61,-1168.64 3069.35,-1149.86 3106.46,-1135.27"/>
<polygon fill="black" stroke="black" points="3108.11,-1138.38 3116.13,-1131.46 3105.55,-1131.87 3108.11,-1138.38"/>
</g>
<!-- _2_16 -->
<g id="node49" class="node">
<title>_2_16</title>
<ellipse fill="none" stroke="black" cx="2088" cy="-538" rx="192.27" ry="18"/>
<text text-anchor="middle" x="2088" y="-534.3" font-family="Times,serif" font-size="14.00">23 &#160;&#160;&#160;&#160;Range , input: [1, 2], rsm: [Alias_0, Alias_2]</text>
</g>
<!-- _2_13&#45;&gt;_2_16 -->
<g id="edge45" class="edge">
<title>_2_13&#45;&gt;_2_16</title>
<path fill="none" stroke="black" d="M2088,-591.7C2088,-583.98 2088,-574.71 2088,-566.11"/>
<polygon fill="black" stroke="black" points="2091.5,-566.1 2088,-556.1 2084.5,-566.1 2091.5,-566.1"/>
</g>
<!-- _2_17 -->
<g id="node50" class="node">
<title>_2_17</title>
<ellipse fill="none" stroke="black" cx="2726" cy="-538" rx="192.27" ry="18"/>
<text text-anchor="middle" x="2726" y="-534.3" font-family="Times,serif" font-size="14.00">24 &#160;&#160;&#160;&#160;Range , input: [3, 4], rsm: [Alias_0, Alias_1]</text>
</g>
<!-- _2_15&#45;&gt;_2_17 -->
<g id="edge46" class="edge">
<title>_2_15&#45;&gt;_2_17</title>
<path fill="none" stroke="black" d="M2802.85,-602.29C2791.85,-593.23 2771.69,-576.62 2754.77,-562.69"/>
<polygon fill="black" stroke="black" points="2756.73,-559.77 2746.78,-556.12 2752.28,-565.17 2756.73,-559.77"/>
</g>
<!-- _2_18 -->
<g id="node51" class="node">
<title>_2_18</title>
<ellipse fill="none" stroke="black" cx="3159" cy="-538" rx="192.27" ry="18"/>
<text text-anchor="middle" x="3159" y="-534.3" font-family="Times,serif" font-size="14.00">25 &#160;&#160;&#160;&#160;Range , input: [4, 5], rsm: [Alias_1, Alias_2]</text>
</g>
<!-- _2_15&#45;&gt;_2_18 -->
<g id="edge47" class="edge">
<title>_2_15&#45;&gt;_2_18</title>
<path fill="none" stroke="black" d="M2843.43,-602.48C2895.1,-592.08 2997.86,-571.41 3072.11,-556.48"/>
<polygon fill="black" stroke="black" points="3072.82,-559.91 3081.93,-554.5 3071.44,-553.04 3072.82,-559.91"/>
</g>
<!-- _2_19 -->
<g id="node52" class="node">
<title>_2_19</title>
<text text-anchor="middle" x="2088" y="-462.3" font-family="Times,serif" font-size="14.00">26 &#160;&#160;&#160;&#160;Intermediate input: 0, rsm: Alias_1, input: [1, 2]</text>
</g>
<!-- _2_16&#45;&gt;_2_19 -->
<g id="edge48" class="edge">
<title>_2_16&#45;&gt;_2_19</title>
<path fill="none" stroke="black" d="M2088,-519.7C2088,-508.76 2088,-494.68 2088,-483.83"/>
<polygon fill="black" stroke="black" points="2091.5,-483.62 2088,-473.62 2084.5,-483.62 2091.5,-483.62"/>
</g>
<!-- _2_20 -->
<g id="node53" class="node">
<title>_2_20</title>
<polygon fill="none" stroke="black" points="2580.64,-448 2841.36,-448 2934.21,-484 2487.79,-484 2580.64,-448"/>
<text text-anchor="middle" x="2711" y="-462.3" font-family="Times,serif" font-size="14.00">27 &#160;&#160;&#160;&#160;Nonterminal PointsTo, input: [3, 4]</text>
</g>
<!-- _2_17&#45;&gt;_2_20 -->
<g id="edge49" class="edge">
<title>_2_17&#45;&gt;_2_20</title>
<path fill="none" stroke="black" d="M2722.29,-519.7C2720.64,-511.98 2718.65,-502.71 2716.81,-494.11"/>
<polygon fill="black" stroke="black" points="2720.18,-493.15 2714.67,-484.1 2713.34,-494.62 2720.18,-493.15"/>
</g>
<!-- _2_21 -->
<g id="node54" class="node">
<title>_2_21</title>
<polygon fill="none" stroke="black" points="3045.13,-448 3304.87,-448 3397.37,-484 2952.63,-484 3045.13,-448"/>
<text text-anchor="middle" x="3175" y="-462.3" font-family="Times,serif" font-size="14.00">28 &#160;&#160;&#160;&#160;Nonterminal FlowsTo, input: [4, 5]</text>
</g>
<!-- _2_18&#45;&gt;_2_21 -->
<g id="edge50" class="edge">
<title>_2_18&#45;&gt;_2_21</title>
<path fill="none" stroke="black" d="M3162.96,-519.7C3164.72,-511.98 3166.84,-502.71 3168.8,-494.11"/>
<polygon fill="black" stroke="black" points="3172.27,-494.63 3171.09,-484.1 3165.45,-493.07 3172.27,-494.63"/>
</g>
<!-- _2_22 -->
<g id="node55" class="node">
<title>_2_22</title>
<ellipse fill="none" stroke="black" cx="1837" cy="-394" rx="192.27" ry="18"/>
<text text-anchor="middle" x="1837" y="-390.3" font-family="Times,serif" font-size="14.00">29 &#160;&#160;&#160;&#160;Range , input: [1, 0], rsm: [Alias_0, Alias_1]</text>
</g>
<!-- _2_19&#45;&gt;_2_22 -->
<g id="edge51" class="edge">
<title>_2_19&#45;&gt;_2_22</title>
<path fill="none" stroke="black" d="M2064.39,-458.41C2028.2,-448.32 1957.65,-428.65 1904.68,-413.88"/>
<polygon fill="black" stroke="black" points="1905.58,-410.49 1895.01,-411.18 1903.7,-417.24 1905.58,-410.49"/>
</g>
<!-- _2_24 -->
<g id="node57" class="node">
<title>_2_24</title>
<ellipse fill="none" stroke="black" cx="2268" cy="-394" rx="192.27" ry="18"/>
<text text-anchor="middle" x="2268" y="-390.3" font-family="Times,serif" font-size="14.00">30 &#160;&#160;&#160;&#160;Range , input: [0, 2], rsm: [Alias_1, Alias_2]</text>
</g>
<!-- _2_19&#45;&gt;_2_24 -->
<g id="edge52" class="edge">
<title>_2_19&#45;&gt;_2_24</title>
<path fill="none" stroke="black" d="M2104.93,-458.41C2130,-448.67 2178.05,-429.98 2215.52,-415.41"/>
<polygon fill="black" stroke="black" points="2217.24,-418.49 2225.29,-411.61 2214.7,-411.97 2217.24,-418.49"/>
</g>
<!-- _2_25 -->
<g id="node58" class="node">
<title>_2_25</title>
<ellipse fill="none" stroke="black" cx="2711" cy="-394" rx="219.06" ry="18"/>
<text text-anchor="middle" x="2711" y="-390.3" font-family="Times,serif" font-size="14.00">31 &#160;&#160;&#160;&#160;Range , input: [3, 4], rsm: [PointsTo_0, PointsTo_5]</text>
</g>
<!-- _2_20&#45;&gt;_2_25 -->
<g id="edge53" class="edge">
<title>_2_20&#45;&gt;_2_25</title>
<path fill="none" stroke="black" d="M2711,-447.7C2711,-439.98 2711,-430.71 2711,-422.11"/>
<polygon fill="black" stroke="black" points="2714.5,-422.1 2711,-412.1 2707.5,-422.1 2714.5,-422.1"/>
</g>
<!-- _2_26 -->
<g id="node59" class="node">
<title>_2_26</title>
<ellipse fill="none" stroke="black" cx="3175" cy="-394" rx="217.96" ry="18"/>
<text text-anchor="middle" x="3175" y="-390.3" font-family="Times,serif" font-size="14.00">32 &#160;&#160;&#160;&#160;Range , input: [4, 5], rsm: [FlowsTo_0, FlowsTo_1]</text>
</g>
<!-- _2_21&#45;&gt;_2_26 -->
<g id="edge54" class="edge">
<title>_2_21&#45;&gt;_2_26</title>
<path fill="none" stroke="black" d="M3175,-447.7C3175,-439.98 3175,-430.71 3175,-422.11"/>
<polygon fill="black" stroke="black" points="3178.5,-422.1 3175,-412.1 3171.5,-422.1 3178.5,-422.1"/>
</g>
<!-- _2_27 -->
<g id="node60" class="node">
<title>_2_27</title>
<polygon fill="none" stroke="black" points="1699.64,-304 1960.36,-304 2053.21,-340 1606.79,-340 1699.64,-304"/>
<text text-anchor="middle" x="1830" y="-318.3" font-family="Times,serif" font-size="14.00">33 &#160;&#160;&#160;&#160;Nonterminal PointsTo, input: [1, 0]</text>
</g>
<!-- _2_22&#45;&gt;_2_27 -->
<g id="edge55" class="edge">
<title>_2_22&#45;&gt;_2_27</title>
<path fill="none" stroke="black" d="M1835.27,-375.7C1834.5,-367.98 1833.57,-358.71 1832.71,-350.11"/>
<polygon fill="black" stroke="black" points="1836.19,-349.71 1831.71,-340.1 1829.22,-350.4 1836.19,-349.71"/>
</g>
<!-- _2_44 -->
<g id="node77" class="node">
<title>_2_44</title>
<text text-anchor="middle" x="2790" y="-1038.3" font-family="Times,serif" font-size="14.00">5 &#160;&#160;&#160;&#160;Intermediate input: 5, rsm: S_1, input: [1, 6]</text>
</g>
<!-- _2_23&#45;&gt;_2_44 -->
<g id="edge56" class="edge">
<title>_2_23&#45;&gt;_2_44</title>
<path fill="none" stroke="black" d="M2799.79,-1095.7C2797.73,-1084.64 2795.09,-1070.38 2793.06,-1059.49"/>
<polygon fill="black" stroke="black" points="2796.5,-1058.82 2791.23,-1049.62 2789.62,-1060.1 2796.5,-1058.82"/>
</g>
<!-- _2_28 -->
<g id="node61" class="node">
<title>_2_28</title>
<polygon fill="none" stroke="black" points="2164.13,-304 2423.87,-304 2516.37,-340 2071.63,-340 2164.13,-304"/>
<text text-anchor="middle" x="2294" y="-318.3" font-family="Times,serif" font-size="14.00">34 &#160;&#160;&#160;&#160;Nonterminal FlowsTo, input: [0, 2]</text>
</g>
<!-- _2_24&#45;&gt;_2_28 -->
<g id="edge57" class="edge">
<title>_2_24&#45;&gt;_2_28</title>
<path fill="none" stroke="black" d="M2274.43,-375.7C2277.36,-367.81 2280.89,-358.3 2284.14,-349.55"/>
<polygon fill="black" stroke="black" points="2287.45,-350.7 2287.65,-340.1 2280.88,-348.26 2287.45,-350.7"/>
</g>
<!-- _2_29 -->
<g id="node62" class="node">
<title>_2_29</title>
<polygon fill="none" stroke="black" points="2814,-340 2608,-340 2608,-304 2814,-304 2814,-340"/>
<text text-anchor="middle" x="2711" y="-318.3" font-family="Times,serif" font-size="14.00">35 &#160;&#160;&#160;&#160;Terminal &#39;alloc&#39;, input: [3, 4]</text>
</g>
<!-- _2_25&#45;&gt;_2_29 -->
<g id="edge58" class="edge">
<title>_2_25&#45;&gt;_2_29</title>
<path fill="none" stroke="black" d="M2711,-375.7C2711,-367.98 2711,-358.71 2711,-350.11"/>
<polygon fill="black" stroke="black" points="2714.5,-350.1 2711,-340.1 2707.5,-350.1 2714.5,-350.1"/>
</g>
<!-- _2_30 -->
<g id="node63" class="node">
<title>_2_30</title>
<text text-anchor="middle" x="3175" y="-318.3" font-family="Times,serif" font-size="14.00">36 &#160;&#160;&#160;&#160;Intermediate input: 3, rsm: FlowsTo_1, input: [4, 5]</text>
</g>
<!-- _2_26&#45;&gt;_2_30 -->
<g id="edge59" class="edge">
<title>_2_26&#45;&gt;_2_30</title>
<path fill="none" stroke="black" d="M3175,-375.7C3175,-364.76 3175,-350.68 3175,-339.83"/>
<polygon fill="black" stroke="black" points="3178.5,-339.62 3175,-329.62 3171.5,-339.62 3178.5,-339.62"/>
</g>
<!-- _2_31 -->
<g id="node64" class="node">
<title>_2_31</title>
<ellipse fill="none" stroke="black" cx="1826" cy="-250" rx="219.06" ry="18"/>
<text text-anchor="middle" x="1826" y="-246.3" font-family="Times,serif" font-size="14.00">37 &#160;&#160;&#160;&#160;Range , input: [1, 0], rsm: [PointsTo_0, PointsTo_5]</text>
</g>
<!-- _2_27&#45;&gt;_2_31 -->
<g id="edge60" class="edge">
<title>_2_27&#45;&gt;_2_31</title>
<path fill="none" stroke="black" d="M1829.01,-303.7C1828.57,-295.98 1828.04,-286.71 1827.55,-278.11"/>
<polygon fill="black" stroke="black" points="1831.04,-277.89 1826.98,-268.1 1824.05,-278.29 1831.04,-277.89"/>
</g>
<!-- _2_32 -->
<g id="node65" class="node">
<title>_2_32</title>
<ellipse fill="none" stroke="black" cx="2281" cy="-250" rx="217.96" ry="18"/>
<text text-anchor="middle" x="2281" y="-246.3" font-family="Times,serif" font-size="14.00">38 &#160;&#160;&#160;&#160;Range , input: [0, 2], rsm: [FlowsTo_0, FlowsTo_1]</text>
</g>
<!-- _2_28&#45;&gt;_2_32 -->
<g id="edge61" class="edge">
<title>_2_28&#45;&gt;_2_32</title>
<path fill="none" stroke="black" d="M2290.79,-303.7C2289.35,-295.98 2287.63,-286.71 2286.04,-278.11"/>
<polygon fill="black" stroke="black" points="2289.44,-277.3 2284.18,-268.1 2282.56,-278.58 2289.44,-277.3"/>
</g>
<!-- _2_33 -->
<g id="node66" class="node">
<title>_2_33</title>
<ellipse fill="none" stroke="black" cx="2734" cy="-250" rx="217.96" ry="18"/>
<text text-anchor="middle" x="2734" y="-246.3" font-family="Times,serif" font-size="14.00">39 &#160;&#160;&#160;&#160;Range , input: [4, 3], rsm: [FlowsTo_0, FlowsTo_1]</text>
</g>
<!-- _2_30&#45;&gt;_2_33 -->
<g id="edge62" class="edge">
<title>_2_30&#45;&gt;_2_33</title>
<path fill="none" stroke="black" d="M3133.91,-314.48C3067.48,-303.93 2934.42,-282.81 2840.05,-267.83"/>
<polygon fill="black" stroke="black" points="2840.32,-264.33 2829.9,-266.22 2839.22,-271.25 2840.32,-264.33"/>
</g>
<!-- _2_35 -->
<g id="node68" class="node">
<title>_2_35</title>
<ellipse fill="none" stroke="black" cx="3187" cy="-250" rx="217.96" ry="18"/>
<text text-anchor="middle" x="3187" y="-246.3" font-family="Times,serif" font-size="14.00">40 &#160;&#160;&#160;&#160;Range , input: [3, 5], rsm: [FlowsTo_1, FlowsTo_1]</text>
</g>
<!-- _2_30&#45;&gt;_2_35 -->
<g id="edge63" class="edge">
<title>_2_30&#45;&gt;_2_35</title>
<path fill="none" stroke="black" d="M3176.15,-314.29C3177.58,-305.97 3180.09,-291.29 3182.34,-278.16"/>
<polygon fill="black" stroke="black" points="3185.83,-278.56 3184.07,-268.12 3178.93,-277.38 3185.83,-278.56"/>
</g>
<!-- _2_36 -->
<g id="node69" class="node">
<title>_2_36</title>
<polygon fill="none" stroke="black" points="1929,-196 1723,-196 1723,-160 1929,-160 1929,-196"/>
<text text-anchor="middle" x="1826" y="-174.3" font-family="Times,serif" font-size="14.00">41 &#160;&#160;&#160;&#160;Terminal &#39;alloc&#39;, input: [1, 0]</text>
</g>
<!-- _2_31&#45;&gt;_2_36 -->
<g id="edge64" class="edge">
<title>_2_31&#45;&gt;_2_36</title>
<path fill="none" stroke="black" d="M1826,-231.7C1826,-223.98 1826,-214.71 1826,-206.11"/>
<polygon fill="black" stroke="black" points="1829.5,-206.1 1826,-196.1 1822.5,-206.1 1829.5,-206.1"/>
</g>
<!-- _2_37 -->
<g id="node70" class="node">
<title>_2_37</title>
<text text-anchor="middle" x="2281" y="-174.3" font-family="Times,serif" font-size="14.00">42 &#160;&#160;&#160;&#160;Intermediate input: 1, rsm: FlowsTo_1, input: [0, 2]</text>
</g>
<!-- _2_32&#45;&gt;_2_37 -->
<g id="edge65" class="edge">
<title>_2_32&#45;&gt;_2_37</title>
<path fill="none" stroke="black" d="M2281,-231.7C2281,-220.76 2281,-206.68 2281,-195.83"/>
<polygon fill="black" stroke="black" points="2284.5,-195.62 2281,-185.62 2277.5,-195.62 2284.5,-195.62"/>
</g>
<!-- _2_38 -->
<g id="node71" class="node">
<title>_2_38</title>
<polygon fill="none" stroke="black" points="2842.5,-196 2625.5,-196 2625.5,-160 2842.5,-160 2842.5,-196"/>
<text text-anchor="middle" x="2734" y="-174.3" font-family="Times,serif" font-size="14.00">43 &#160;&#160;&#160;&#160;Terminal &#39;alloc_r&#39;, input: [4, 3]</text>
</g>
<!-- _2_33&#45;&gt;_2_38 -->
<g id="edge66" class="edge">
<title>_2_33&#45;&gt;_2_38</title>
<path fill="none" stroke="black" d="M2734,-231.7C2734,-223.98 2734,-214.71 2734,-206.11"/>
<polygon fill="black" stroke="black" points="2737.5,-206.1 2734,-196.1 2730.5,-206.1 2737.5,-206.1"/>
</g>
<!-- _2_45 -->
<g id="node78" class="node">
<title>_2_45</title>
<polygon fill="none" stroke="black" points="3045.36,-1024 3298.64,-1024 3388.84,-1060 2955.16,-1060 3045.36,-1024"/>
<text text-anchor="middle" x="3172" y="-1038.3" font-family="Times,serif" font-size="14.00">6 &#160;&#160;&#160;&#160;Nonterminal PointsTo, input: [6, 7]</text>
</g>
<!-- _2_34&#45;&gt;_2_45 -->
<g id="edge67" class="edge">
<title>_2_34&#45;&gt;_2_45</title>
<path fill="none" stroke="black" d="M3161.46,-1095.7C3163,-1087.98 3164.86,-1078.71 3166.58,-1070.11"/>
<polygon fill="black" stroke="black" points="3170.05,-1070.6 3168.58,-1060.1 3163.19,-1069.22 3170.05,-1070.6"/>
</g>
<!-- _2_39 -->
<g id="node72" class="node">
<title>_2_39</title>
<polygon fill="none" stroke="black" points="3299,-196 3075,-196 3075,-160 3299,-160 3299,-196"/>
<text text-anchor="middle" x="3187" y="-174.3" font-family="Times,serif" font-size="14.00">44 &#160;&#160;&#160;&#160;Terminal &#39;assign_r&#39;, input: [3, 5]</text>
</g>
<!-- _2_35&#45;&gt;_2_39 -->
<g id="edge68" class="edge">
<title>_2_35&#45;&gt;_2_39</title>
<path fill="none" stroke="black" d="M3187,-231.7C3187,-223.98 3187,-214.71 3187,-206.11"/>
<polygon fill="black" stroke="black" points="3190.5,-206.1 3187,-196.1 3183.5,-206.1 3190.5,-206.1"/>
</g>
<!-- _2_40 -->
<g id="node73" class="node">
<title>_2_40</title>
<ellipse fill="none" stroke="black" cx="2054" cy="-106" rx="217.96" ry="18"/>
<text text-anchor="middle" x="2054" y="-102.3" font-family="Times,serif" font-size="14.00">45 &#160;&#160;&#160;&#160;Range , input: [0, 1], rsm: [FlowsTo_0, FlowsTo_1]</text>
</g>
<!-- _2_37&#45;&gt;_2_40 -->
<g id="edge69" class="edge">
<title>_2_37&#45;&gt;_2_40</title>
<path fill="none" stroke="black" d="M2259.64,-170.41C2227.33,-160.45 2164.71,-141.14 2117.02,-126.43"/>
<polygon fill="black" stroke="black" points="2117.98,-123.07 2107.39,-123.46 2115.92,-129.76 2117.98,-123.07"/>
</g>
<!-- _2_41 -->
<g id="node74" class="node">
<title>_2_41</title>
<ellipse fill="none" stroke="black" cx="2507" cy="-106" rx="217.96" ry="18"/>
<text text-anchor="middle" x="2507" y="-102.3" font-family="Times,serif" font-size="14.00">46 &#160;&#160;&#160;&#160;Range , input: [1, 2], rsm: [FlowsTo_1, FlowsTo_1]</text>
</g>
<!-- _2_37&#45;&gt;_2_41 -->
<g id="edge70" class="edge">
<title>_2_37&#45;&gt;_2_41</title>
<path fill="none" stroke="black" d="M2302.26,-170.41C2334.44,-160.45 2396.78,-141.14 2444.26,-126.43"/>
<polygon fill="black" stroke="black" points="2445.33,-129.77 2453.84,-123.46 2443.25,-123.08 2445.33,-129.77"/>
</g>
<!-- _2_42 -->
<g id="node75" class="node">
<title>_2_42</title>
<polygon fill="none" stroke="black" points="2162.5,-52 1945.5,-52 1945.5,-16 2162.5,-16 2162.5,-52"/>
<text text-anchor="middle" x="2054" y="-30.3" font-family="Times,serif" font-size="14.00">47 &#160;&#160;&#160;&#160;Terminal &#39;alloc_r&#39;, input: [0, 1]</text>
</g>
<!-- _2_40&#45;&gt;_2_42 -->
<g id="edge71" class="edge">
<title>_2_40&#45;&gt;_2_42</title>
<path fill="none" stroke="black" d="M2054,-87.7C2054,-79.98 2054,-70.71 2054,-62.11"/>
<polygon fill="black" stroke="black" points="2057.5,-62.1 2054,-52.1 2050.5,-62.1 2057.5,-62.1"/>
</g>
<!-- _2_43 -->
<g id="node76" class="node">
<title>_2_43</title>
<polygon fill="none" stroke="black" points="2619,-52 2395,-52 2395,-16 2619,-16 2619,-52"/>
<text text-anchor="middle" x="2507" y="-30.3" font-family="Times,serif" font-size="14.00">48 &#160;&#160;&#160;&#160;Terminal &#39;assign_r&#39;, input: [1, 2]</text>
</g>
<!-- _2_41&#45;&gt;_2_43 -->
<g id="edge72" class="edge">
<title>_2_41&#45;&gt;_2_43</title>
<path fill="none" stroke="black" d="M2507,-87.7C2507,-79.98 2507,-70.71 2507,-62.11"/>
<polygon fill="black" stroke="black" points="2510.5,-62.1 2507,-52.1 2503.5,-62.1 2510.5,-62.1"/>
</g>
<!-- _2_46 -->
<g id="node79" class="node">
<title>_2_46</title>
<ellipse fill="none" stroke="black" cx="2450" cy="-970" rx="161.37" ry="18"/>
<text text-anchor="middle" x="2450" y="-966.3" font-family="Times,serif" font-size="14.00">7 &#160;&#160;&#160;&#160;Range , input: [1, 5], rsm: [S_0, S_1]</text>
</g>
<!-- _2_44&#45;&gt;_2_46 -->
<g id="edge73" class="edge">
<title>_2_44&#45;&gt;_2_46</title>
<path fill="none" stroke="black" d="M2758.32,-1034.48C2707.46,-1024.01 2605.96,-1003.11 2533.31,-988.15"/>
<polygon fill="black" stroke="black" points="2533.75,-984.67 2523.25,-986.08 2532.34,-991.53 2533.75,-984.67"/>
</g>
<!-- _2_47 -->
<g id="node80" class="node">
<title>_2_47</title>
<ellipse fill="none" stroke="black" cx="2790" cy="-970" rx="161.37" ry="18"/>
<text text-anchor="middle" x="2790" y="-966.3" font-family="Times,serif" font-size="14.00">8 &#160;&#160;&#160;&#160;Range , input: [5, 6], rsm: [S_1, S_0]</text>
</g>
<!-- _2_44&#45;&gt;_2_47 -->
<g id="edge74" class="edge">
<title>_2_44&#45;&gt;_2_47</title>
<path fill="none" stroke="black" d="M2790,-1034.29C2790,-1025.97 2790,-1011.29 2790,-998.16"/>
<polygon fill="black" stroke="black" points="2793.5,-998.12 2790,-988.12 2786.5,-998.12 2793.5,-998.12"/>
</g>
<!-- _2_48 -->
<g id="node81" class="node">
<title>_2_48</title>
<ellipse fill="none" stroke="black" cx="3184" cy="-970" rx="214.46" ry="18"/>
<text text-anchor="middle" x="3184" y="-966.3" font-family="Times,serif" font-size="14.00">9 &#160;&#160;&#160;&#160;Range , input: [6, 7], rsm: [PointsTo_0, PointsTo_5]</text>
</g>
<!-- _2_45&#45;&gt;_2_48 -->
<g id="edge75" class="edge">
<title>_2_45&#45;&gt;_2_48</title>
<path fill="none" stroke="black" d="M3174.97,-1023.7C3176.29,-1015.98 3177.88,-1006.71 3179.35,-998.11"/>
<polygon fill="black" stroke="black" points="3182.83,-998.55 3181.07,-988.1 3175.93,-997.37 3182.83,-998.55"/>
</g>
<!-- _2_46&#45;&gt;_2_2 -->
<g id="edge76" class="edge">
<title>_2_46&#45;&gt;_2_2</title>
<path fill="none" stroke="black" d="M2450,-951.7C2450,-940.76 2450,-926.68 2450,-915.83"/>
<polygon fill="black" stroke="black" points="2453.5,-915.62 2450,-905.62 2446.5,-915.62 2453.5,-915.62"/>
</g>
<!-- _2_47&#45;&gt;_2_3 -->
<g id="edge77" class="edge">
<title>_2_47&#45;&gt;_2_3</title>
<path fill="none" stroke="black" d="M2790,-951.7C2790,-943.98 2790,-934.71 2790,-926.11"/>
<polygon fill="black" stroke="black" points="2793.5,-926.1 2790,-916.1 2786.5,-926.1 2793.5,-926.1"/>
</g>
<!-- _2_48&#45;&gt;_2_4 -->
<g id="edge78" class="edge">
<title>_2_48&#45;&gt;_2_4</title>
<path fill="none" stroke="black" d="M3184,-951.7C3184,-943.98 3184,-934.71 3184,-926.11"/>
<polygon fill="black" stroke="black" points="3187.5,-926.1 3184,-916.1 3180.5,-926.1 3187.5,-926.1"/>
</g>
</g>
</svg>
