<?xml version="1.0" encoding="UTF-8" standalone="no"?>
<!DOCTYPE svg PUBLIC "-//W3C//DTD SVG 1.1//EN"
 "http://www.w3.org/Graphics/SVG/1.1/DTD/svg11.dtd">
<!-- Generated by graphviz version 2.43.0 (0)
 -->
<!-- Title: g Pages: 1 -->
<svg width="1982pt" height="795pt"
 viewBox="0.00 0.00 1982.00 795.15" xmlns="http://www.w3.org/2000/svg" xmlns:xlink="http://www.w3.org/1999/xlink">
<g id="graph0" class="graph" transform="scale(1 1) rotate(0) translate(4 791.15)">
<title>g</title>
<polygon fill="white" stroke="transparent" points="-4,4 -4,-791.15 1978,-791.15 1978,4 -4,4"/>
<g id="clust1" class="cluster">
<title>cluster_S</title>
<polygon fill="none" stroke="black" points="8,-503.07 8,-752.51 395,-752.51 395,-503.07 8,-503.07"/>
<text text-anchor="middle" x="201.5" y="-737.31" font-family="Times,serif" font-size="14.00">S</text>
</g>
<g id="clust2" class="cluster">
<title>cluster_FlowsTo</title>
<polygon fill="none" stroke="black" points="1126,-166.34 1126,-778.5 1858,-778.5 1858,-166.34 1126,-166.34"/>
<text text-anchor="middle" x="1492" y="-763.3" font-family="Times,serif" font-size="14.00">FlowsTo</text>
</g>
<g id="clust3" class="cluster">
<title>cluster_Alias</title>
<polygon fill="none" stroke="black" points="1866,-332.38 1866,-766.16 1966,-766.16 1966,-332.38 1866,-332.38"/>
<text text-anchor="middle" x="1916" y="-750.96" font-family="Times,serif" font-size="14.00">Alias</text>
</g>
<g id="clust4" class="cluster">
<title>cluster_PointsTo</title>
<polygon fill="none" stroke="black" points="403,-8 403,-779.15 1118,-779.15 1118,-8 403,-8"/>
<text text-anchor="middle" x="760.5" y="-763.95" font-family="Times,serif" font-size="14.00">PointsTo</text>
</g>
<!-- S_2 -->
<g id="node1" class="node">
<title>S_2</title>
<ellipse fill="none" stroke="red" cx="338" cy="-539.77" rx="24.87" ry="24.87"/>
<ellipse fill="none" stroke="red" cx="338" cy="-539.77" rx="28.9" ry="28.9"/>
<text text-anchor="middle" x="338" y="-536.07" font-family="Times,serif" font-size="14.00">S_2</text>
</g>
<!-- PointsTo_4 -->
<g id="node2" class="node">
<title>PointsTo_4</title>
<ellipse fill="none" stroke="black" cx="736" cy="-696.81" rx="51.19" ry="51.19"/>
<text text-anchor="middle" x="736" y="-693.11" font-family="Times,serif" font-size="14.00">PointsTo_4</text>
</g>
<!-- PointsTo_6 -->
<g id="node20" class="node">
<title>PointsTo_6</title>
<ellipse fill="none" stroke="black" cx="680" cy="-539.77" rx="51.19" ry="51.19"/>
<text text-anchor="middle" x="680" y="-536.07" font-family="Times,serif" font-size="14.00">PointsTo_6</text>
</g>
<!-- PointsTo_4&#45;&gt;PointsTo_6 -->
<g id="edge1" class="edge">
<title>PointsTo_4&#45;&gt;PointsTo_6</title>
<path fill="none" stroke="black" d="M718.74,-648.03C713.02,-632.18 706.59,-614.39 700.64,-597.92"/>
<polygon fill="black" stroke="black" points="703.89,-596.61 697.2,-588.39 697.31,-598.99 703.89,-596.61"/>
<text text-anchor="middle" x="723.5" y="-616.26" font-family="Times,serif" font-size="14.00">Alias</text>
</g>
<!-- PointsTo_3 -->
<g id="node3" class="node">
<title>PointsTo_3</title>
<ellipse fill="none" stroke="black" cx="930" cy="-225.04" rx="51.19" ry="51.19"/>
<text text-anchor="middle" x="930" y="-221.34" font-family="Times,serif" font-size="14.00">PointsTo_3</text>
</g>
<!-- PointsTo_7 -->
<g id="node17" class="node">
<title>PointsTo_7</title>
<ellipse fill="none" stroke="black" cx="854" cy="-67.35" rx="51.19" ry="51.19"/>
<text text-anchor="middle" x="854" y="-63.65" font-family="Times,serif" font-size="14.00">PointsTo_7</text>
</g>
<!-- PointsTo_3&#45;&gt;PointsTo_7 -->
<g id="edge2" class="edge">
<title>PointsTo_3&#45;&gt;PointsTo_7</title>
<path fill="none" stroke="black" d="M907.81,-178.59C899.34,-161.24 889.6,-141.27 880.75,-123.14"/>
<polygon fill="black" stroke="black" points="883.75,-121.3 876.21,-113.85 877.46,-124.37 883.75,-121.3"/>
<text text-anchor="middle" x="908.5" y="-140.49" font-family="Times,serif" font-size="14.00">Alias</text>
</g>
<!-- PointsTo_2 -->
<g id="node4" class="node">
<title>PointsTo_2</title>
<ellipse fill="none" stroke="black" cx="734" cy="-225.04" rx="51.19" ry="51.19"/>
<text text-anchor="middle" x="734" y="-221.34" font-family="Times,serif" font-size="14.00">PointsTo_2</text>
</g>
<!-- PointsTo_8 -->
<g id="node16" class="node">
<title>PointsTo_8</title>
<ellipse fill="none" stroke="black" cx="639" cy="-67.35" rx="51.19" ry="51.19"/>
<text text-anchor="middle" x="639" y="-63.65" font-family="Times,serif" font-size="14.00">PointsTo_8</text>
</g>
<!-- PointsTo_2&#45;&gt;PointsTo_8 -->
<g id="edge3" class="edge">
<title>PointsTo_2&#45;&gt;PointsTo_8</title>
<path fill="none" stroke="black" d="M707.54,-180.67C696.06,-161.86 682.53,-139.68 670.53,-120.02"/>
<polygon fill="black" stroke="black" points="673.52,-118.19 665.32,-111.48 667.54,-121.84 673.52,-118.19"/>
<text text-anchor="middle" x="703.5" y="-140.49" font-family="Times,serif" font-size="14.00">Alias</text>
</g>
<!-- PointsTo_1 -->
<g id="node5" class="node">
<title>PointsTo_1</title>
<ellipse fill="none" stroke="black" cx="538" cy="-225.04" rx="51.19" ry="51.19"/>
<text text-anchor="middle" x="538" y="-221.34" font-family="Times,serif" font-size="14.00">PointsTo_1</text>
</g>
<!-- PointsTo_9 -->
<g id="node15" class="node">
<title>PointsTo_9</title>
<ellipse fill="none" stroke="black" cx="497" cy="-67.35" rx="51.19" ry="51.19"/>
<text text-anchor="middle" x="497" y="-63.65" font-family="Times,serif" font-size="14.00">PointsTo_9</text>
</g>
<!-- PointsTo_1&#45;&gt;PointsTo_9 -->
<g id="edge4" class="edge">
<title>PointsTo_1&#45;&gt;PointsTo_9</title>
<path fill="none" stroke="black" d="M525.14,-175.2C521.11,-159.91 516.63,-142.89 512.45,-127"/>
<polygon fill="black" stroke="black" points="515.82,-126.05 509.88,-117.27 509.05,-127.84 515.82,-126.05"/>
<text text-anchor="middle" x="532.5" y="-140.49" font-family="Times,serif" font-size="14.00">Alias</text>
</g>
<!-- FlowsTo_9 -->
<g id="node6" class="node">
<title>FlowsTo_9</title>
<ellipse fill="none" stroke="black" cx="1733" cy="-696.81" rx="50.89" ry="50.89"/>
<text text-anchor="middle" x="1733" y="-693.11" font-family="Times,serif" font-size="14.00">FlowsTo_9</text>
</g>
<!-- FlowsTo_1 -->
<g id="node12" class="node">
<title>FlowsTo_1</title>
<ellipse fill="none" stroke="red" cx="1529" cy="-539.77" rx="50.88" ry="50.88"/>
<ellipse fill="none" stroke="red" cx="1529" cy="-539.77" rx="54.89" ry="54.89"/>
<text text-anchor="middle" x="1529" y="-536.07" font-family="Times,serif" font-size="14.00">FlowsTo_1</text>
</g>
<!-- FlowsTo_9&#45;&gt;FlowsTo_1 -->
<g id="edge5" class="edge">
<title>FlowsTo_9&#45;&gt;FlowsTo_1</title>
<path fill="none" stroke="black" d="M1692.7,-665.18C1660.55,-640.75 1615.32,-606.37 1580.54,-579.94"/>
<polygon fill="black" stroke="black" points="1582.47,-577.01 1572.39,-573.75 1578.24,-582.59 1582.47,-577.01"/>
<text text-anchor="middle" x="1661.5" y="-616.26" font-family="Times,serif" font-size="14.00">load_0_r</text>
</g>
<!-- FlowsTo_8 -->
<g id="node7" class="node">
<title>FlowsTo_8</title>
<ellipse fill="none" stroke="black" cx="1638" cy="-225.04" rx="50.89" ry="50.89"/>
<text text-anchor="middle" x="1638" y="-221.34" font-family="Times,serif" font-size="14.00">FlowsTo_8</text>
</g>
<!-- FlowsTo_8&#45;&gt;FlowsTo_1 -->
<g id="edge6" class="edge">
<title>FlowsTo_8&#45;&gt;FlowsTo_1</title>
<path fill="none" stroke="black" d="M1653.89,-273.56C1665.69,-317.13 1676.25,-382.52 1654,-434.07 1640.49,-465.38 1612.01,-490.41 1585.65,-508.13"/>
<polygon fill="black" stroke="black" points="1583.67,-505.25 1577.19,-513.63 1587.48,-511.12 1583.67,-505.25"/>
<text text-anchor="middle" x="1691.5" y="-379.03" font-family="Times,serif" font-size="14.00">load_1_r</text>
</g>
<!-- S_1 -->
<g id="node8" class="node">
<title>S_1</title>
<ellipse fill="none" stroke="black" cx="149" cy="-539.77" rx="24.9" ry="24.9"/>
<text text-anchor="middle" x="149" y="-536.07" font-family="Times,serif" font-size="14.00">S_1</text>
</g>
<!-- S_0 -->
<g id="node19" class="node">
<title>S_0</title>
<ellipse fill="none" stroke="green" cx="130" cy="-696.81" rx="24.9" ry="24.9"/>
<text text-anchor="middle" x="130" y="-693.11" font-family="Times,serif" font-size="14.00">S_0</text>
</g>
<!-- S_1&#45;&gt;S_0 -->
<g id="edge7" class="edge">
<title>S_1&#45;&gt;S_0</title>
<path fill="none" stroke="black" d="M130.05,-555.83C115.16,-568.97 95.56,-589.49 87,-612.46 79.24,-633.31 92.01,-655.65 105.61,-671.95"/>
<polygon fill="black" stroke="black" points="103,-674.28 112.27,-679.43 108.23,-669.63 103,-674.28"/>
<text text-anchor="middle" x="107" y="-616.26" font-family="Times,serif" font-size="14.00">store_0</text>
</g>
<!-- S_1&#45;&gt;S_0 -->
<g id="edge8" class="edge">
<title>S_1&#45;&gt;S_0</title>
<path fill="none" stroke="black" d="M146.09,-564.54C142.9,-590.58 137.75,-632.57 134.14,-662.03"/>
<polygon fill="black" stroke="black" points="130.63,-661.91 132.89,-672.26 137.58,-662.76 130.63,-661.91"/>
<text text-anchor="middle" x="160" y="-616.26" font-family="Times,serif" font-size="14.00">store_1</text>
</g>
<!-- S_1&#45;&gt;S_0 -->
<g id="edge9" class="edge">
<title>S_1&#45;&gt;S_0</title>
<path fill="none" stroke="black" d="M164.65,-559.17C177.49,-576.58 192.31,-603.54 184,-627.46 178.18,-644.22 166.35,-659.97 155.25,-672.12"/>
<polygon fill="black" stroke="black" points="152.52,-669.91 148.13,-679.56 157.57,-674.75 152.52,-669.91"/>
<text text-anchor="middle" x="206" y="-616.26" font-family="Times,serif" font-size="14.00">store_2</text>
</g>
<!-- S_1&#45;&gt;S_0 -->
<g id="edge10" class="edge">
<title>S_1&#45;&gt;S_0</title>
<path fill="none" stroke="black" d="M171.25,-550.73C200.75,-565.46 247.21,-594.86 230,-627.46 215.85,-654.27 185.93,-672.56 162.49,-683.42"/>
<polygon fill="black" stroke="black" points="160.97,-680.26 153.23,-687.49 163.79,-686.67 160.97,-680.26"/>
<text text-anchor="middle" x="253" y="-616.26" font-family="Times,serif" font-size="14.00">store_3</text>
</g>
<!-- FlowsTo_5 -->
<g id="node9" class="node">
<title>FlowsTo_5</title>
<ellipse fill="none" stroke="black" cx="1270" cy="-382.73" rx="50.89" ry="50.89"/>
<text text-anchor="middle" x="1270" y="-379.03" font-family="Times,serif" font-size="14.00">FlowsTo_5</text>
</g>
<!-- FlowsTo_6 -->
<g id="node14" class="node">
<title>FlowsTo_6</title>
<ellipse fill="none" stroke="black" cx="1211" cy="-225.04" rx="50.89" ry="50.89"/>
<text text-anchor="middle" x="1211" y="-221.34" font-family="Times,serif" font-size="14.00">FlowsTo_6</text>
</g>
<!-- FlowsTo_5&#45;&gt;FlowsTo_6 -->
<g id="edge11" class="edge">
<title>FlowsTo_5&#45;&gt;FlowsTo_6</title>
<path fill="none" stroke="black" d="M1252.3,-335.01C1246,-318.39 1238.84,-299.49 1232.27,-282.16"/>
<polygon fill="black" stroke="black" points="1235.51,-280.83 1228.69,-272.72 1228.96,-283.31 1235.51,-280.83"/>
<text text-anchor="middle" x="1258.5" y="-302.18" font-family="Times,serif" font-size="14.00">Alias</text>
</g>
<!-- FlowsTo_4 -->
<g id="node10" class="node">
<title>FlowsTo_4</title>
<ellipse fill="none" stroke="black" cx="1475" cy="-382.73" rx="50.89" ry="50.89"/>
<text text-anchor="middle" x="1475" y="-379.03" font-family="Times,serif" font-size="14.00">FlowsTo_4</text>
</g>
<!-- FlowsTo_7 -->
<g id="node13" class="node">
<title>FlowsTo_7</title>
<ellipse fill="none" stroke="black" cx="1392" cy="-225.04" rx="50.89" ry="50.89"/>
<text text-anchor="middle" x="1392" y="-221.34" font-family="Times,serif" font-size="14.00">FlowsTo_7</text>
</g>
<!-- FlowsTo_4&#45;&gt;FlowsTo_7 -->
<g id="edge12" class="edge">
<title>FlowsTo_4&#45;&gt;FlowsTo_7</title>
<path fill="none" stroke="black" d="M1451.44,-337.53C1441.71,-319.29 1430.37,-298 1420.2,-278.94"/>
<polygon fill="black" stroke="black" points="1423.27,-277.25 1415.48,-270.08 1417.09,-280.55 1423.27,-277.25"/>
<text text-anchor="middle" x="1452.5" y="-302.18" font-family="Times,serif" font-size="14.00">Alias</text>
</g>
<!-- PointsTo_5 -->
<g id="node11" class="node">
<title>PointsTo_5</title>
<ellipse fill="none" stroke="red" cx="1055" cy="-225.04" rx="51.2" ry="51.2"/>
<ellipse fill="none" stroke="red" cx="1055" cy="-225.04" rx="55.19" ry="55.19"/>
<text text-anchor="middle" x="1055" y="-221.34" font-family="Times,serif" font-size="14.00">PointsTo_5</text>
</g>
<!-- FlowsTo_1&#45;&gt;FlowsTo_5 -->
<g id="edge17" class="edge">
<title>FlowsTo_1&#45;&gt;FlowsTo_5</title>
<path fill="none" stroke="black" d="M1474.42,-535.26C1423.13,-529.15 1347.36,-512.48 1300,-467.07 1292.76,-460.13 1287.26,-451.31 1283.08,-442.02"/>
<polygon fill="black" stroke="black" points="1286.29,-440.62 1279.33,-432.63 1279.79,-443.22 1286.29,-440.62"/>
<text text-anchor="middle" x="1326" y="-455.87" font-family="Times,serif" font-size="14.00">store_3_r</text>
</g>
<!-- FlowsTo_1&#45;&gt;FlowsTo_4 -->
<g id="edge16" class="edge">
<title>FlowsTo_1&#45;&gt;FlowsTo_4</title>
<path fill="none" stroke="black" d="M1506.74,-489.76C1503.63,-482.23 1500.61,-474.49 1498,-467.07 1495.17,-459.03 1492.46,-450.46 1489.96,-441.99"/>
<polygon fill="black" stroke="black" points="1493.25,-440.77 1487.13,-432.12 1486.53,-442.7 1493.25,-440.77"/>
<text text-anchor="middle" x="1524" y="-455.87" font-family="Times,serif" font-size="14.00">store_2_r</text>
</g>
<!-- FlowsTo_1&#45;&gt;FlowsTo_1 -->
<g id="edge13" class="edge">
<title>FlowsTo_1&#45;&gt;FlowsTo_1</title>
<path fill="none" stroke="black" d="M1581.93,-554.33C1593.39,-552.9 1601.7,-548.05 1601.7,-539.77 1601.7,-534.2 1597.94,-530.19 1592.01,-527.72"/>
<polygon fill="black" stroke="black" points="1592.48,-524.23 1581.93,-525.21 1590.79,-531.02 1592.48,-524.23"/>
<text text-anchor="middle" x="1624.7" y="-536.07" font-family="Times,serif" font-size="14.00">assign_r</text>
</g>
<!-- FlowsTo_3 -->
<g id="node18" class="node">
<title>FlowsTo_3</title>
<ellipse fill="none" stroke="black" cx="1594" cy="-382.73" rx="50.89" ry="50.89"/>
<text text-anchor="middle" x="1594" y="-379.03" font-family="Times,serif" font-size="14.00">FlowsTo_3</text>
</g>
<!-- FlowsTo_1&#45;&gt;FlowsTo_3 -->
<g id="edge15" class="edge">
<title>FlowsTo_1&#45;&gt;FlowsTo_3</title>
<path fill="none" stroke="black" d="M1549.92,-488.86C1556.56,-473.02 1563.94,-455.42 1570.74,-439.22"/>
<polygon fill="black" stroke="black" points="1574.02,-440.44 1574.66,-429.86 1567.56,-437.73 1574.02,-440.44"/>
<text text-anchor="middle" x="1589" y="-455.87" font-family="Times,serif" font-size="14.00">store_1_r</text>
</g>
<!-- FlowsTo_2 -->
<g id="node21" class="node">
<title>FlowsTo_2</title>
<ellipse fill="none" stroke="black" cx="1799" cy="-382.73" rx="50.89" ry="50.89"/>
<text text-anchor="middle" x="1799" y="-379.03" font-family="Times,serif" font-size="14.00">FlowsTo_2</text>
</g>
<!-- FlowsTo_1&#45;&gt;FlowsTo_2 -->
<g id="edge14" class="edge">
<title>FlowsTo_1&#45;&gt;FlowsTo_2</title>
<path fill="none" stroke="black" d="M1579.6,-518.32C1610.92,-505.02 1651.58,-486.57 1686,-467.07 1708.53,-454.31 1713.09,-449.34 1734,-434.07 1739.58,-430 1745.37,-425.67 1751.09,-421.32"/>
<polygon fill="black" stroke="black" points="1753.58,-423.83 1759.4,-414.97 1749.33,-418.27 1753.58,-423.83"/>
<text text-anchor="middle" x="1735" y="-455.87" font-family="Times,serif" font-size="14.00">store_0_r</text>
</g>
<!-- FlowsTo_7&#45;&gt;FlowsTo_1 -->
<g id="edge18" class="edge">
<title>FlowsTo_7&#45;&gt;FlowsTo_1</title>
<path fill="none" stroke="black" d="M1371.52,-271.55C1354.9,-315.76 1338.35,-383.44 1366,-434.07 1387.63,-473.66 1431.34,-500.51 1468.05,-517.1"/>
<polygon fill="black" stroke="black" points="1466.66,-520.3 1477.22,-521.09 1469.45,-513.89 1466.66,-520.3"/>
<text text-anchor="middle" x="1390.5" y="-379.03" font-family="Times,serif" font-size="14.00">load_2_r</text>
</g>
<!-- FlowsTo_6&#45;&gt;FlowsTo_1 -->
<g id="edge19" class="edge">
<title>FlowsTo_6&#45;&gt;FlowsTo_1</title>
<path fill="none" stroke="black" d="M1182.78,-267.26C1155.7,-312.44 1123.95,-385.01 1161,-434.07 1197.55,-482.47 1369.18,-515.09 1464.6,-529.82"/>
<polygon fill="black" stroke="black" points="1464.3,-533.31 1474.72,-531.36 1465.36,-526.39 1464.3,-533.31"/>
<text text-anchor="middle" x="1185.5" y="-379.03" font-family="Times,serif" font-size="14.00">load_3_r</text>
</g>
<!-- PointsTo_0 -->
<g id="node25" class="node">
<title>PointsTo_0</title>
<ellipse fill="none" stroke="green" cx="734" cy="-382.73" rx="51.19" ry="51.19"/>
<text text-anchor="middle" x="734" y="-379.03" font-family="Times,serif" font-size="14.00">PointsTo_0</text>
</g>
<!-- PointsTo_9&#45;&gt;PointsTo_0 -->
<g id="edge20" class="edge">
<title>PointsTo_9&#45;&gt;PointsTo_0</title>
<path fill="none" stroke="black" d="M466.84,-108.99C437.09,-154.5 401.01,-228.62 438,-280.38 491.2,-354.83 602.57,-375.18 672.5,-380.4"/>
<polygon fill="black" stroke="black" points="672.3,-383.89 682.51,-381.06 672.76,-376.91 672.3,-383.89"/>
<text text-anchor="middle" x="458" y="-221.34" font-family="Times,serif" font-size="14.00">store_0</text>
</g>
<!-- PointsTo_8&#45;&gt;PointsTo_0 -->
<g id="edge21" class="edge">
<title>PointsTo_8&#45;&gt;PointsTo_0</title>
<path fill="none" stroke="black" d="M627,-117.52C618.66,-161.85 612.47,-227.92 634,-280.38 644.48,-305.92 664.84,-328.46 684.48,-345.76"/>
<polygon fill="black" stroke="black" points="682.35,-348.55 692.23,-352.37 686.89,-343.22 682.35,-348.55"/>
<text text-anchor="middle" x="654" y="-221.34" font-family="Times,serif" font-size="14.00">store_1</text>
</g>
<!-- PointsTo_7&#45;&gt;PointsTo_0 -->
<g id="edge22" class="edge">
<title>PointsTo_7&#45;&gt;PointsTo_0</title>
<path fill="none" stroke="black" d="M841.66,-117.21C828.03,-170.17 806.38,-251.04 794,-280.38 787.42,-295.98 783.58,-298.79 775,-313.38 771.87,-318.71 768.59,-324.25 765.3,-329.78"/>
<polygon fill="black" stroke="black" points="762.26,-328.03 760.14,-338.41 768.27,-331.62 762.26,-328.03"/>
<text text-anchor="middle" x="848" y="-221.34" font-family="Times,serif" font-size="14.00">store_2</text>
</g>
<!-- FlowsTo_3&#45;&gt;FlowsTo_8 -->
<g id="edge23" class="edge">
<title>FlowsTo_3&#45;&gt;FlowsTo_8</title>
<path fill="none" stroke="black" d="M1607.56,-333.74C1611.99,-318.06 1616.97,-300.47 1621.59,-284.12"/>
<polygon fill="black" stroke="black" points="1625.06,-284.7 1624.41,-274.13 1618.32,-282.8 1625.06,-284.7"/>
<text text-anchor="middle" x="1631.5" y="-302.18" font-family="Times,serif" font-size="14.00">Alias</text>
</g>
<!-- S_0&#45;&gt;S_2 -->
<g id="edge29" class="edge">
<title>S_0&#45;&gt;S_2</title>
<path fill="none" stroke="black" d="M153.49,-689.1C184.4,-679.39 239.22,-659.06 277,-627.46 294.43,-612.89 309.24,-592.2 319.9,-574.69"/>
<polygon fill="black" stroke="black" points="323.03,-576.27 325.09,-565.88 317,-572.72 323.03,-576.27"/>
<text text-anchor="middle" x="315.5" y="-616.26" font-family="Times,serif" font-size="14.00">PointsTo</text>
</g>
<!-- S_0&#45;&gt;S_1 -->
<g id="edge28" class="edge">
<title>S_0&#45;&gt;S_1</title>
<path fill="none" stroke="black" d="M107.51,-685.89C78.91,-671.73 35.03,-643.93 51,-612.46 64.75,-585.37 94.08,-566.05 117.1,-554.35"/>
<polygon fill="black" stroke="black" points="118.71,-557.46 126.19,-549.95 115.66,-551.16 118.71,-557.46"/>
<text text-anchor="middle" x="65.5" y="-616.26" font-family="Times,serif" font-size="14.00">Alias</text>
</g>
<!-- S_0&#45;&gt;S_0 -->
<g id="edge24" class="edge">
<title>S_0&#45;&gt;S_0</title>
<path fill="none" stroke="black" d="M154.57,-700.35C164.43,-700.55 172.7,-699.37 172.7,-696.81 172.7,-695.21 169.47,-694.15 164.64,-693.63"/>
<polygon fill="black" stroke="black" points="164.69,-690.13 154.57,-693.27 164.44,-697.12 164.69,-690.13"/>
<text text-anchor="middle" x="192.7" y="-693.11" font-family="Times,serif" font-size="14.00">store_0</text>
</g>
<!-- S_0&#45;&gt;S_0 -->
<g id="edge25" class="edge">
<title>S_0&#45;&gt;S_0</title>
<path fill="none" stroke="black" d="M154.35,-702.52C180.08,-705.58 212.7,-703.67 212.7,-696.81 212.7,-690.83 187.94,-688.61 164.56,-690.16"/>
<polygon fill="black" stroke="black" points="163.99,-686.7 154.35,-691.1 164.62,-693.67 163.99,-686.7"/>
<text text-anchor="middle" x="232.7" y="-693.11" font-family="Times,serif" font-size="14.00">store_1</text>
</g>
<!-- S_0&#45;&gt;S_0 -->
<g id="edge26" class="edge">
<title>S_0&#45;&gt;S_0</title>
<path fill="none" stroke="black" d="M153.84,-703.83C192.04,-710.45 252.7,-708.11 252.7,-696.81 252.7,-686.48 202.02,-683.64 164.14,-688.28"/>
<polygon fill="black" stroke="black" points="163.23,-684.88 153.84,-689.79 164.25,-691.8 163.23,-684.88"/>
<text text-anchor="middle" x="272.7" y="-693.11" font-family="Times,serif" font-size="14.00">store_2</text>
</g>
<!-- S_0&#45;&gt;S_0 -->
<g id="edge27" class="edge">
<title>S_0&#45;&gt;S_0</title>
<path fill="none" stroke="black" d="M153.47,-704.78C202.38,-715.27 292.7,-712.62 292.7,-696.81 292.7,-682.02 213.65,-678.74 163.41,-686.98"/>
<polygon fill="black" stroke="black" points="162.66,-683.56 153.47,-688.84 163.95,-690.44 162.66,-683.56"/>
<text text-anchor="middle" x="312.7" y="-693.11" font-family="Times,serif" font-size="14.00">store_3</text>
</g>
<!-- PointsTo_6&#45;&gt;PointsTo_0 -->
<g id="edge30" class="edge">
<title>PointsTo_6&#45;&gt;PointsTo_0</title>
<path fill="none" stroke="black" d="M696.64,-490.99C702.16,-475.14 708.36,-457.35 714.1,-440.87"/>
<polygon fill="black" stroke="black" points="717.43,-441.95 717.41,-431.35 710.82,-439.64 717.43,-441.95"/>
<text text-anchor="middle" x="728" y="-455.87" font-family="Times,serif" font-size="14.00">store_3</text>
</g>
<!-- FlowsTo_2&#45;&gt;FlowsTo_9 -->
<g id="edge31" class="edge">
<title>FlowsTo_2&#45;&gt;FlowsTo_9</title>
<path fill="none" stroke="black" d="M1788.71,-432.4C1777.01,-487.71 1757.93,-577.95 1745.42,-637.1"/>
<polygon fill="black" stroke="black" points="1741.96,-636.54 1743.31,-647.05 1748.81,-637.99 1741.96,-636.54"/>
<text text-anchor="middle" x="1790.5" y="-536.07" font-family="Times,serif" font-size="14.00">Alias</text>
</g>
<!-- Alias_2 -->
<g id="node22" class="node">
<title>Alias_2</title>
<ellipse fill="none" stroke="red" cx="1916" cy="-382.73" rx="38.21" ry="38.21"/>
<ellipse fill="none" stroke="red" cx="1916" cy="-382.73" rx="42.19" ry="42.19"/>
<text text-anchor="middle" x="1916" y="-379.03" font-family="Times,serif" font-size="14.00">Alias_2</text>
</g>
<!-- FlowsTo_0 -->
<g id="node23" class="node">
<title>FlowsTo_0</title>
<ellipse fill="none" stroke="green" cx="1529" cy="-696.81" rx="50.89" ry="50.89"/>
<text text-anchor="middle" x="1529" y="-693.11" font-family="Times,serif" font-size="14.00">FlowsTo_0</text>
</g>
<!-- FlowsTo_0&#45;&gt;FlowsTo_1 -->
<g id="edge32" class="edge">
<title>FlowsTo_0&#45;&gt;FlowsTo_1</title>
<path fill="none" stroke="black" d="M1529,-645.9C1529,-632.85 1529,-618.6 1529,-604.92"/>
<polygon fill="black" stroke="black" points="1532.5,-604.6 1529,-594.6 1525.5,-604.6 1532.5,-604.6"/>
<text text-anchor="middle" x="1548" y="-616.26" font-family="Times,serif" font-size="14.00">alloc_r</text>
</g>
<!-- Alias_1 -->
<g id="node24" class="node">
<title>Alias_1</title>
<ellipse fill="none" stroke="black" cx="1912" cy="-539.77" rx="38.19" ry="38.19"/>
<text text-anchor="middle" x="1912" y="-536.07" font-family="Times,serif" font-size="14.00">Alias_1</text>
</g>
<!-- Alias_1&#45;&gt;Alias_2 -->
<g id="edge33" class="edge">
<title>Alias_1&#45;&gt;Alias_2</title>
<path fill="none" stroke="black" d="M1912.97,-501.24C1913.48,-481.52 1914.11,-457.05 1914.66,-435.56"/>
<polygon fill="black" stroke="black" points="1918.17,-435.36 1914.93,-425.28 1911.17,-435.18 1918.17,-435.36"/>
<text text-anchor="middle" x="1938.5" y="-455.87" font-family="Times,serif" font-size="14.00">FlowsTo</text>
</g>
<!-- PointsTo_0&#45;&gt;PointsTo_4 -->
<g id="edge38" class="edge">
<title>PointsTo_0&#45;&gt;PointsTo_4</title>
<path fill="none" stroke="black" d="M748.43,-432.33C749.9,-438.91 751.16,-445.62 752,-452.07 760.08,-514.5 753.41,-586.48 746.38,-635.95"/>
<polygon fill="black" stroke="black" points="742.87,-635.75 744.88,-646.15 749.8,-636.76 742.87,-635.75"/>
<text text-anchor="middle" x="773.5" y="-536.07" font-family="Times,serif" font-size="14.00">load_3</text>
</g>
<!-- PointsTo_0&#45;&gt;PointsTo_3 -->
<g id="edge37" class="edge">
<title>PointsTo_0&#45;&gt;PointsTo_3</title>
<path fill="none" stroke="black" d="M775.16,-351.96C791.19,-340.16 809.61,-326.34 826,-313.38 845.09,-298.3 865.69,-281.18 883.48,-266.12"/>
<polygon fill="black" stroke="black" points="886.08,-268.5 891.44,-259.36 881.55,-263.17 886.08,-268.5"/>
<text text-anchor="middle" x="861.5" y="-302.18" font-family="Times,serif" font-size="14.00">load_2</text>
</g>
<!-- PointsTo_0&#45;&gt;PointsTo_2 -->
<g id="edge36" class="edge">
<title>PointsTo_0&#45;&gt;PointsTo_2</title>
<path fill="none" stroke="black" d="M734,-331.18C734,-316.97 734,-301.36 734,-286.63"/>
<polygon fill="black" stroke="black" points="737.5,-286.6 734,-276.6 730.5,-286.6 737.5,-286.6"/>
<text text-anchor="middle" x="752.5" y="-302.18" font-family="Times,serif" font-size="14.00">load_1</text>
</g>
<!-- PointsTo_0&#45;&gt;PointsTo_1 -->
<g id="edge35" class="edge">
<title>PointsTo_0&#45;&gt;PointsTo_1</title>
<path fill="none" stroke="black" d="M684.62,-368.64C652.51,-358.08 611.47,-340.44 583,-313.38 573.83,-304.66 566.2,-293.67 559.98,-282.44"/>
<polygon fill="black" stroke="black" points="563.01,-280.69 555.29,-273.43 556.8,-283.92 563.01,-280.69"/>
<text text-anchor="middle" x="601.5" y="-302.18" font-family="Times,serif" font-size="14.00">load_0</text>
</g>
<!-- PointsTo_0&#45;&gt;PointsTo_5 -->
<g id="edge39" class="edge">
<title>PointsTo_0&#45;&gt;PointsTo_5</title>
<path fill="none" stroke="black" d="M783.32,-367.4C836.51,-350.78 922.63,-320.46 990,-280.38 995.48,-277.12 1000.96,-273.41 1006.29,-269.5"/>
<polygon fill="black" stroke="black" points="1008.7,-272.06 1014.52,-263.21 1004.45,-266.5 1008.7,-272.06"/>
<text text-anchor="middle" x="970.5" y="-302.18" font-family="Times,serif" font-size="14.00">alloc</text>
</g>
<!-- PointsTo_0&#45;&gt;PointsTo_0 -->
<g id="edge34" class="edge">
<title>PointsTo_0&#45;&gt;PointsTo_0</title>
<path fill="none" stroke="black" d="M783.55,-396.66C794.96,-395.46 803.35,-390.82 803.35,-382.73 803.35,-377.29 799.56,-373.41 793.62,-371.09"/>
<polygon fill="black" stroke="black" points="794.08,-367.6 783.55,-368.79 792.53,-374.43 794.08,-367.6"/>
<text text-anchor="middle" x="820.35" y="-379.03" font-family="Times,serif" font-size="14.00">assign</text>
</g>
<!-- Alias_0 -->
<g id="node26" class="node">
<title>Alias_0</title>
<ellipse fill="none" stroke="green" cx="1912" cy="-696.81" rx="38.19" ry="38.19"/>
<text text-anchor="middle" x="1912" y="-693.11" font-family="Times,serif" font-size="14.00">Alias_0</text>
</g>
<!-- Alias_0&#45;&gt;Alias_1 -->
<g id="edge40" class="edge">
<title>Alias_0&#45;&gt;Alias_1</title>
<path fill="none" stroke="black" d="M1912,-658.28C1912,-637.22 1912,-610.73 1912,-588.24"/>
<polygon fill="black" stroke="black" points="1915.5,-588.22 1912,-578.22 1908.5,-588.22 1915.5,-588.22"/>
<text text-anchor="middle" x="1936.5" y="-616.26" font-family="Times,serif" font-size="14.00">PointsTo</text>
</g>
</g>
</svg>
