<?xml version="1.0" encoding="UTF-8" standalone="no"?>
<!DOCTYPE svg PUBLIC "-//W3C//DTD SVG 1.1//EN"
 "http://www.w3.org/Graphics/SVG/1.1/DTD/svg11.dtd">
<!-- Generated by graphviz version 2.43.0 (0)
 -->
<!-- Title: %3 Pages: 1 -->
<svg width="123pt" height="378pt"
 viewBox="0.00 0.00 123.15 378.00" xmlns="http://www.w3.org/2000/svg" xmlns:xlink="http://www.w3.org/1999/xlink">
<g id="graph0" class="graph" transform="scale(1 1) rotate(0) translate(4 374)">
<title>%3</title>
<polygon fill="white" stroke="transparent" points="-4,4 -4,-374 119.15,-374 119.15,4 -4,4"/>
<!-- start -->
<g id="node1" class="node">
<title>start</title>
<ellipse fill="none" stroke="black" cx="82" cy="-352" rx="33.29" ry="18"/>
<text text-anchor="middle" x="82" y="-348.3" font-family="Times,serif" font-size="14.00">start</text>
</g>
<!-- 0 -->
<g id="node2" class="node">
<title>0</title>
<ellipse fill="none" stroke="black" cx="27" cy="-279" rx="27" ry="18"/>
<text text-anchor="middle" x="27" y="-275.3" font-family="Times,serif" font-size="14.00">0</text>
</g>
<!-- start&#45;&gt;0 -->
<g id="edge1" class="edge">
<title>start&#45;&gt;0</title>
<path fill="none" stroke="black" d="M69.79,-335.24C62.5,-325.83 53.11,-313.7 44.98,-303.21"/>
<polygon fill="black" stroke="black" points="47.69,-300.99 38.79,-295.23 42.15,-305.27 47.69,-300.99"/>
</g>
<!-- 1 -->
<g id="node3" class="node">
<title>1</title>
<ellipse fill="none" stroke="black" cx="68" cy="-192" rx="27" ry="18"/>
<text text-anchor="middle" x="68" y="-188.3" font-family="Times,serif" font-size="14.00">1</text>
</g>
<!-- start&#45;&gt;1 -->
<g id="edge2" class="edge">
<title>start&#45;&gt;1</title>
<path fill="none" stroke="black" d="M80.48,-333.79C78.06,-306.48 73.32,-252.99 70.43,-220.38"/>
<polygon fill="black" stroke="black" points="73.89,-219.84 69.52,-210.19 66.92,-220.46 73.89,-219.84"/>
</g>
<!-- 2 -->
<g id="node4" class="node">
<title>2</title>
<ellipse fill="none" stroke="black" cx="68" cy="-105" rx="27" ry="18"/>
<text text-anchor="middle" x="68" y="-101.3" font-family="Times,serif" font-size="14.00">2</text>
</g>
<!-- start&#45;&gt;2 -->
<g id="edge3" class="edge">
<title>start&#45;&gt;2</title>
<path fill="none" stroke="black" d="M88.12,-334.16C98.79,-302.41 118.33,-231.7 104,-174 100.14,-158.46 92,-142.56 84.43,-130.04"/>
<polygon fill="black" stroke="black" points="87.39,-128.17 79.1,-121.58 81.47,-131.91 87.39,-128.17"/>
</g>
<!-- 0&#45;&gt;1 -->
<g id="edge4" class="edge">
<title>0&#45;&gt;1</title>
<path fill="none" stroke="black" d="M34.91,-261.61C40.8,-249.38 48.97,-232.44 55.72,-218.46"/>
<polygon fill="black" stroke="black" points="58.93,-219.87 60.12,-209.34 52.62,-216.82 58.93,-219.87"/>
<text text-anchor="middle" x="54.5" y="-231.8" font-family="Times,serif" font-size="14.00">a</text>
</g>
<!-- 1&#45;&gt;2 -->
<g id="edge5" class="edge">
<title>1&#45;&gt;2</title>
<path fill="none" stroke="black" d="M68,-173.8C68,-162.16 68,-146.55 68,-133.24"/>
<polygon fill="black" stroke="black" points="71.5,-133.18 68,-123.18 64.5,-133.18 71.5,-133.18"/>
<text text-anchor="middle" x="72.5" y="-144.8" font-family="Times,serif" font-size="14.00">a</text>
</g>
<!-- 2&#45;&gt;0 -->
<g id="edge8" class="edge">
<title>2&#45;&gt;0</title>
<path fill="none" stroke="black" d="M54.39,-120.86C43.52,-133.81 29.12,-153.67 23,-174 15.38,-199.31 17.78,-229.65 21.23,-251.01"/>
<polygon fill="black" stroke="black" points="17.81,-251.78 23.03,-261 24.7,-250.54 17.81,-251.78"/>
<text text-anchor="middle" x="27.5" y="-188.3" font-family="Times,serif" font-size="14.00">a</text>
</g>
<!-- 3 -->
<g id="node5" class="node">
<title>3</title>
<ellipse fill="none" stroke="black" cx="68" cy="-18" rx="27" ry="18"/>
<text text-anchor="middle" x="68" y="-14.3" font-family="Times,serif" font-size="14.00">3</text>
</g>
<!-- 2&#45;&gt;3 -->
<g id="edge6" class="edge">
<title>2&#45;&gt;3</title>
<path fill="none" stroke="black" d="M58.95,-87.97C54.54,-78.25 50.63,-65.54 53,-54 53.63,-50.93 54.54,-47.79 55.61,-44.72"/>
<polygon fill="black" stroke="black" points="58.92,-45.87 59.4,-35.29 52.42,-43.26 58.92,-45.87"/>
<text text-anchor="middle" x="58" y="-57.8" font-family="Times,serif" font-size="14.00">b</text>
</g>
<!-- 3&#45;&gt;2 -->
<g id="edge7" class="edge">
<title>3&#45;&gt;2</title>
<path fill="none" stroke="black" d="M68,-36.18C68,-47.81 68,-63.42 68,-76.73"/>
<polygon fill="black" stroke="black" points="64.5,-76.8 68,-86.8 71.5,-76.8 64.5,-76.8"/>
<text text-anchor="middle" x="73" y="-57.8" font-family="Times,serif" font-size="14.00">b</text>
</g>
</g>
</svg>
