<?xml version="1.0" encoding="UTF-8" standalone="no"?>
<!DOCTYPE svg PUBLIC "-//W3C//DTD SVG 1.1//EN"
 "http://www.w3.org/Graphics/SVG/1.1/DTD/svg11.dtd">
<!-- Generated by graphviz version 2.43.0 (0)
 -->
<!-- Title: g Pages: 1 -->
<svg width="158pt" height="515pt"
 viewBox="0.00 0.00 158.00 515.17" xmlns="http://www.w3.org/2000/svg" xmlns:xlink="http://www.w3.org/1999/xlink">
<g id="graph0" class="graph" transform="scale(1 1) rotate(0) translate(4 511.17)">
<title>g</title>
<polygon fill="white" stroke="transparent" points="-4,4 -4,-511.17 154,-511.17 154,4 -4,4"/>
<g id="clust1" class="cluster">
<title>cluster_S</title>
<polygon fill="none" stroke="black" points="8,-8 8,-499.17 142,-499.17 142,-8 8,-8"/>
<text text-anchor="middle" x="75" y="-483.97" font-family="Times,serif" font-size="14.00">S</text>
</g>
<!-- S_1 -->
<g id="node1" class="node">
<title>S_1</title>
<ellipse fill="none" stroke="black" cx="75" cy="-307.98" rx="36.29" ry="36.29"/>
<text text-anchor="middle" x="75" y="-304.28" font-family="Times,serif" font-size="14.00">S,S_1</text>
</g>
<!-- S_2 -->
<g id="node2" class="node">
<title>S_2</title>
<ellipse fill="none" stroke="black" cx="52" cy="-184.19" rx="36.29" ry="36.29"/>
<text text-anchor="middle" x="52" y="-180.49" font-family="Times,serif" font-size="14.00">S,S_2</text>
</g>
<!-- S_1&#45;&gt;S_2 -->
<g id="edge2" class="edge">
<title>S_1&#45;&gt;S_2</title>
<path fill="none" stroke="black" d="M68.41,-272.08C65.93,-258.96 63.08,-243.85 60.45,-229.96"/>
<polygon fill="black" stroke="black" points="63.89,-229.27 58.59,-220.1 57.01,-230.57 63.89,-229.27"/>
<text text-anchor="middle" x="69" y="-242.39" font-family="Times,serif" font-size="14.00">S</text>
</g>
<!-- S_3 -->
<g id="node3" class="node">
<title>S_3</title>
<ellipse fill="none" stroke="red" cx="75" cy="-56.4" rx="36.3" ry="36.3"/>
<ellipse fill="none" stroke="red" cx="75" cy="-56.4" rx="40.29" ry="40.29"/>
<text text-anchor="middle" x="75" y="-52.7" font-family="Times,serif" font-size="14.00">S,S_3</text>
</g>
<!-- S_1&#45;&gt;S_3 -->
<g id="edge1" class="edge">
<title>S_1&#45;&gt;S_3</title>
<path fill="none" stroke="black" d="M85.77,-272.89C90.2,-257.14 94.81,-238.1 97,-220.59 101.02,-188.49 100.85,-179.92 97,-147.79 95.31,-133.73 92.2,-118.69 88.83,-104.99"/>
<polygon fill="black" stroke="black" points="92.22,-104.12 86.36,-95.29 85.44,-105.85 92.22,-104.12"/>
<text text-anchor="middle" x="104" y="-180.49" font-family="Times,serif" font-size="14.00">b</text>
</g>
<!-- S_2&#45;&gt;S_3 -->
<g id="edge3" class="edge">
<title>S_2&#45;&gt;S_3</title>
<path fill="none" stroke="black" d="M58.41,-148.15C60.78,-135.16 63.52,-120.19 66.08,-106.2"/>
<polygon fill="black" stroke="black" points="69.54,-106.69 67.9,-96.23 62.66,-105.43 69.54,-106.69"/>
<text text-anchor="middle" x="69" y="-118.59" font-family="Times,serif" font-size="14.00">b</text>
</g>
<!-- S_0 -->
<g id="node4" class="node">
<title>S_0</title>
<ellipse fill="none" stroke="green" cx="75" cy="-431.78" rx="36.29" ry="36.29"/>
<text text-anchor="middle" x="75" y="-428.08" font-family="Times,serif" font-size="14.00">S,S_0</text>
</g>
<!-- S_0&#45;&gt;S_1 -->
<g id="edge4" class="edge">
<title>S_0&#45;&gt;S_1</title>
<path fill="none" stroke="black" d="M75,-395.22C75,-382.7 75,-368.44 75,-355.17"/>
<polygon fill="black" stroke="black" points="78.5,-354.79 75,-344.79 71.5,-354.79 78.5,-354.79"/>
<text text-anchor="middle" x="79.5" y="-366.18" font-family="Times,serif" font-size="14.00">a</text>
</g>
</g>
</svg>
