<?xml version="1.0" encoding="UTF-8" standalone="no"?>
<!DOCTYPE svg PUBLIC "-//W3C//DTD SVG 1.1//EN"
 "http://www.w3.org/Graphics/SVG/1.1/DTD/svg11.dtd">
<!-- Generated by graphviz version 2.43.0 (0)
 -->
<!-- Title: g Pages: 1 -->
<svg width="879pt" height="754pt"
 viewBox="0.00 0.00 879.00 754.00" xmlns="http://www.w3.org/2000/svg" xmlns:xlink="http://www.w3.org/1999/xlink">
<g id="graph0" class="graph" transform="scale(1 1) rotate(0) translate(4 750)">
<title>g</title>
<polygon fill="white" stroke="transparent" points="-4,4 -4,-750 875,-750 875,4 -4,4"/>
<g id="clust1" class="cluster">
<title>cluster_0</title>
<polygon fill="none" stroke="black" points="8,-8 8,-738 863,-738 863,-8 8,-8"/>
</g>
<!-- _0_0 -->
<g id="node1" class="node">
<title>_0_0</title>
<polygon fill="none" stroke="black" points="303.37,-694 566.63,-694 660.39,-730 209.61,-730 303.37,-694"/>
<text text-anchor="middle" x="435" y="-708.3" font-family="Times,serif" font-size="14.00">0 &#160;&#160;&#160;&#160;Nonterminal S, input: [0, 2]</text>
</g>
<!-- _0_1 -->
<g id="node2" class="node">
<title>_0_1</title>
<ellipse fill="none" stroke="black" cx="435" cy="-640" rx="199.56" ry="18"/>
<text text-anchor="middle" x="435" y="-636.3" font-family="Times,serif" font-size="14.00">1 &#160;&#160;&#160;&#160;Range , input: [0, 2], rsm: [S_0, S_3]</text>
</g>
<!-- _0_0&#45;&gt;_0_1 -->
<g id="edge1" class="edge">
<title>_0_0&#45;&gt;_0_1</title>
<path fill="none" stroke="black" d="M435,-693.7C435,-685.98 435,-676.71 435,-668.11"/>
<polygon fill="black" stroke="black" points="438.5,-668.1 435,-658.1 431.5,-668.1 438.5,-668.1"/>
</g>
<!-- _0_3 -->
<g id="node12" class="node">
<title>_0_3</title>
<text text-anchor="middle" x="435" y="-574.8" font-family="Times,serif" font-size="14.00">3 &#160;&#160;&#160;&#160;Intermediate input: 1, rsm: S_2, input: [0, 2]</text>
</g>
<!-- _0_1&#45;&gt;_0_3 -->
<g id="edge2" class="edge">
<title>_0_1&#45;&gt;_0_3</title>
<path fill="none" stroke="black" d="M435,-621.79C435,-613.77 435,-604.25 435,-596.28"/>
<polygon fill="black" stroke="black" points="438.5,-596.06 435,-586.06 431.5,-596.06 438.5,-596.06"/>
</g>
<!-- _0_10 -->
<g id="node3" class="node">
<title>_0_10</title>
<text text-anchor="middle" x="235" y="-441.3" font-family="Times,serif" font-size="14.00">10 &#160;&#160;&#160;&#160;Intermediate input: 1, rsm: S_1, input: [0, 1]</text>
</g>
<!-- _0_11 -->
<g id="node4" class="node">
<title>_0_11</title>
<ellipse fill="none" stroke="black" cx="232" cy="-373" rx="205.26" ry="18"/>
<text text-anchor="middle" x="232" y="-369.3" font-family="Times,serif" font-size="14.00">11 &#160;&#160;&#160;&#160;Range , input: [1, 1], rsm: [S_1, S_2]</text>
</g>
<!-- _0_10&#45;&gt;_0_11 -->
<g id="edge4" class="edge">
<title>_0_10&#45;&gt;_0_11</title>
<path fill="none" stroke="black" d="M234.71,-437.29C234.36,-428.97 233.73,-414.29 233.16,-401.16"/>
<polygon fill="black" stroke="black" points="236.66,-400.96 232.73,-391.12 229.67,-401.26 236.66,-400.96"/>
</g>
<!-- _0_4 -->
<g id="node13" class="node">
<title>_0_4</title>
<ellipse fill="none" stroke="black" cx="655" cy="-373" rx="199.56" ry="18"/>
<text text-anchor="middle" x="655" y="-369.3" font-family="Times,serif" font-size="14.00">4 &#160;&#160;&#160;&#160;Range , input: [0, 1], rsm: [S_0, S_1]</text>
</g>
<!-- _0_10&#45;&gt;_0_4 -->
<g id="edge3" class="edge">
<title>_0_10&#45;&gt;_0_4</title>
<path fill="none" stroke="black" d="M274.14,-437.48C337.54,-426.91 464.65,-405.72 554.56,-390.74"/>
<polygon fill="black" stroke="black" points="555.22,-394.18 564.51,-389.08 554.07,-387.27 555.22,-394.18"/>
</g>
<!-- _0_12 -->
<g id="node5" class="node">
<title>_0_12</title>
<polygon fill="none" stroke="green" points="112.67,-283 385.33,-283 482.43,-319 15.57,-319 112.67,-283"/>
<text text-anchor="middle" x="249" y="-297.3" font-family="Times,serif" font-size="14.00">12 &#160;&#160;&#160;&#160;Nonterminal S, input: [1, 1]</text>
</g>
<!-- _0_11&#45;&gt;_0_12 -->
<g id="edge5" class="edge">
<title>_0_11&#45;&gt;_0_12</title>
<path fill="none" stroke="black" d="M236.2,-354.7C238.1,-346.9 240.38,-337.51 242.48,-328.83"/>
<polygon fill="black" stroke="black" points="245.89,-329.65 244.85,-319.1 239.08,-328 245.89,-329.65"/>
</g>
<!-- _0_13 -->
<g id="node6" class="node">
<title>_0_13</title>
<ellipse fill="none" stroke="black" cx="249" cy="-229" rx="205.26" ry="18"/>
<text text-anchor="middle" x="249" y="-225.3" font-family="Times,serif" font-size="14.00">13 &#160;&#160;&#160;&#160;Range , input: [1, 1], rsm: [S_0, S_3]</text>
</g>
<!-- _0_12&#45;&gt;_0_13 -->
<g id="edge6" class="edge">
<title>_0_12&#45;&gt;_0_13</title>
<path fill="none" stroke="black" d="M249,-282.7C249,-274.98 249,-265.71 249,-257.11"/>
<polygon fill="black" stroke="black" points="252.5,-257.1 249,-247.1 245.5,-257.1 252.5,-257.1"/>
</g>
<!-- _0_14 -->
<g id="node7" class="node">
<title>_0_14</title>
<text text-anchor="middle" x="249" y="-163.8" font-family="Times,serif" font-size="14.00">14 &#160;&#160;&#160;&#160;Intermediate input: 2, rsm: S_1, input: [1, 1]</text>
</g>
<!-- _0_13&#45;&gt;_0_14 -->
<g id="edge7" class="edge">
<title>_0_13&#45;&gt;_0_14</title>
<path fill="none" stroke="black" d="M249,-210.79C249,-202.77 249,-193.25 249,-185.28"/>
<polygon fill="black" stroke="black" points="252.5,-185.06 249,-175.06 245.5,-185.06 252.5,-185.06"/>
</g>
<!-- _0_15 -->
<g id="node8" class="node">
<title>_0_15</title>
<ellipse fill="none" stroke="black" cx="221" cy="-106" rx="205.26" ry="18"/>
<text text-anchor="middle" x="221" y="-102.3" font-family="Times,serif" font-size="14.00">15 &#160;&#160;&#160;&#160;Range , input: [1, 2], rsm: [S_0, S_1]</text>
</g>
<!-- _0_14&#45;&gt;_0_15 -->
<g id="edge8" class="edge">
<title>_0_14&#45;&gt;_0_15</title>
<path fill="none" stroke="black" d="M245.79,-159.67C242.75,-153.22 237.99,-143.11 233.45,-133.46"/>
<polygon fill="black" stroke="black" points="236.48,-131.69 229.06,-124.13 230.15,-134.67 236.48,-131.69"/>
</g>
<!-- _0_16 -->
<g id="node9" class="node">
<title>_0_16</title>
<ellipse fill="none" stroke="black" cx="650" cy="-106" rx="205.26" ry="18"/>
<text text-anchor="middle" x="650" y="-102.3" font-family="Times,serif" font-size="14.00">16 &#160;&#160;&#160;&#160;Range , input: [2, 1], rsm: [S_1, S_3]</text>
</g>
<!-- _0_14&#45;&gt;_0_16 -->
<g id="edge9" class="edge">
<title>_0_14&#45;&gt;_0_16</title>
<path fill="none" stroke="black" d="M293.06,-159.96C352.08,-151.2 458.81,-135.37 540.23,-123.29"/>
<polygon fill="black" stroke="black" points="541.16,-126.69 550.53,-121.76 540.13,-119.76 541.16,-126.69"/>
</g>
<!-- _0_17 -->
<g id="node10" class="node">
<title>_0_17</title>
<polygon fill="none" stroke="red" points="337.5,-52 104.5,-52 104.5,-16 337.5,-16 337.5,-52"/>
<text text-anchor="middle" x="221" y="-30.3" font-family="Times,serif" font-size="14.00">17 &#160;&#160;&#160;&#160;Terminal &#39;a&#39;, input: [1, 2]</text>
</g>
<!-- _0_15&#45;&gt;_0_17 -->
<g id="edge10" class="edge">
<title>_0_15&#45;&gt;_0_17</title>
<path fill="none" stroke="black" d="M221,-87.7C221,-79.98 221,-70.71 221,-62.11"/>
<polygon fill="black" stroke="black" points="224.5,-62.1 221,-52.1 217.5,-62.1 224.5,-62.1"/>
</g>
<!-- _0_18 -->
<g id="node11" class="node">
<title>_0_18</title>
<polygon fill="none" stroke="red" points="767,-52 533,-52 533,-16 767,-16 767,-52"/>
<text text-anchor="middle" x="650" y="-30.3" font-family="Times,serif" font-size="14.00">18 &#160;&#160;&#160;&#160;Terminal &#39;b&#39;, input: [2, 1]</text>
</g>
<!-- _0_16&#45;&gt;_0_18 -->
<g id="edge11" class="edge">
<title>_0_16&#45;&gt;_0_18</title>
<path fill="none" stroke="black" d="M650,-87.7C650,-79.98 650,-70.71 650,-62.11"/>
<polygon fill="black" stroke="black" points="653.5,-62.1 650,-52.1 646.5,-62.1 653.5,-62.1"/>
</g>
<!-- _0_6 -->
<g id="node14" class="node">
<title>_0_6</title>
<ellipse fill="none" stroke="black" cx="235" cy="-517" rx="199.56" ry="18"/>
<text text-anchor="middle" x="235" y="-513.3" font-family="Times,serif" font-size="14.00">6 &#160;&#160;&#160;&#160;Range , input: [0, 1], rsm: [S_0, S_2]</text>
</g>
<!-- _0_3&#45;&gt;_0_6 -->
<g id="edge12" class="edge">
<title>_0_3&#45;&gt;_0_6</title>
<path fill="none" stroke="black" d="M412.83,-570.91C385.74,-562.84 338.69,-548.85 299.79,-537.27"/>
<polygon fill="black" stroke="black" points="300.67,-533.89 290.09,-534.39 298.68,-540.6 300.67,-533.89"/>
</g>
<!-- _0_7 -->
<g id="node15" class="node">
<title>_0_7</title>
<ellipse fill="none" stroke="black" cx="652" cy="-517" rx="199.56" ry="18"/>
<text text-anchor="middle" x="652" y="-513.3" font-family="Times,serif" font-size="14.00">7 &#160;&#160;&#160;&#160;Range , input: [1, 2], rsm: [S_2, S_3]</text>
</g>
<!-- _0_3&#45;&gt;_0_7 -->
<g id="edge13" class="edge">
<title>_0_3&#45;&gt;_0_7</title>
<path fill="none" stroke="black" d="M459.05,-570.91C488.74,-562.76 540.51,-548.57 582.95,-536.93"/>
<polygon fill="black" stroke="black" points="583.96,-540.28 592.68,-534.26 582.11,-533.53 583.96,-540.28"/>
</g>
<!-- _0_8 -->
<g id="node16" class="node">
<title>_0_8</title>
<polygon fill="none" stroke="red" points="767,-319 543,-319 543,-283 767,-283 767,-319"/>
<text text-anchor="middle" x="655" y="-297.3" font-family="Times,serif" font-size="14.00">8 &#160;&#160;&#160;&#160;Terminal &#39;a&#39;, input: [0, 1]</text>
</g>
<!-- _0_4&#45;&gt;_0_8 -->
<g id="edge14" class="edge">
<title>_0_4&#45;&gt;_0_8</title>
<path fill="none" stroke="black" d="M655,-354.7C655,-346.98 655,-337.71 655,-329.11"/>
<polygon fill="black" stroke="black" points="658.5,-329.1 655,-319.1 651.5,-329.1 658.5,-329.1"/>
</g>
<!-- _0_6&#45;&gt;_0_10 -->
<g id="edge15" class="edge">
<title>_0_6&#45;&gt;_0_10</title>
<path fill="none" stroke="black" d="M235,-498.7C235,-487.76 235,-473.68 235,-462.83"/>
<polygon fill="black" stroke="black" points="238.5,-462.62 235,-452.62 231.5,-462.62 238.5,-462.62"/>
</g>
<!-- _0_9 -->
<g id="node17" class="node">
<title>_0_9</title>
<polygon fill="none" stroke="red" points="764.5,-463 539.5,-463 539.5,-427 764.5,-427 764.5,-463"/>
<text text-anchor="middle" x="652" y="-441.3" font-family="Times,serif" font-size="14.00">9 &#160;&#160;&#160;&#160;Terminal &#39;b&#39;, input: [1, 2]</text>
</g>
<!-- _0_7&#45;&gt;_0_9 -->
<g id="edge16" class="edge">
<title>_0_7&#45;&gt;_0_9</title>
<path fill="none" stroke="black" d="M652,-498.7C652,-490.98 652,-481.71 652,-473.11"/>
<polygon fill="black" stroke="black" points="655.5,-473.1 652,-463.1 648.5,-473.1 655.5,-473.1"/>
</g>
</g>
</svg>
