<?xml version="1.0" encoding="UTF-8" standalone="no"?>
<!DOCTYPE svg PUBLIC "-//W3C//DTD SVG 1.1//EN"
 "http://www.w3.org/Graphics/SVG/1.1/DTD/svg11.dtd">
<!-- Generated by graphviz version 2.43.0 (0)
 -->
<!-- Title: %3 Pages: 1 -->
<svg width="62pt" height="218pt"
 viewBox="0.00 0.00 62.00 218.00" xmlns="http://www.w3.org/2000/svg" xmlns:xlink="http://www.w3.org/1999/xlink">
<g id="graph0" class="graph" transform="scale(1 1) rotate(0) translate(4 214)">
<title>%3</title>
<polygon fill="white" stroke="transparent" points="-4,4 -4,-214 58,-214 58,4 -4,4"/>
<!-- 0 -->
<g id="node1" class="node">
<title>0</title>
<ellipse fill="none" stroke="black" cx="27" cy="-192" rx="27" ry="18"/>
<text text-anchor="middle" x="27" y="-188.3" font-family="Times,serif" font-size="14.00">0</text>
</g>
<!-- 1 -->
<g id="node2" class="node">
<title>1</title>
<ellipse fill="none" stroke="black" cx="27" cy="-105" rx="27" ry="18"/>
<text text-anchor="middle" x="27" y="-101.3" font-family="Times,serif" font-size="14.00">1</text>
</g>
<!-- 0&#45;&gt;1 -->
<g id="edge1" class="edge">
<title>0&#45;&gt;1</title>
<path fill="none" stroke="black" d="M27,-173.8C27,-162.16 27,-146.55 27,-133.24"/>
<polygon fill="black" stroke="black" points="30.5,-133.18 27,-123.18 23.5,-133.18 30.5,-133.18"/>
<text text-anchor="middle" x="31.5" y="-144.8" font-family="Times,serif" font-size="14.00">a</text>
</g>
<!-- 2 -->
<g id="node3" class="node">
<title>2</title>
<ellipse fill="none" stroke="black" cx="27" cy="-18" rx="27" ry="18"/>
<text text-anchor="middle" x="27" y="-14.3" font-family="Times,serif" font-size="14.00">2</text>
</g>
<!-- 1&#45;&gt;2 -->
<g id="edge2" class="edge">
<title>1&#45;&gt;2</title>
<path fill="none" stroke="black" d="M27,-86.8C27,-75.16 27,-59.55 27,-46.24"/>
<polygon fill="black" stroke="black" points="30.5,-46.18 27,-36.18 23.5,-46.18 30.5,-46.18"/>
<text text-anchor="middle" x="32" y="-57.8" font-family="Times,serif" font-size="14.00">b</text>
</g>
</g>
</svg>
