<?xml version="1.0" encoding="UTF-8" standalone="no"?>
<!DOCTYPE svg PUBLIC "-//W3C//DTD SVG 1.1//EN"
 "http://www.w3.org/Graphics/SVG/1.1/DTD/svg11.dtd">
<!-- Generated by graphviz version 2.43.0 (0)
 -->
<!-- Title: g Pages: 1 -->
<svg width="857pt" height="343pt"
 viewBox="0.00 0.00 857.00 343.00" xmlns="http://www.w3.org/2000/svg" xmlns:xlink="http://www.w3.org/1999/xlink">
<g id="graph0" class="graph" transform="scale(1 1) rotate(0) translate(4 339)">
<title>g</title>
<polygon fill="white" stroke="transparent" points="-4,4 -4,-339 853,-339 853,4 -4,4"/>
<g id="clust1" class="cluster">
<title>cluster_0</title>
<polygon fill="none" stroke="black" points="8,-8 8,-327 841,-327 841,-8 8,-8"/>
</g>
<!-- _0_0 -->
<g id="node1" class="node">
<title>_0_0</title>
<polygon fill="none" stroke="black" points="292.37,-283 555.63,-283 649.39,-319 198.61,-319 292.37,-283"/>
<text text-anchor="middle" x="424" y="-297.3" font-family="Times,serif" font-size="14.00">0 &#160;&#160;&#160;&#160;Nonterminal S, input: [0, 1]</text>
</g>
<!-- _0_1 -->
<g id="node2" class="node">
<title>_0_1</title>
<ellipse fill="none" stroke="black" cx="424" cy="-229" rx="199.56" ry="18"/>
<text text-anchor="middle" x="424" y="-225.3" font-family="Times,serif" font-size="14.00">1 &#160;&#160;&#160;&#160;Range , input: [0, 1], rsm: [S_0, S_3]</text>
</g>
<!-- _0_0&#45;&gt;_0_1 -->
<g id="edge1" class="edge">
<title>_0_0&#45;&gt;_0_1</title>
<path fill="none" stroke="black" d="M424,-282.7C424,-274.98 424,-265.71 424,-257.11"/>
<polygon fill="black" stroke="black" points="427.5,-257.1 424,-247.1 420.5,-257.1 427.5,-257.1"/>
</g>
<!-- _0_2 -->
<g id="node3" class="node">
<title>_0_2</title>
<text text-anchor="middle" x="424" y="-163.8" font-family="Times,serif" font-size="14.00">2 &#160;&#160;&#160;&#160;Intermediate input: 1, rsm: S_1, input: [0, 1]</text>
</g>
<!-- _0_1&#45;&gt;_0_2 -->
<g id="edge2" class="edge">
<title>_0_1&#45;&gt;_0_2</title>
<path fill="none" stroke="black" d="M424,-210.79C424,-202.77 424,-193.25 424,-185.28"/>
<polygon fill="black" stroke="black" points="427.5,-185.06 424,-175.06 420.5,-185.06 427.5,-185.06"/>
</g>
<!-- _0_4 -->
<g id="node4" class="node">
<title>_0_4</title>
<ellipse fill="none" stroke="black" cx="216" cy="-106" rx="199.56" ry="18"/>
<text text-anchor="middle" x="216" y="-102.3" font-family="Times,serif" font-size="14.00">4 &#160;&#160;&#160;&#160;Range , input: [0, 1], rsm: [S_0, S_1]</text>
</g>
<!-- _0_2&#45;&gt;_0_4 -->
<g id="edge3" class="edge">
<title>_0_2&#45;&gt;_0_4</title>
<path fill="none" stroke="black" d="M400.95,-159.91C372.61,-151.8 323.29,-137.69 282.7,-126.08"/>
<polygon fill="black" stroke="black" points="283.44,-122.65 272.86,-123.26 281.51,-129.38 283.44,-122.65"/>
</g>
<!-- _0_5 -->
<g id="node5" class="node">
<title>_0_5</title>
<ellipse fill="none" stroke="black" cx="633" cy="-106" rx="199.56" ry="18"/>
<text text-anchor="middle" x="633" y="-102.3" font-family="Times,serif" font-size="14.00">5 &#160;&#160;&#160;&#160;Range , input: [1, 1], rsm: [S_1, S_3]</text>
</g>
<!-- _0_2&#45;&gt;_0_5 -->
<g id="edge4" class="edge">
<title>_0_2&#45;&gt;_0_5</title>
<path fill="none" stroke="black" d="M447.17,-159.91C475.7,-151.78 525.41,-137.63 566.24,-126.01"/>
<polygon fill="black" stroke="black" points="567.21,-129.37 575.87,-123.26 565.29,-122.64 567.21,-129.37"/>
</g>
<!-- _0_8 -->
<g id="node6" class="node">
<title>_0_8</title>
<polygon fill="none" stroke="red" points="328,-52 104,-52 104,-16 328,-16 328,-52"/>
<text text-anchor="middle" x="216" y="-30.3" font-family="Times,serif" font-size="14.00">8 &#160;&#160;&#160;&#160;Terminal &#39;a&#39;, input: [0, 1]</text>
</g>
<!-- _0_4&#45;&gt;_0_8 -->
<g id="edge5" class="edge">
<title>_0_4&#45;&gt;_0_8</title>
<path fill="none" stroke="black" d="M216,-87.7C216,-79.98 216,-70.71 216,-62.11"/>
<polygon fill="black" stroke="black" points="219.5,-62.1 216,-52.1 212.5,-62.1 219.5,-62.1"/>
</g>
<!-- _0_9 -->
<g id="node7" class="node">
<title>_0_9</title>
<polygon fill="none" stroke="red" points="745.5,-52 520.5,-52 520.5,-16 745.5,-16 745.5,-52"/>
<text text-anchor="middle" x="633" y="-30.3" font-family="Times,serif" font-size="14.00">9 &#160;&#160;&#160;&#160;Terminal &#39;b&#39;, input: [1, 1]</text>
</g>
<!-- _0_5&#45;&gt;_0_9 -->
<g id="edge6" class="edge">
<title>_0_5&#45;&gt;_0_9</title>
<path fill="none" stroke="black" d="M633,-87.7C633,-79.98 633,-70.71 633,-62.11"/>
<polygon fill="black" stroke="black" points="636.5,-62.1 633,-52.1 629.5,-62.1 636.5,-62.1"/>
</g>
</g>
</svg>
