<?xml version="1.0" encoding="UTF-8" standalone="no"?>
<!DOCTYPE svg PUBLIC "-//W3C//DTD SVG 1.1//EN"
 "http://www.w3.org/Graphics/SVG/1.1/DTD/svg11.dtd">
<!-- Generated by graphviz version 2.43.0 (0)
 -->
<!-- Title: g Pages: 1 -->
<svg width="908pt" height="877pt"
 viewBox="0.00 0.00 908.00 877.00" xmlns="http://www.w3.org/2000/svg" xmlns:xlink="http://www.w3.org/1999/xlink">
<g id="graph0" class="graph" transform="scale(1 1) rotate(0) translate(4 873)">
<title>g</title>
<polygon fill="white" stroke="transparent" points="-4,4 -4,-873 904,-873 904,4 -4,4"/>
<g id="clust1" class="cluster">
<title>cluster_0</title>
<polygon fill="none" stroke="black" points="8,-8 8,-861 892,-861 892,-8 8,-8"/>
</g>
<!-- _0_0 -->
<g id="node1" class="node">
<title>_0_0</title>
<polygon fill="none" stroke="black" points="527.37,-817 790.63,-817 884.39,-853 433.61,-853 527.37,-817"/>
<text text-anchor="middle" x="659" y="-831.3" font-family="Times,serif" font-size="14.00">0 &#160;&#160;&#160;&#160;Nonterminal S, input: [0, 1]</text>
</g>
<!-- _0_1 -->
<g id="node2" class="node">
<title>_0_1</title>
<ellipse fill="none" stroke="black" cx="671" cy="-763" rx="199.56" ry="18"/>
<text text-anchor="middle" x="671" y="-759.3" font-family="Times,serif" font-size="14.00">1 &#160;&#160;&#160;&#160;Range , input: [0, 1], rsm: [S_0, S_3]</text>
</g>
<!-- _0_0&#45;&gt;_0_1 -->
<g id="edge1" class="edge">
<title>_0_0&#45;&gt;_0_1</title>
<path fill="none" stroke="black" d="M661.97,-816.7C663.29,-808.98 664.88,-799.71 666.35,-791.11"/>
<polygon fill="black" stroke="black" points="669.83,-791.55 668.07,-781.1 662.93,-790.37 669.83,-791.55"/>
</g>
<!-- _0_14 -->
<g id="node14" class="node">
<title>_0_14</title>
<text text-anchor="middle" x="671" y="-697.8" font-family="Times,serif" font-size="14.00">3 &#160;&#160;&#160;&#160;Intermediate input: 1, rsm: S_2, input: [0, 1]</text>
</g>
<!-- _0_1&#45;&gt;_0_14 -->
<g id="edge2" class="edge">
<title>_0_1&#45;&gt;_0_14</title>
<path fill="none" stroke="black" d="M671,-744.79C671,-736.77 671,-727.25 671,-719.28"/>
<polygon fill="black" stroke="black" points="674.5,-719.06 671,-709.06 667.5,-719.06 674.5,-719.06"/>
</g>
<!-- _0_2 -->
<g id="node3" class="node">
<title>_0_2</title>
<text text-anchor="middle" x="644" y="-574.8" font-family="Times,serif" font-size="14.00">10 &#160;&#160;&#160;&#160;Intermediate input: 1, rsm: S_1, input: [0, 1]</text>
</g>
<!-- _0_3 -->
<g id="node4" class="node">
<title>_0_3</title>
<ellipse fill="none" stroke="black" cx="221" cy="-517" rx="205.26" ry="18"/>
<text text-anchor="middle" x="221" y="-513.3" font-family="Times,serif" font-size="14.00">11 &#160;&#160;&#160;&#160;Range , input: [1, 1], rsm: [S_1, S_2]</text>
</g>
<!-- _0_2&#45;&gt;_0_3 -->
<g id="edge4" class="edge">
<title>_0_2&#45;&gt;_0_3</title>
<path fill="none" stroke="black" d="M597.52,-570.96C534.76,-562.13 420.87,-546.11 334.73,-534"/>
<polygon fill="black" stroke="black" points="335.02,-530.5 324.63,-532.58 334.04,-537.44 335.02,-530.5"/>
</g>
<!-- _0_15 -->
<g id="node15" class="node">
<title>_0_15</title>
<ellipse fill="none" stroke="black" cx="644" cy="-517" rx="199.56" ry="18"/>
<text text-anchor="middle" x="644" y="-513.3" font-family="Times,serif" font-size="14.00">4 &#160;&#160;&#160;&#160;Range , input: [0, 1], rsm: [S_0, S_1]</text>
</g>
<!-- _0_2&#45;&gt;_0_15 -->
<g id="edge3" class="edge">
<title>_0_2&#45;&gt;_0_15</title>
<path fill="none" stroke="black" d="M644,-570.67C644,-564.42 644,-554.74 644,-545.37"/>
<polygon fill="black" stroke="black" points="647.5,-545.13 644,-535.13 640.5,-545.13 647.5,-545.13"/>
</g>
<!-- _0_4 -->
<g id="node5" class="node">
<title>_0_4</title>
<polygon fill="none" stroke="green" points="112.67,-427 385.33,-427 482.43,-463 15.57,-463 112.67,-427"/>
<text text-anchor="middle" x="249" y="-441.3" font-family="Times,serif" font-size="14.00">12 &#160;&#160;&#160;&#160;Nonterminal S, input: [1, 1]</text>
</g>
<!-- _0_3&#45;&gt;_0_4 -->
<g id="edge5" class="edge">
<title>_0_3&#45;&gt;_0_4</title>
<path fill="none" stroke="black" d="M227.92,-498.7C231.07,-490.81 234.88,-481.3 238.38,-472.55"/>
<polygon fill="black" stroke="black" points="241.69,-473.69 242.16,-463.1 235.19,-471.09 241.69,-473.69"/>
</g>
<!-- _0_5 -->
<g id="node6" class="node">
<title>_0_5</title>
<ellipse fill="none" stroke="black" cx="249" cy="-373" rx="205.26" ry="18"/>
<text text-anchor="middle" x="249" y="-369.3" font-family="Times,serif" font-size="14.00">13 &#160;&#160;&#160;&#160;Range , input: [1, 1], rsm: [S_0, S_3]</text>
</g>
<!-- _0_4&#45;&gt;_0_5 -->
<g id="edge6" class="edge">
<title>_0_4&#45;&gt;_0_5</title>
<path fill="none" stroke="black" d="M249,-426.7C249,-418.98 249,-409.71 249,-401.11"/>
<polygon fill="black" stroke="black" points="252.5,-401.1 249,-391.1 245.5,-401.1 252.5,-401.1"/>
</g>
<!-- _0_6 -->
<g id="node7" class="node">
<title>_0_6</title>
<text text-anchor="middle" x="249" y="-307.8" font-family="Times,serif" font-size="14.00">14 &#160;&#160;&#160;&#160;Intermediate input: 1, rsm: S_2, input: [1, 1]</text>
</g>
<!-- _0_5&#45;&gt;_0_6 -->
<g id="edge7" class="edge">
<title>_0_5&#45;&gt;_0_6</title>
<path fill="none" stroke="black" d="M249,-354.79C249,-346.77 249,-337.25 249,-329.28"/>
<polygon fill="black" stroke="black" points="252.5,-329.06 249,-319.06 245.5,-329.06 252.5,-329.06"/>
</g>
<!-- _0_7 -->
<g id="node8" class="node">
<title>_0_7</title>
<ellipse fill="none" stroke="black" cx="241" cy="-250" rx="205.26" ry="18"/>
<text text-anchor="middle" x="241" y="-246.3" font-family="Times,serif" font-size="14.00">15 &#160;&#160;&#160;&#160;Range , input: [1, 1], rsm: [S_0, S_2]</text>
</g>
<!-- _0_6&#45;&gt;_0_7 -->
<g id="edge8" class="edge">
<title>_0_6&#45;&gt;_0_7</title>
<path fill="none" stroke="black" d="M248.08,-303.67C247.23,-297.35 245.91,-287.53 244.64,-278.07"/>
<polygon fill="black" stroke="black" points="248.1,-277.57 243.3,-268.13 241.17,-278.5 248.1,-277.57"/>
</g>
<!-- _0_18 -->
<g id="node17" class="node">
<title>_0_18</title>
<ellipse fill="none" stroke="black" cx="664" cy="-250" rx="199.56" ry="18"/>
<text text-anchor="middle" x="664" y="-246.3" font-family="Times,serif" font-size="14.00">7 &#160;&#160;&#160;&#160;Range , input: [1, 1], rsm: [S_2, S_3]</text>
</g>
<!-- _0_6&#45;&gt;_0_18 -->
<g id="edge9" class="edge">
<title>_0_6&#45;&gt;_0_18</title>
<path fill="none" stroke="black" d="M294.6,-303.96C356.27,-295.12 468.28,-279.06 552.84,-266.94"/>
<polygon fill="black" stroke="black" points="553.35,-270.4 562.75,-265.52 552.36,-263.47 553.35,-270.4"/>
</g>
<!-- _0_8 -->
<g id="node9" class="node">
<title>_0_8</title>
<text text-anchor="middle" x="241" y="-174.3" font-family="Times,serif" font-size="14.00">16 &#160;&#160;&#160;&#160;Intermediate input: 0, rsm: S_1, input: [1, 1]</text>
</g>
<!-- _0_7&#45;&gt;_0_8 -->
<g id="edge10" class="edge">
<title>_0_7&#45;&gt;_0_8</title>
<path fill="none" stroke="black" d="M241,-231.7C241,-220.76 241,-206.68 241,-195.83"/>
<polygon fill="black" stroke="black" points="244.5,-195.62 241,-185.62 237.5,-195.62 244.5,-195.62"/>
</g>
<!-- _0_9 -->
<g id="node10" class="node">
<title>_0_9</title>
<ellipse fill="none" stroke="black" cx="222" cy="-106" rx="205.26" ry="18"/>
<text text-anchor="middle" x="222" y="-102.3" font-family="Times,serif" font-size="14.00">17 &#160;&#160;&#160;&#160;Range , input: [1, 0], rsm: [S_0, S_1]</text>
</g>
<!-- _0_8&#45;&gt;_0_9 -->
<g id="edge11" class="edge">
<title>_0_8&#45;&gt;_0_9</title>
<path fill="none" stroke="black" d="M239.18,-170.29C236.9,-161.89 232.86,-147 229.27,-133.77"/>
<polygon fill="black" stroke="black" points="232.64,-132.85 226.65,-124.12 225.89,-134.68 232.64,-132.85"/>
</g>
<!-- _0_10 -->
<g id="node11" class="node">
<title>_0_10</title>
<ellipse fill="none" stroke="black" cx="651" cy="-106" rx="205.26" ry="18"/>
<text text-anchor="middle" x="651" y="-102.3" font-family="Times,serif" font-size="14.00">18 &#160;&#160;&#160;&#160;Range , input: [0, 1], rsm: [S_1, S_2]</text>
</g>
<!-- _0_8&#45;&gt;_0_10 -->
<g id="edge12" class="edge">
<title>_0_8&#45;&gt;_0_10</title>
<path fill="none" stroke="black" d="M279.2,-170.48C340.84,-159.95 464.17,-138.9 551.87,-123.92"/>
<polygon fill="black" stroke="black" points="552.58,-127.35 561.84,-122.22 551.4,-120.45 552.58,-127.35"/>
</g>
<!-- _0_11 -->
<g id="node12" class="node">
<title>_0_11</title>
<polygon fill="none" stroke="red" points="338.5,-52 105.5,-52 105.5,-16 338.5,-16 338.5,-52"/>
<text text-anchor="middle" x="222" y="-30.3" font-family="Times,serif" font-size="14.00">19 &#160;&#160;&#160;&#160;Terminal &#39;a&#39;, input: [1, 0]</text>
</g>
<!-- _0_9&#45;&gt;_0_11 -->
<g id="edge13" class="edge">
<title>_0_9&#45;&gt;_0_11</title>
<path fill="none" stroke="black" d="M222,-87.7C222,-79.98 222,-70.71 222,-62.11"/>
<polygon fill="black" stroke="black" points="225.5,-62.1 222,-52.1 218.5,-62.1 225.5,-62.1"/>
</g>
<!-- _0_13 -->
<g id="node13" class="node">
<title>_0_13</title>
<polygon fill="none" stroke="green" points="514.67,-16 787.33,-16 884.43,-52 417.57,-52 514.67,-16"/>
<text text-anchor="middle" x="651" y="-30.3" font-family="Times,serif" font-size="14.00">20 &#160;&#160;&#160;&#160;Nonterminal S, input: [0, 1]</text>
</g>
<!-- _0_10&#45;&gt;_0_13 -->
<g id="edge14" class="edge">
<title>_0_10&#45;&gt;_0_13</title>
<path fill="none" stroke="black" d="M651,-87.7C651,-79.98 651,-70.71 651,-62.11"/>
<polygon fill="black" stroke="black" points="654.5,-62.1 651,-52.1 647.5,-62.1 654.5,-62.1"/>
</g>
<!-- _0_13&#45;&gt;_0_1 -->
<g id="edge15" class="edge">
<title>_0_13&#45;&gt;_0_1</title>
<path fill="none" stroke="black" d="M765.34,-52.04C808.31,-60.71 850.34,-72.69 865,-88 892.91,-117.15 883,-136.64 883,-177 883,-641 883,-641 883,-641 883,-673.68 879.35,-687.2 855,-709 836.5,-725.57 813.13,-736.98 789.3,-744.83"/>
<polygon fill="black" stroke="black" points="787.96,-741.58 779.44,-747.88 790.03,-748.27 787.96,-741.58"/>
</g>
<!-- _0_17 -->
<g id="node16" class="node">
<title>_0_17</title>
<ellipse fill="none" stroke="black" cx="644" cy="-640" rx="199.56" ry="18"/>
<text text-anchor="middle" x="644" y="-636.3" font-family="Times,serif" font-size="14.00">6 &#160;&#160;&#160;&#160;Range , input: [0, 1], rsm: [S_0, S_2]</text>
</g>
<!-- _0_14&#45;&gt;_0_17 -->
<g id="edge16" class="edge">
<title>_0_14&#45;&gt;_0_17</title>
<path fill="none" stroke="black" d="M667.9,-693.67C664.97,-687.22 660.39,-677.11 656.01,-667.46"/>
<polygon fill="black" stroke="black" points="659.09,-665.79 651.77,-658.13 652.72,-668.68 659.09,-665.79"/>
</g>
<!-- _0_14&#45;&gt;_0_18 -->
<g id="edge17" class="edge">
<title>_0_14&#45;&gt;_0_18</title>
<path fill="none" stroke="black" d="M730.39,-693.97C777.02,-687.55 836.7,-676.07 853,-658 876.56,-631.89 863,-614.67 863,-579.5 863,-579.5 863,-579.5 863,-372 863,-316.9 806.61,-286.18 753.87,-269.49"/>
<polygon fill="black" stroke="black" points="754.67,-266.07 744.08,-266.53 752.64,-272.77 754.67,-266.07"/>
</g>
<!-- _0_19 -->
<g id="node18" class="node">
<title>_0_19</title>
<polygon fill="none" stroke="red" points="756,-463 532,-463 532,-427 756,-427 756,-463"/>
<text text-anchor="middle" x="644" y="-441.3" font-family="Times,serif" font-size="14.00">8 &#160;&#160;&#160;&#160;Terminal &#39;a&#39;, input: [0, 1]</text>
</g>
<!-- _0_15&#45;&gt;_0_19 -->
<g id="edge18" class="edge">
<title>_0_15&#45;&gt;_0_19</title>
<path fill="none" stroke="black" d="M644,-498.7C644,-490.98 644,-481.71 644,-473.11"/>
<polygon fill="black" stroke="black" points="647.5,-473.1 644,-463.1 640.5,-473.1 647.5,-473.1"/>
</g>
<!-- _0_17&#45;&gt;_0_2 -->
<g id="edge19" class="edge">
<title>_0_17&#45;&gt;_0_2</title>
<path fill="none" stroke="black" d="M644,-621.79C644,-613.77 644,-604.25 644,-596.28"/>
<polygon fill="black" stroke="black" points="647.5,-596.06 644,-586.06 640.5,-596.06 647.5,-596.06"/>
</g>
<!-- _0_20 -->
<g id="node19" class="node">
<title>_0_20</title>
<polygon fill="none" stroke="red" points="776.5,-196 551.5,-196 551.5,-160 776.5,-160 776.5,-196"/>
<text text-anchor="middle" x="664" y="-174.3" font-family="Times,serif" font-size="14.00">9 &#160;&#160;&#160;&#160;Terminal &#39;b&#39;, input: [1, 1]</text>
</g>
<!-- _0_18&#45;&gt;_0_20 -->
<g id="edge20" class="edge">
<title>_0_18&#45;&gt;_0_20</title>
<path fill="none" stroke="black" d="M664,-231.7C664,-223.98 664,-214.71 664,-206.11"/>
<polygon fill="black" stroke="black" points="667.5,-206.1 664,-196.1 660.5,-206.1 667.5,-206.1"/>
</g>
</g>
</svg>
