<?xml version="1.0" encoding="UTF-8" standalone="no"?>
<!DOCTYPE svg PUBLIC "-//W3C//DTD SVG 1.1//EN"
 "http://www.w3.org/Graphics/SVG/1.1/DTD/svg11.dtd">
<!-- Generated by graphviz version 2.43.0 (0)
 -->
<!-- Title: g Pages: 1 -->
<svg width="888pt" height="1144pt"
 viewBox="0.00 0.00 888.00 1144.00" xmlns="http://www.w3.org/2000/svg" xmlns:xlink="http://www.w3.org/1999/xlink">
<g id="graph0" class="graph" transform="scale(1 1) rotate(0) translate(4 1140)">
<title>g</title>
<polygon fill="white" stroke="transparent" points="-4,4 -4,-1140 884,-1140 884,4 -4,4"/>
<g id="clust1" class="cluster">
<title>cluster_0</title>
<polygon fill="none" stroke="black" points="8,-8 8,-1128 872,-1128 872,-8 8,-8"/>
</g>
<!-- _0_0 -->
<g id="node1" class="node">
<title>_0_0</title>
<polygon fill="none" stroke="black" points="507.37,-1084 770.63,-1084 864.39,-1120 413.61,-1120 507.37,-1084"/>
<text text-anchor="middle" x="639" y="-1098.3" font-family="Times,serif" font-size="14.00">0 &#160;&#160;&#160;&#160;Nonterminal S, input: [0, 1]</text>
</g>
<!-- _0_1 -->
<g id="node2" class="node">
<title>_0_1</title>
<ellipse fill="none" stroke="black" cx="640" cy="-1030" rx="199.56" ry="18"/>
<text text-anchor="middle" x="640" y="-1026.3" font-family="Times,serif" font-size="14.00">1 &#160;&#160;&#160;&#160;Range , input: [0, 1], rsm: [S_0, S_3]</text>
</g>
<!-- _0_0&#45;&gt;_0_1 -->
<g id="edge7" class="edge">
<title>_0_0&#45;&gt;_0_1</title>
<path fill="none" stroke="black" d="M639.25,-1083.7C639.36,-1075.98 639.49,-1066.71 639.61,-1058.11"/>
<polygon fill="black" stroke="black" points="643.11,-1058.15 639.76,-1048.1 636.11,-1058.05 643.11,-1058.15"/>
</g>
<!-- _0_14 -->
<g id="node14" class="node">
<title>_0_14</title>
<text text-anchor="middle" x="642" y="-964.8" font-family="Times,serif" font-size="14.00">3 &#160;&#160;&#160;&#160;Intermediate input: 1, rsm: S_2, input: [0, 1]</text>
</g>
<!-- _0_1&#45;&gt;_0_14 -->
<g id="edge8" class="edge">
<title>_0_1&#45;&gt;_0_14</title>
<path fill="none" stroke="black" d="M640.58,-1011.79C640.85,-1003.77 641.17,-994.25 641.44,-986.28"/>
<polygon fill="black" stroke="black" points="644.94,-986.17 641.78,-976.06 637.95,-985.94 644.94,-986.17"/>
</g>
<!-- _0_2 -->
<g id="node3" class="node">
<title>_0_2</title>
<text text-anchor="middle" x="642" y="-841.8" font-family="Times,serif" font-size="14.00">10 &#160;&#160;&#160;&#160;Intermediate input: 1, rsm: S_1, input: [0, 1]</text>
</g>
<!-- _0_3 -->
<g id="node4" class="node">
<title>_0_3</title>
<ellipse fill="none" stroke="black" cx="221" cy="-784" rx="205.26" ry="18"/>
<text text-anchor="middle" x="221" y="-780.3" font-family="Times,serif" font-size="14.00">11 &#160;&#160;&#160;&#160;Range , input: [1, 1], rsm: [S_1, S_2]</text>
</g>
<!-- _0_2&#45;&gt;_0_3 -->
<g id="edge10" class="edge">
<title>_0_2&#45;&gt;_0_3</title>
<path fill="none" stroke="black" d="M595.74,-837.96C533.28,-829.13 419.93,-813.11 334.19,-801"/>
<polygon fill="black" stroke="black" points="334.53,-797.51 324.14,-799.58 333.55,-804.44 334.53,-797.51"/>
</g>
<!-- _0_15 -->
<g id="node15" class="node">
<title>_0_15</title>
<ellipse fill="none" stroke="black" cx="644" cy="-784" rx="199.56" ry="18"/>
<text text-anchor="middle" x="644" y="-780.3" font-family="Times,serif" font-size="14.00">4 &#160;&#160;&#160;&#160;Range , input: [0, 1], rsm: [S_0, S_1]</text>
</g>
<!-- _0_2&#45;&gt;_0_15 -->
<g id="edge9" class="edge">
<title>_0_2&#45;&gt;_0_15</title>
<path fill="none" stroke="black" d="M642.23,-837.67C642.44,-831.42 642.77,-821.74 643.08,-812.37"/>
<polygon fill="black" stroke="black" points="646.59,-812.24 643.42,-802.13 639.59,-812 646.59,-812.24"/>
</g>
<!-- _0_4 -->
<g id="node5" class="node">
<title>_0_4</title>
<polygon fill="none" stroke="black" points="112.67,-694 385.33,-694 482.43,-730 15.57,-730 112.67,-694"/>
<text text-anchor="middle" x="249" y="-708.3" font-family="Times,serif" font-size="14.00">12 &#160;&#160;&#160;&#160;Nonterminal S, input: [1, 1]</text>
</g>
<!-- _0_3&#45;&gt;_0_4 -->
<g id="edge11" class="edge">
<title>_0_3&#45;&gt;_0_4</title>
<path fill="none" stroke="black" d="M227.92,-765.7C231.07,-757.81 234.88,-748.3 238.38,-739.55"/>
<polygon fill="black" stroke="black" points="241.69,-740.69 242.16,-730.1 235.19,-738.09 241.69,-740.69"/>
</g>
<!-- _0_5 -->
<g id="node6" class="node">
<title>_0_5</title>
<ellipse fill="none" stroke="black" cx="249" cy="-640" rx="205.26" ry="18"/>
<text text-anchor="middle" x="249" y="-636.3" font-family="Times,serif" font-size="14.00">13 &#160;&#160;&#160;&#160;Range , input: [1, 1], rsm: [S_0, S_3]</text>
</g>
<!-- _0_4&#45;&gt;_0_5 -->
<g id="edge12" class="edge">
<title>_0_4&#45;&gt;_0_5</title>
<path fill="none" stroke="black" d="M249,-693.7C249,-685.98 249,-676.71 249,-668.11"/>
<polygon fill="black" stroke="black" points="252.5,-668.1 249,-658.1 245.5,-668.1 252.5,-668.1"/>
</g>
<!-- _0_6 -->
<g id="node7" class="node">
<title>_0_6</title>
<text text-anchor="middle" x="249" y="-574.8" font-family="Times,serif" font-size="14.00">14 &#160;&#160;&#160;&#160;Intermediate input: 1, rsm: S_2, input: [1, 1]</text>
</g>
<!-- _0_5&#45;&gt;_0_6 -->
<g id="edge13" class="edge">
<title>_0_5&#45;&gt;_0_6</title>
<path fill="none" stroke="black" d="M249,-621.79C249,-613.77 249,-604.25 249,-596.28"/>
<polygon fill="black" stroke="black" points="252.5,-596.06 249,-586.06 245.5,-596.06 252.5,-596.06"/>
</g>
<!-- _0_7 -->
<g id="node8" class="node">
<title>_0_7</title>
<ellipse fill="none" stroke="black" cx="241" cy="-517" rx="205.26" ry="18"/>
<text text-anchor="middle" x="241" y="-513.3" font-family="Times,serif" font-size="14.00">15 &#160;&#160;&#160;&#160;Range , input: [1, 1], rsm: [S_0, S_2]</text>
</g>
<!-- _0_6&#45;&gt;_0_7 -->
<g id="edge14" class="edge">
<title>_0_6&#45;&gt;_0_7</title>
<path fill="none" stroke="black" d="M248.08,-570.67C247.23,-564.35 245.91,-554.53 244.64,-545.07"/>
<polygon fill="black" stroke="black" points="248.1,-544.57 243.3,-535.13 241.17,-545.5 248.1,-544.57"/>
</g>
<!-- _0_18 -->
<g id="node17" class="node">
<title>_0_18</title>
<ellipse fill="none" stroke="black" cx="664" cy="-517" rx="199.56" ry="18"/>
<text text-anchor="middle" x="664" y="-513.3" font-family="Times,serif" font-size="14.00">7 &#160;&#160;&#160;&#160;Range , input: [1, 1], rsm: [S_2, S_3]</text>
</g>
<!-- _0_6&#45;&gt;_0_18 -->
<g id="edge15" class="edge">
<title>_0_6&#45;&gt;_0_18</title>
<path fill="none" stroke="black" d="M294.6,-570.96C356.27,-562.12 468.28,-546.06 552.84,-533.94"/>
<polygon fill="black" stroke="black" points="553.35,-537.4 562.75,-532.52 552.36,-530.47 553.35,-537.4"/>
</g>
<!-- _0_8 -->
<g id="node9" class="node">
<title>_0_8</title>
<text text-anchor="middle" x="241" y="-441.3" font-family="Times,serif" font-size="14.00">16 &#160;&#160;&#160;&#160;Intermediate input: 0, rsm: S_1, input: [1, 1]</text>
</g>
<!-- _0_7&#45;&gt;_0_8 -->
<g id="edge16" class="edge">
<title>_0_7&#45;&gt;_0_8</title>
<path fill="none" stroke="black" d="M241,-498.7C241,-487.76 241,-473.68 241,-462.83"/>
<polygon fill="black" stroke="black" points="244.5,-462.62 241,-452.62 237.5,-462.62 244.5,-462.62"/>
</g>
<!-- _0_9 -->
<g id="node10" class="node">
<title>_0_9</title>
<ellipse fill="none" stroke="black" cx="221" cy="-373" rx="205.26" ry="18"/>
<text text-anchor="middle" x="221" y="-369.3" font-family="Times,serif" font-size="14.00">17 &#160;&#160;&#160;&#160;Range , input: [1, 0], rsm: [S_0, S_1]</text>
</g>
<!-- _0_8&#45;&gt;_0_9 -->
<g id="edge17" class="edge">
<title>_0_8&#45;&gt;_0_9</title>
<path fill="none" stroke="black" d="M239.08,-437.29C236.68,-428.89 232.43,-414 228.65,-400.77"/>
<polygon fill="black" stroke="black" points="232,-399.77 225.89,-391.12 225.27,-401.69 232,-399.77"/>
</g>
<!-- _0_10 -->
<g id="node11" class="node">
<title>_0_10</title>
<ellipse fill="none" stroke="black" cx="650" cy="-373" rx="205.26" ry="18"/>
<text text-anchor="middle" x="650" y="-369.3" font-family="Times,serif" font-size="14.00">18 &#160;&#160;&#160;&#160;Range , input: [0, 1], rsm: [S_1, S_2]</text>
</g>
<!-- _0_8&#45;&gt;_0_10 -->
<g id="edge18" class="edge">
<title>_0_8&#45;&gt;_0_10</title>
<path fill="none" stroke="black" d="M279.11,-437.48C340.5,-426.97 463.24,-405.96 550.7,-390.99"/>
<polygon fill="black" stroke="black" points="551.39,-394.43 560.65,-389.29 550.21,-387.53 551.39,-394.43"/>
</g>
<!-- _0_11 -->
<g id="node12" class="node">
<title>_0_11</title>
<polygon fill="none" stroke="red" points="337.5,-319 104.5,-319 104.5,-283 337.5,-283 337.5,-319"/>
<text text-anchor="middle" x="221" y="-297.3" font-family="Times,serif" font-size="14.00">19 &#160;&#160;&#160;&#160;Terminal &#39;a&#39;, input: [1, 0]</text>
</g>
<!-- _0_9&#45;&gt;_0_11 -->
<g id="edge19" class="edge">
<title>_0_9&#45;&gt;_0_11</title>
<path fill="none" stroke="black" d="M221,-354.7C221,-346.98 221,-337.71 221,-329.11"/>
<polygon fill="black" stroke="black" points="224.5,-329.1 221,-319.1 217.5,-329.1 224.5,-329.1"/>
</g>
<!-- _0_13 -->
<g id="node13" class="node">
<title>_0_13</title>
<polygon fill="none" stroke="green" points="494.67,-283 767.33,-283 864.43,-319 397.57,-319 494.67,-283"/>
<text text-anchor="middle" x="631" y="-297.3" font-family="Times,serif" font-size="14.00">20 &#160;&#160;&#160;&#160;Nonterminal S, input: [0, 1]</text>
</g>
<!-- _0_10&#45;&gt;_0_13 -->
<g id="edge20" class="edge">
<title>_0_10&#45;&gt;_0_13</title>
<path fill="none" stroke="black" d="M645.3,-354.7C643.19,-346.9 640.64,-337.51 638.28,-328.83"/>
<polygon fill="black" stroke="black" points="641.64,-327.84 635.64,-319.1 634.88,-329.67 641.64,-327.84"/>
</g>
<!-- _0_21 -->
<g id="node20" class="node">
<title>_0_21</title>
<ellipse fill="none" stroke="black" cx="631" cy="-229" rx="205.26" ry="18"/>
<text text-anchor="middle" x="631" y="-225.3" font-family="Times,serif" font-size="14.00">21 &#160;&#160;&#160;&#160;Range , input: [0, 1], rsm: [S_0, S_3]</text>
</g>
<!-- _0_13&#45;&gt;_0_21 -->
<g id="edge1" class="edge">
<title>_0_13&#45;&gt;_0_21</title>
<path fill="none" stroke="black" d="M631,-282.7C631,-274.98 631,-265.71 631,-257.11"/>
<polygon fill="black" stroke="black" points="634.5,-257.1 631,-247.1 627.5,-257.1 634.5,-257.1"/>
</g>
<!-- _0_17 -->
<g id="node16" class="node">
<title>_0_17</title>
<ellipse fill="none" stroke="black" cx="642" cy="-907" rx="199.56" ry="18"/>
<text text-anchor="middle" x="642" y="-903.3" font-family="Times,serif" font-size="14.00">6 &#160;&#160;&#160;&#160;Range , input: [0, 1], rsm: [S_0, S_2]</text>
</g>
<!-- _0_14&#45;&gt;_0_17 -->
<g id="edge21" class="edge">
<title>_0_14&#45;&gt;_0_17</title>
<path fill="none" stroke="black" d="M642,-960.67C642,-954.42 642,-944.74 642,-935.37"/>
<polygon fill="black" stroke="black" points="645.5,-935.13 642,-925.13 638.5,-935.13 645.5,-935.13"/>
</g>
<!-- _0_14&#45;&gt;_0_18 -->
<g id="edge22" class="edge">
<title>_0_14&#45;&gt;_0_18</title>
<path fill="none" stroke="black" d="M719.19,-960.98C770.99,-954.95 832.93,-943.97 851,-925 875.34,-899.44 863,-881.79 863,-846.5 863,-846.5 863,-846.5 863,-639 863,-583.9 806.61,-553.18 753.87,-536.49"/>
<polygon fill="black" stroke="black" points="754.67,-533.07 744.08,-533.53 752.64,-539.77 754.67,-533.07"/>
</g>
<!-- _0_19 -->
<g id="node18" class="node">
<title>_0_19</title>
<polygon fill="none" stroke="red" points="756,-730 532,-730 532,-694 756,-694 756,-730"/>
<text text-anchor="middle" x="644" y="-708.3" font-family="Times,serif" font-size="14.00">8 &#160;&#160;&#160;&#160;Terminal &#39;a&#39;, input: [0, 1]</text>
</g>
<!-- _0_15&#45;&gt;_0_19 -->
<g id="edge23" class="edge">
<title>_0_15&#45;&gt;_0_19</title>
<path fill="none" stroke="black" d="M644,-765.7C644,-757.98 644,-748.71 644,-740.11"/>
<polygon fill="black" stroke="black" points="647.5,-740.1 644,-730.1 640.5,-740.1 647.5,-740.1"/>
</g>
<!-- _0_17&#45;&gt;_0_2 -->
<g id="edge24" class="edge">
<title>_0_17&#45;&gt;_0_2</title>
<path fill="none" stroke="black" d="M642,-888.79C642,-880.77 642,-871.25 642,-863.28"/>
<polygon fill="black" stroke="black" points="645.5,-863.06 642,-853.06 638.5,-863.06 645.5,-863.06"/>
</g>
<!-- _0_20 -->
<g id="node19" class="node">
<title>_0_20</title>
<polygon fill="none" stroke="red" points="776.5,-463 551.5,-463 551.5,-427 776.5,-427 776.5,-463"/>
<text text-anchor="middle" x="664" y="-441.3" font-family="Times,serif" font-size="14.00">9 &#160;&#160;&#160;&#160;Terminal &#39;b&#39;, input: [1, 1]</text>
</g>
<!-- _0_18&#45;&gt;_0_20 -->
<g id="edge25" class="edge">
<title>_0_18&#45;&gt;_0_20</title>
<path fill="none" stroke="black" d="M664,-498.7C664,-490.98 664,-481.71 664,-473.11"/>
<polygon fill="black" stroke="black" points="667.5,-473.1 664,-463.1 660.5,-473.1 667.5,-473.1"/>
</g>
<!-- _0_22 -->
<g id="node21" class="node">
<title>_0_22</title>
<text text-anchor="middle" x="631" y="-163.8" font-family="Times,serif" font-size="14.00">22 &#160;&#160;&#160;&#160;Intermediate input: 1, rsm: S_1, input: [0, 1]</text>
</g>
<!-- _0_21&#45;&gt;_0_22 -->
<g id="edge2" class="edge">
<title>_0_21&#45;&gt;_0_22</title>
<path fill="none" stroke="black" d="M631,-210.79C631,-202.77 631,-193.25 631,-185.28"/>
<polygon fill="black" stroke="black" points="634.5,-185.06 631,-175.06 627.5,-185.06 634.5,-185.06"/>
</g>
<!-- _0_23 -->
<g id="node22" class="node">
<title>_0_23</title>
<ellipse fill="none" stroke="black" cx="226" cy="-106" rx="205.26" ry="18"/>
<text text-anchor="middle" x="226" y="-102.3" font-family="Times,serif" font-size="14.00">23 &#160;&#160;&#160;&#160;Range , input: [0, 1], rsm: [S_0, S_1]</text>
</g>
<!-- _0_22&#45;&gt;_0_23 -->
<g id="edge3" class="edge">
<title>_0_22&#45;&gt;_0_23</title>
<path fill="none" stroke="black" d="M586.5,-159.96C526.77,-151.19 418.66,-135.3 336.36,-123.21"/>
<polygon fill="black" stroke="black" points="336.86,-119.75 326.46,-121.76 335.84,-126.67 336.86,-119.75"/>
</g>
<!-- _0_24 -->
<g id="node23" class="node">
<title>_0_24</title>
<ellipse fill="none" stroke="black" cx="655" cy="-106" rx="205.26" ry="18"/>
<text text-anchor="middle" x="655" y="-102.3" font-family="Times,serif" font-size="14.00">24 &#160;&#160;&#160;&#160;Range , input: [1, 1], rsm: [S_1, S_3]</text>
</g>
<!-- _0_22&#45;&gt;_0_24 -->
<g id="edge4" class="edge">
<title>_0_22&#45;&gt;_0_24</title>
<path fill="none" stroke="black" d="M633.75,-159.67C636.36,-153.22 640.44,-143.11 644.33,-133.46"/>
<polygon fill="black" stroke="black" points="647.6,-134.71 648.09,-124.13 641.1,-132.09 647.6,-134.71"/>
</g>
<!-- _0_25 -->
<g id="node24" class="node">
<title>_0_25</title>
<polygon fill="none" stroke="red" points="342.5,-52 109.5,-52 109.5,-16 342.5,-16 342.5,-52"/>
<text text-anchor="middle" x="226" y="-30.3" font-family="Times,serif" font-size="14.00">25 &#160;&#160;&#160;&#160;Terminal &#39;a&#39;, input: [0, 1]</text>
</g>
<!-- _0_23&#45;&gt;_0_25 -->
<g id="edge5" class="edge">
<title>_0_23&#45;&gt;_0_25</title>
<path fill="none" stroke="black" d="M226,-87.7C226,-79.98 226,-70.71 226,-62.11"/>
<polygon fill="black" stroke="black" points="229.5,-62.1 226,-52.1 222.5,-62.1 229.5,-62.1"/>
</g>
<!-- _0_26 -->
<g id="node25" class="node">
<title>_0_26</title>
<polygon fill="none" stroke="red" points="772,-52 538,-52 538,-16 772,-16 772,-52"/>
<text text-anchor="middle" x="655" y="-30.3" font-family="Times,serif" font-size="14.00">26 &#160;&#160;&#160;&#160;Terminal &#39;b&#39;, input: [1, 1]</text>
</g>
<!-- _0_24&#45;&gt;_0_26 -->
<g id="edge6" class="edge">
<title>_0_24&#45;&gt;_0_26</title>
<path fill="none" stroke="black" d="M655,-87.7C655,-79.98 655,-70.71 655,-62.11"/>
<polygon fill="black" stroke="black" points="658.5,-62.1 655,-52.1 651.5,-62.1 658.5,-62.1"/>
</g>
</g>
</svg>
