<?xml version="1.0" encoding="UTF-8" standalone="no"?>
<!DOCTYPE svg PUBLIC "-//W3C//DTD SVG 1.1//EN"
 "http://www.w3.org/Graphics/SVG/1.1/DTD/svg11.dtd">
<!-- Generated by graphviz version 2.43.0 (0)
 -->
<!-- Title: g Pages: 1 -->
<svg width="1294pt" height="754pt"
 viewBox="0.00 0.00 1294.00 754.00" xmlns="http://www.w3.org/2000/svg" xmlns:xlink="http://www.w3.org/1999/xlink">
<g id="graph0" class="graph" transform="scale(1 1) rotate(0) translate(4 750)">
<title>g</title>
<polygon fill="white" stroke="transparent" points="-4,4 -4,-750 1290,-750 1290,4 -4,4"/>
<g id="clust1" class="cluster">
<title>cluster_0</title>
<polygon fill="none" stroke="black" points="8,-8 8,-738 1278,-738 1278,-8 8,-8"/>
</g>
<!-- _0_0 -->
<g id="node1" class="node">
<title>_0_0</title>
<polygon fill="none" stroke="black" points="315.37,-694 578.63,-694 672.39,-730 221.61,-730 315.37,-694"/>
<text text-anchor="middle" x="447" y="-708.3" font-family="Times,serif" font-size="14.00">0 &#160;&#160;&#160;&#160;Nonterminal S, input: [0, 2]</text>
</g>
<!-- _0_1 -->
<g id="node2" class="node">
<title>_0_1</title>
<ellipse fill="none" stroke="black" cx="447" cy="-640" rx="199.56" ry="18"/>
<text text-anchor="middle" x="447" y="-636.3" font-family="Times,serif" font-size="14.00">1 &#160;&#160;&#160;&#160;Range , input: [0, 2], rsm: [S_0, S_3]</text>
</g>
<!-- _0_0&#45;&gt;_0_1 -->
<g id="edge1" class="edge">
<title>_0_0&#45;&gt;_0_1</title>
<path fill="none" stroke="black" d="M447,-693.7C447,-685.98 447,-676.71 447,-668.11"/>
<polygon fill="black" stroke="black" points="450.5,-668.1 447,-658.1 443.5,-668.1 450.5,-668.1"/>
</g>
<!-- _0_11 -->
<g id="node12" class="node">
<title>_0_11</title>
<text text-anchor="middle" x="236" y="-574.8" font-family="Times,serif" font-size="14.00">2 &#160;&#160;&#160;&#160;Intermediate input: 1, rsm: S_1, input: [0, 2]</text>
</g>
<!-- _0_1&#45;&gt;_0_11 -->
<g id="edge2" class="edge">
<title>_0_1&#45;&gt;_0_11</title>
<path fill="none" stroke="black" d="M389.34,-622.74C350.7,-611.84 301.19,-597.88 269.04,-588.82"/>
<polygon fill="black" stroke="black" points="269.82,-585.4 259.25,-586.06 267.92,-592.14 269.82,-585.4"/>
</g>
<!-- _0_12 -->
<g id="node13" class="node">
<title>_0_12</title>
<text text-anchor="middle" x="653" y="-574.8" font-family="Times,serif" font-size="14.00">3 &#160;&#160;&#160;&#160;Intermediate input: 1, rsm: S_2, input: [0, 2]</text>
</g>
<!-- _0_1&#45;&gt;_0_12 -->
<g id="edge3" class="edge">
<title>_0_1&#45;&gt;_0_12</title>
<path fill="none" stroke="black" d="M503.56,-622.66C541.12,-611.81 589.11,-597.95 620.42,-588.91"/>
<polygon fill="black" stroke="black" points="621.73,-592.18 630.37,-586.04 619.79,-585.45 621.73,-592.18"/>
</g>
<!-- _0_2 -->
<g id="node3" class="node">
<title>_0_2</title>
<text text-anchor="middle" x="937" y="-441.3" font-family="Times,serif" font-size="14.00">10 &#160;&#160;&#160;&#160;Intermediate input: 1, rsm: S_1, input: [0, 1]</text>
</g>
<!-- _0_3 -->
<g id="node4" class="node">
<title>_0_3</title>
<ellipse fill="none" stroke="black" cx="937" cy="-373" rx="205.26" ry="18"/>
<text text-anchor="middle" x="937" y="-369.3" font-family="Times,serif" font-size="14.00">11 &#160;&#160;&#160;&#160;Range , input: [1, 1], rsm: [S_1, S_2]</text>
</g>
<!-- _0_2&#45;&gt;_0_3 -->
<g id="edge5" class="edge">
<title>_0_2&#45;&gt;_0_3</title>
<path fill="none" stroke="black" d="M937,-437.29C937,-428.97 937,-414.29 937,-401.16"/>
<polygon fill="black" stroke="black" points="940.5,-401.12 937,-391.12 933.5,-401.12 940.5,-401.12"/>
</g>
<!-- _0_13 -->
<g id="node14" class="node">
<title>_0_13</title>
<ellipse fill="none" stroke="black" cx="415" cy="-373" rx="199.56" ry="18"/>
<text text-anchor="middle" x="415" y="-369.3" font-family="Times,serif" font-size="14.00">4 &#160;&#160;&#160;&#160;Range , input: [0, 1], rsm: [S_0, S_1]</text>
</g>
<!-- _0_2&#45;&gt;_0_13 -->
<g id="edge4" class="edge">
<title>_0_2&#45;&gt;_0_13</title>
<path fill="none" stroke="black" d="M888.36,-437.48C807.53,-426.64 643.37,-404.62 531.28,-389.59"/>
<polygon fill="black" stroke="black" points="531.65,-386.11 521.27,-388.25 530.72,-393.05 531.65,-386.11"/>
</g>
<!-- _0_4 -->
<g id="node5" class="node">
<title>_0_4</title>
<polygon fill="none" stroke="green" points="800.67,-283 1073.33,-283 1170.43,-319 703.57,-319 800.67,-283"/>
<text text-anchor="middle" x="937" y="-297.3" font-family="Times,serif" font-size="14.00">12 &#160;&#160;&#160;&#160;Nonterminal S, input: [1, 1]</text>
</g>
<!-- _0_3&#45;&gt;_0_4 -->
<g id="edge6" class="edge">
<title>_0_3&#45;&gt;_0_4</title>
<path fill="none" stroke="black" d="M937,-354.7C937,-346.98 937,-337.71 937,-329.11"/>
<polygon fill="black" stroke="black" points="940.5,-329.1 937,-319.1 933.5,-329.1 940.5,-329.1"/>
</g>
<!-- _0_5 -->
<g id="node6" class="node">
<title>_0_5</title>
<ellipse fill="none" stroke="black" cx="937" cy="-229" rx="205.26" ry="18"/>
<text text-anchor="middle" x="937" y="-225.3" font-family="Times,serif" font-size="14.00">13 &#160;&#160;&#160;&#160;Range , input: [1, 1], rsm: [S_0, S_3]</text>
</g>
<!-- _0_4&#45;&gt;_0_5 -->
<g id="edge7" class="edge">
<title>_0_4&#45;&gt;_0_5</title>
<path fill="none" stroke="black" d="M937,-282.7C937,-274.98 937,-265.71 937,-257.11"/>
<polygon fill="black" stroke="black" points="940.5,-257.1 937,-247.1 933.5,-257.1 940.5,-257.1"/>
</g>
<!-- _0_6 -->
<g id="node7" class="node">
<title>_0_6</title>
<text text-anchor="middle" x="937" y="-163.8" font-family="Times,serif" font-size="14.00">14 &#160;&#160;&#160;&#160;Intermediate input: 2, rsm: S_1, input: [1, 1]</text>
</g>
<!-- _0_5&#45;&gt;_0_6 -->
<g id="edge8" class="edge">
<title>_0_5&#45;&gt;_0_6</title>
<path fill="none" stroke="black" d="M937,-210.79C937,-202.77 937,-193.25 937,-185.28"/>
<polygon fill="black" stroke="black" points="940.5,-185.06 937,-175.06 933.5,-185.06 940.5,-185.06"/>
</g>
<!-- _0_7 -->
<g id="node8" class="node">
<title>_0_7</title>
<ellipse fill="none" stroke="black" cx="572" cy="-106" rx="205.26" ry="18"/>
<text text-anchor="middle" x="572" y="-102.3" font-family="Times,serif" font-size="14.00">15 &#160;&#160;&#160;&#160;Range , input: [1, 2], rsm: [S_0, S_1]</text>
</g>
<!-- _0_6&#45;&gt;_0_7 -->
<g id="edge9" class="edge">
<title>_0_6&#45;&gt;_0_7</title>
<path fill="none" stroke="black" d="M896.89,-159.96C843.92,-151.33 748.73,-135.81 675.03,-123.8"/>
<polygon fill="black" stroke="black" points="675.21,-120.28 664.78,-122.12 674.08,-127.19 675.21,-120.28"/>
</g>
<!-- _0_8 -->
<g id="node9" class="node">
<title>_0_8</title>
<ellipse fill="none" stroke="black" cx="1001" cy="-106" rx="205.26" ry="18"/>
<text text-anchor="middle" x="1001" y="-102.3" font-family="Times,serif" font-size="14.00">16 &#160;&#160;&#160;&#160;Range , input: [2, 1], rsm: [S_1, S_3]</text>
</g>
<!-- _0_6&#45;&gt;_0_8 -->
<g id="edge10" class="edge">
<title>_0_6&#45;&gt;_0_8</title>
<path fill="none" stroke="black" d="M944.34,-159.67C951.86,-152.68 964,-141.4 975.12,-131.06"/>
<polygon fill="black" stroke="black" points="977.64,-133.5 982.58,-124.13 972.87,-128.37 977.64,-133.5"/>
</g>
<!-- _0_9 -->
<g id="node10" class="node">
<title>_0_9</title>
<polygon fill="none" stroke="red" points="688.5,-52 455.5,-52 455.5,-16 688.5,-16 688.5,-52"/>
<text text-anchor="middle" x="572" y="-30.3" font-family="Times,serif" font-size="14.00">17 &#160;&#160;&#160;&#160;Terminal &#39;a&#39;, input: [1, 2]</text>
</g>
<!-- _0_7&#45;&gt;_0_9 -->
<g id="edge11" class="edge">
<title>_0_7&#45;&gt;_0_9</title>
<path fill="none" stroke="black" d="M572,-87.7C572,-79.98 572,-70.71 572,-62.11"/>
<polygon fill="black" stroke="black" points="575.5,-62.1 572,-52.1 568.5,-62.1 575.5,-62.1"/>
</g>
<!-- _0_10 -->
<g id="node11" class="node">
<title>_0_10</title>
<polygon fill="none" stroke="red" points="1118,-52 884,-52 884,-16 1118,-16 1118,-52"/>
<text text-anchor="middle" x="1001" y="-30.3" font-family="Times,serif" font-size="14.00">18 &#160;&#160;&#160;&#160;Terminal &#39;b&#39;, input: [2, 1]</text>
</g>
<!-- _0_8&#45;&gt;_0_10 -->
<g id="edge12" class="edge">
<title>_0_8&#45;&gt;_0_10</title>
<path fill="none" stroke="black" d="M1001,-87.7C1001,-79.98 1001,-70.71 1001,-62.11"/>
<polygon fill="black" stroke="black" points="1004.5,-62.1 1001,-52.1 997.5,-62.1 1004.5,-62.1"/>
</g>
<!-- _0_11&#45;&gt;_0_13 -->
<g id="edge13" class="edge">
<title>_0_11&#45;&gt;_0_13</title>
<path fill="none" stroke="black" d="M128.24,-571C61.73,-562.57 -5.24,-543.25 27,-499 61.87,-451.14 216.96,-412.43 320.19,-391.37"/>
<polygon fill="black" stroke="black" points="320.9,-394.79 330.01,-389.38 319.52,-387.93 320.9,-394.79"/>
</g>
<!-- _0_14 -->
<g id="node15" class="node">
<title>_0_14</title>
<ellipse fill="none" stroke="black" cx="236" cy="-517" rx="199.56" ry="18"/>
<text text-anchor="middle" x="236" y="-513.3" font-family="Times,serif" font-size="14.00">5 &#160;&#160;&#160;&#160;Range , input: [1, 2], rsm: [S_1, S_3]</text>
</g>
<!-- _0_11&#45;&gt;_0_14 -->
<g id="edge14" class="edge">
<title>_0_11&#45;&gt;_0_14</title>
<path fill="none" stroke="black" d="M236,-570.67C236,-564.42 236,-554.74 236,-545.37"/>
<polygon fill="black" stroke="black" points="239.5,-545.13 236,-535.13 232.5,-545.13 239.5,-545.13"/>
</g>
<!-- _0_15 -->
<g id="node16" class="node">
<title>_0_15</title>
<ellipse fill="none" stroke="black" cx="1070" cy="-517" rx="199.56" ry="18"/>
<text text-anchor="middle" x="1070" y="-513.3" font-family="Times,serif" font-size="14.00">6 &#160;&#160;&#160;&#160;Range , input: [0, 1], rsm: [S_0, S_2]</text>
</g>
<!-- _0_12&#45;&gt;_0_15 -->
<g id="edge15" class="edge">
<title>_0_12&#45;&gt;_0_15</title>
<path fill="none" stroke="black" d="M698.82,-570.96C760.79,-562.12 873.33,-546.06 958.31,-533.94"/>
<polygon fill="black" stroke="black" points="958.86,-537.39 968.26,-532.52 957.87,-530.46 958.86,-537.39"/>
</g>
<!-- _0_16 -->
<g id="node17" class="node">
<title>_0_16</title>
<ellipse fill="none" stroke="black" cx="653" cy="-517" rx="199.56" ry="18"/>
<text text-anchor="middle" x="653" y="-513.3" font-family="Times,serif" font-size="14.00">7 &#160;&#160;&#160;&#160;Range , input: [1, 2], rsm: [S_2, S_3]</text>
</g>
<!-- _0_12&#45;&gt;_0_16 -->
<g id="edge16" class="edge">
<title>_0_12&#45;&gt;_0_16</title>
<path fill="none" stroke="black" d="M653,-570.67C653,-564.42 653,-554.74 653,-545.37"/>
<polygon fill="black" stroke="black" points="656.5,-545.13 653,-535.13 649.5,-545.13 656.5,-545.13"/>
</g>
<!-- _0_17 -->
<g id="node18" class="node">
<title>_0_17</title>
<polygon fill="none" stroke="red" points="527,-319 303,-319 303,-283 527,-283 527,-319"/>
<text text-anchor="middle" x="415" y="-297.3" font-family="Times,serif" font-size="14.00">8 &#160;&#160;&#160;&#160;Terminal &#39;a&#39;, input: [0, 1]</text>
</g>
<!-- _0_13&#45;&gt;_0_17 -->
<g id="edge17" class="edge">
<title>_0_13&#45;&gt;_0_17</title>
<path fill="none" stroke="black" d="M415,-354.7C415,-346.98 415,-337.71 415,-329.11"/>
<polygon fill="black" stroke="black" points="418.5,-329.1 415,-319.1 411.5,-329.1 418.5,-329.1"/>
</g>
<!-- _0_18 -->
<g id="node19" class="node">
<title>_0_18</title>
<polygon fill="none" stroke="red" points="543.5,-463 318.5,-463 318.5,-427 543.5,-427 543.5,-463"/>
<text text-anchor="middle" x="431" y="-441.3" font-family="Times,serif" font-size="14.00">9 &#160;&#160;&#160;&#160;Terminal &#39;b&#39;, input: [1, 2]</text>
</g>
<!-- _0_14&#45;&gt;_0_18 -->
<g id="edge18" class="edge">
<title>_0_14&#45;&gt;_0_18</title>
<path fill="none" stroke="black" d="M282.21,-499.41C309.63,-489.57 344.62,-477.01 373.78,-466.54"/>
<polygon fill="black" stroke="black" points="375.19,-469.75 383.42,-463.08 372.83,-463.16 375.19,-469.75"/>
</g>
<!-- _0_15&#45;&gt;_0_2 -->
<g id="edge19" class="edge">
<title>_0_15&#45;&gt;_0_2</title>
<path fill="none" stroke="black" d="M1037.8,-499.05C1013.14,-486.07 979.8,-468.53 958.34,-457.23"/>
<polygon fill="black" stroke="black" points="959.88,-454.08 949.4,-452.52 956.62,-460.28 959.88,-454.08"/>
</g>
<!-- _0_16&#45;&gt;_0_18 -->
<g id="edge20" class="edge">
<title>_0_16&#45;&gt;_0_18</title>
<path fill="none" stroke="black" d="M600.95,-499.59C569.22,-489.58 528.45,-476.73 494.79,-466.11"/>
<polygon fill="black" stroke="black" points="495.63,-462.71 485.04,-463.04 493.53,-469.39 495.63,-462.71"/>
</g>
</g>
</svg>
