<?xml version="1.0" encoding="UTF-8" standalone="no"?>
<!DOCTYPE svg PUBLIC "-//W3C//DTD SVG 1.1//EN"
 "http://www.w3.org/Graphics/SVG/1.1/DTD/svg11.dtd">
<!-- Generated by graphviz version 2.43.0 (0)
 -->
<!-- Title: g Pages: 1 -->
<svg width="928pt" height="877pt"
 viewBox="0.00 0.00 928.00 877.00" xmlns="http://www.w3.org/2000/svg" xmlns:xlink="http://www.w3.org/1999/xlink">
<g id="graph0" class="graph" transform="scale(1 1) rotate(0) translate(4 873)">
<title>g</title>
<polygon fill="white" stroke="transparent" points="-4,4 -4,-873 924,-873 924,4 -4,4"/>
<g id="clust1" class="cluster">
<title>cluster_0</title>
<polygon fill="none" stroke="black" points="8,-8 8,-861 912,-861 912,-8 8,-8"/>
</g>
<!-- _0_0 -->
<g id="node1" class="node">
<title>_0_0</title>
<polygon fill="none" stroke="black" points="539.37,-817 802.63,-817 896.39,-853 445.61,-853 539.37,-817"/>
<text text-anchor="middle" x="671" y="-831.3" font-family="Times,serif" font-size="14.00">0 &#160;&#160;&#160;&#160;Nonterminal S, input: [0, 1]</text>
</g>
<!-- _0_1 -->
<g id="node2" class="node">
<title>_0_1</title>
<ellipse fill="none" stroke="black" cx="671" cy="-763" rx="199.56" ry="18"/>
<text text-anchor="middle" x="671" y="-759.3" font-family="Times,serif" font-size="14.00">1 &#160;&#160;&#160;&#160;Range , input: [0, 1], rsm: [S_0, S_3]</text>
</g>
<!-- _0_0&#45;&gt;_0_1 -->
<g id="edge1" class="edge">
<title>_0_0&#45;&gt;_0_1</title>
<path fill="none" stroke="black" d="M671,-816.7C671,-808.98 671,-799.71 671,-791.11"/>
<polygon fill="black" stroke="black" points="674.5,-791.1 671,-781.1 667.5,-791.1 674.5,-791.1"/>
</g>
<!-- _0_12 -->
<g id="node13" class="node">
<title>_0_12</title>
<text text-anchor="middle" x="671" y="-574.8" font-family="Times,serif" font-size="14.00">2 &#160;&#160;&#160;&#160;Intermediate input: 1, rsm: S_1, input: [0, 1]</text>
</g>
<!-- _0_1&#45;&gt;_0_12 -->
<g id="edge2" class="edge">
<title>_0_1&#45;&gt;_0_12</title>
<path fill="none" stroke="black" d="M671,-744.83C671,-709.91 671,-630.97 671,-596.33"/>
<polygon fill="black" stroke="black" points="674.5,-596.07 671,-586.07 667.5,-596.07 674.5,-596.07"/>
</g>
<!-- _0_14 -->
<g id="node15" class="node">
<title>_0_14</title>
<text text-anchor="middle" x="445" y="-697.8" font-family="Times,serif" font-size="14.00">3 &#160;&#160;&#160;&#160;Intermediate input: 1, rsm: S_2, input: [0, 1]</text>
</g>
<!-- _0_1&#45;&gt;_0_14 -->
<g id="edge3" class="edge">
<title>_0_1&#45;&gt;_0_14</title>
<path fill="none" stroke="black" d="M609.54,-745.82C567.97,-734.87 514.54,-720.81 480.03,-711.72"/>
<polygon fill="black" stroke="black" points="480.53,-708.23 469.97,-709.07 478.75,-715 480.53,-708.23"/>
</g>
<!-- _0_2 -->
<g id="node3" class="node">
<title>_0_2</title>
<text text-anchor="middle" x="226" y="-574.8" font-family="Times,serif" font-size="14.00">10 &#160;&#160;&#160;&#160;Intermediate input: 1, rsm: S_1, input: [0, 1]</text>
</g>
<!-- _0_3 -->
<g id="node4" class="node">
<title>_0_3</title>
<ellipse fill="none" stroke="black" cx="221" cy="-517" rx="205.26" ry="18"/>
<text text-anchor="middle" x="221" y="-513.3" font-family="Times,serif" font-size="14.00">11 &#160;&#160;&#160;&#160;Range , input: [1, 1], rsm: [S_1, S_2]</text>
</g>
<!-- _0_2&#45;&gt;_0_3 -->
<g id="edge5" class="edge">
<title>_0_2&#45;&gt;_0_3</title>
<path fill="none" stroke="black" d="M225.43,-570.67C224.9,-564.42 224.09,-554.74 223.3,-545.37"/>
<polygon fill="black" stroke="black" points="226.76,-544.8 222.44,-535.13 219.79,-545.39 226.76,-544.8"/>
</g>
<!-- _0_15 -->
<g id="node16" class="node">
<title>_0_15</title>
<ellipse fill="none" stroke="black" cx="664" cy="-517" rx="199.56" ry="18"/>
<text text-anchor="middle" x="664" y="-513.3" font-family="Times,serif" font-size="14.00">4 &#160;&#160;&#160;&#160;Range , input: [0, 1], rsm: [S_0, S_1]</text>
</g>
<!-- _0_2&#45;&gt;_0_15 -->
<g id="edge4" class="edge">
<title>_0_2&#45;&gt;_0_15</title>
<path fill="none" stroke="black" d="M274.13,-570.96C339.67,-562.06 459.08,-545.84 548.54,-533.68"/>
<polygon fill="black" stroke="black" points="549.03,-537.15 558.47,-532.34 548.09,-530.21 549.03,-537.15"/>
</g>
<!-- _0_4 -->
<g id="node5" class="node">
<title>_0_4</title>
<polygon fill="none" stroke="green" points="112.67,-427 385.33,-427 482.43,-463 15.57,-463 112.67,-427"/>
<text text-anchor="middle" x="249" y="-441.3" font-family="Times,serif" font-size="14.00">12 &#160;&#160;&#160;&#160;Nonterminal S, input: [1, 1]</text>
</g>
<!-- _0_3&#45;&gt;_0_4 -->
<g id="edge6" class="edge">
<title>_0_3&#45;&gt;_0_4</title>
<path fill="none" stroke="black" d="M227.92,-498.7C231.07,-490.81 234.88,-481.3 238.38,-472.55"/>
<polygon fill="black" stroke="black" points="241.69,-473.69 242.16,-463.1 235.19,-471.09 241.69,-473.69"/>
</g>
<!-- _0_5 -->
<g id="node6" class="node">
<title>_0_5</title>
<ellipse fill="none" stroke="black" cx="241" cy="-373" rx="205.26" ry="18"/>
<text text-anchor="middle" x="241" y="-369.3" font-family="Times,serif" font-size="14.00">13 &#160;&#160;&#160;&#160;Range , input: [1, 1], rsm: [S_0, S_3]</text>
</g>
<!-- _0_4&#45;&gt;_0_5 -->
<g id="edge7" class="edge">
<title>_0_4&#45;&gt;_0_5</title>
<path fill="none" stroke="black" d="M247.02,-426.7C246.14,-418.98 245.08,-409.71 244.1,-401.11"/>
<polygon fill="black" stroke="black" points="247.57,-400.64 242.95,-391.1 240.61,-401.44 247.57,-400.64"/>
</g>
<!-- _0_6 -->
<g id="node7" class="node">
<title>_0_6</title>
<text text-anchor="middle" x="241" y="-307.8" font-family="Times,serif" font-size="14.00">14 &#160;&#160;&#160;&#160;Intermediate input: 1, rsm: S_2, input: [1, 1]</text>
</g>
<!-- _0_5&#45;&gt;_0_6 -->
<g id="edge8" class="edge">
<title>_0_5&#45;&gt;_0_6</title>
<path fill="none" stroke="black" d="M241,-354.79C241,-346.77 241,-337.25 241,-329.28"/>
<polygon fill="black" stroke="black" points="244.5,-329.06 241,-319.06 237.5,-329.06 244.5,-329.06"/>
</g>
<!-- _0_7 -->
<g id="node8" class="node">
<title>_0_7</title>
<ellipse fill="none" stroke="black" cx="221" cy="-250" rx="205.26" ry="18"/>
<text text-anchor="middle" x="221" y="-246.3" font-family="Times,serif" font-size="14.00">15 &#160;&#160;&#160;&#160;Range , input: [1, 1], rsm: [S_0, S_2]</text>
</g>
<!-- _0_6&#45;&gt;_0_7 -->
<g id="edge9" class="edge">
<title>_0_6&#45;&gt;_0_7</title>
<path fill="none" stroke="black" d="M238.71,-303.67C236.56,-297.29 233.21,-287.32 230,-277.77"/>
<polygon fill="black" stroke="black" points="233.26,-276.49 226.76,-268.13 226.63,-278.72 233.26,-276.49"/>
</g>
<!-- _0_18 -->
<g id="node19" class="node">
<title>_0_18</title>
<ellipse fill="none" stroke="black" cx="644" cy="-250" rx="199.56" ry="18"/>
<text text-anchor="middle" x="644" y="-246.3" font-family="Times,serif" font-size="14.00">7 &#160;&#160;&#160;&#160;Range , input: [1, 1], rsm: [S_2, S_3]</text>
</g>
<!-- _0_6&#45;&gt;_0_18 -->
<g id="edge10" class="edge">
<title>_0_6&#45;&gt;_0_18</title>
<path fill="none" stroke="black" d="M285.28,-303.96C344.85,-295.17 452.78,-279.23 534.75,-267.13"/>
<polygon fill="black" stroke="black" points="535.48,-270.56 544.86,-265.64 534.46,-263.64 535.48,-270.56"/>
</g>
<!-- _0_8 -->
<g id="node9" class="node">
<title>_0_8</title>
<text text-anchor="middle" x="224" y="-174.3" font-family="Times,serif" font-size="14.00">16 &#160;&#160;&#160;&#160;Intermediate input: 0, rsm: S_1, input: [1, 1]</text>
</g>
<!-- _0_7&#45;&gt;_0_8 -->
<g id="edge11" class="edge">
<title>_0_7&#45;&gt;_0_8</title>
<path fill="none" stroke="black" d="M221.74,-231.7C222.21,-220.76 222.81,-206.68 223.28,-195.83"/>
<polygon fill="black" stroke="black" points="226.78,-195.77 223.72,-185.62 219.79,-195.47 226.78,-195.77"/>
</g>
<!-- _0_9 -->
<g id="node10" class="node">
<title>_0_9</title>
<ellipse fill="none" stroke="black" cx="224" cy="-106" rx="205.26" ry="18"/>
<text text-anchor="middle" x="224" y="-102.3" font-family="Times,serif" font-size="14.00">17 &#160;&#160;&#160;&#160;Range , input: [1, 0], rsm: [S_0, S_1]</text>
</g>
<!-- _0_8&#45;&gt;_0_9 -->
<g id="edge12" class="edge">
<title>_0_8&#45;&gt;_0_9</title>
<path fill="none" stroke="black" d="M224,-170.29C224,-161.97 224,-147.29 224,-134.16"/>
<polygon fill="black" stroke="black" points="227.5,-134.12 224,-124.12 220.5,-134.12 227.5,-134.12"/>
</g>
<!-- _0_10 -->
<g id="node11" class="node">
<title>_0_10</title>
<ellipse fill="none" stroke="black" cx="663" cy="-106" rx="205.26" ry="18"/>
<text text-anchor="middle" x="663" y="-102.3" font-family="Times,serif" font-size="14.00">18 &#160;&#160;&#160;&#160;Range , input: [0, 1], rsm: [S_1, S_2]</text>
</g>
<!-- _0_8&#45;&gt;_0_10 -->
<g id="edge13" class="edge">
<title>_0_8&#45;&gt;_0_10</title>
<path fill="none" stroke="black" d="M264.91,-170.48C331.34,-159.88 464.73,-138.62 558.74,-123.62"/>
<polygon fill="black" stroke="black" points="559.53,-127.04 568.85,-122.01 558.43,-120.13 559.53,-127.04"/>
</g>
<!-- _0_11 -->
<g id="node12" class="node">
<title>_0_11</title>
<polygon fill="none" stroke="red" points="340.5,-52 107.5,-52 107.5,-16 340.5,-16 340.5,-52"/>
<text text-anchor="middle" x="224" y="-30.3" font-family="Times,serif" font-size="14.00">19 &#160;&#160;&#160;&#160;Terminal &#39;a&#39;, input: [1, 0]</text>
</g>
<!-- _0_9&#45;&gt;_0_11 -->
<g id="edge14" class="edge">
<title>_0_9&#45;&gt;_0_11</title>
<path fill="none" stroke="black" d="M224,-87.7C224,-79.98 224,-70.71 224,-62.11"/>
<polygon fill="black" stroke="black" points="227.5,-62.1 224,-52.1 220.5,-62.1 227.5,-62.1"/>
</g>
<!-- _0_13 -->
<g id="node14" class="node">
<title>_0_13</title>
<polygon fill="none" stroke="green" points="531.67,-16 804.33,-16 901.43,-52 434.57,-52 531.67,-16"/>
<text text-anchor="middle" x="668" y="-30.3" font-family="Times,serif" font-size="14.00">20 &#160;&#160;&#160;&#160;Nonterminal S, input: [0, 1]</text>
</g>
<!-- _0_10&#45;&gt;_0_13 -->
<g id="edge15" class="edge">
<title>_0_10&#45;&gt;_0_13</title>
<path fill="none" stroke="black" d="M664.24,-87.7C664.79,-79.98 665.45,-70.71 666.06,-62.11"/>
<polygon fill="black" stroke="black" points="669.56,-62.33 666.78,-52.1 662.57,-61.83 669.56,-62.33"/>
</g>
<!-- _0_12&#45;&gt;_0_15 -->
<g id="edge16" class="edge">
<title>_0_12&#45;&gt;_0_15</title>
<path fill="none" stroke="black" d="M670.2,-570.67C669.45,-564.35 668.3,-554.53 667.18,-545.07"/>
<polygon fill="black" stroke="black" points="670.66,-544.65 666.02,-535.13 663.71,-545.47 670.66,-544.65"/>
</g>
<!-- _0_16 -->
<g id="node17" class="node">
<title>_0_16</title>
<ellipse fill="none" stroke="black" cx="684" cy="-373" rx="199.56" ry="18"/>
<text text-anchor="middle" x="684" y="-369.3" font-family="Times,serif" font-size="14.00">5 &#160;&#160;&#160;&#160;Range , input: [1, 1], rsm: [S_1, S_3]</text>
</g>
<!-- _0_12&#45;&gt;_0_16 -->
<g id="edge17" class="edge">
<title>_0_12&#45;&gt;_0_16</title>
<path fill="none" stroke="black" d="M750.26,-570.97C799.94,-565.05 857.42,-554.2 873,-535 920.76,-476.14 813.72,-422.17 742.02,-394.15"/>
<polygon fill="black" stroke="black" points="743.18,-390.85 732.59,-390.54 740.67,-397.39 743.18,-390.85"/>
</g>
<!-- _0_13&#45;&gt;_0_1 -->
<g id="edge18" class="edge">
<title>_0_13&#45;&gt;_0_1</title>
<path fill="none" stroke="black" d="M774.84,-52.04C818.14,-60.95 861.58,-73.12 877,-88 906.66,-116.61 903,-135.79 903,-177 903,-641 903,-641 903,-641 903,-699.31 844.68,-729.56 786.52,-745.24"/>
<polygon fill="black" stroke="black" points="785.64,-741.85 776.82,-747.72 787.37,-748.63 785.64,-741.85"/>
</g>
<!-- _0_17 -->
<g id="node18" class="node">
<title>_0_17</title>
<ellipse fill="none" stroke="black" cx="226" cy="-640" rx="199.56" ry="18"/>
<text text-anchor="middle" x="226" y="-636.3" font-family="Times,serif" font-size="14.00">6 &#160;&#160;&#160;&#160;Range , input: [0, 1], rsm: [S_0, S_2]</text>
</g>
<!-- _0_14&#45;&gt;_0_17 -->
<g id="edge19" class="edge">
<title>_0_14&#45;&gt;_0_17</title>
<path fill="none" stroke="black" d="M420.73,-693.91C390.76,-685.76 338.52,-671.57 295.69,-659.93"/>
<polygon fill="black" stroke="black" points="296.43,-656.51 285.87,-657.26 294.6,-663.26 296.43,-656.51"/>
</g>
<!-- _0_14&#45;&gt;_0_18 -->
<g id="edge20" class="edge">
<title>_0_14&#45;&gt;_0_18</title>
<path fill="none" stroke="black" d="M443.68,-693.85C438.83,-667.62 423.76,-569.44 455,-499 464.17,-478.32 482.34,-483.91 491,-463 497.12,-448.22 494.32,-442.65 491,-427 487.37,-409.87 478.63,-408.13 475,-391 471.68,-375.35 467.2,-368.97 475,-355 497.77,-314.25 543.79,-287.5 582.07,-271.34"/>
<polygon fill="black" stroke="black" points="583.67,-274.47 591.61,-267.46 581.03,-267.99 583.67,-274.47"/>
</g>
<!-- _0_19 -->
<g id="node20" class="node">
<title>_0_19</title>
<polygon fill="none" stroke="red" points="776,-463 552,-463 552,-427 776,-427 776,-463"/>
<text text-anchor="middle" x="664" y="-441.3" font-family="Times,serif" font-size="14.00">8 &#160;&#160;&#160;&#160;Terminal &#39;a&#39;, input: [0, 1]</text>
</g>
<!-- _0_15&#45;&gt;_0_19 -->
<g id="edge21" class="edge">
<title>_0_15&#45;&gt;_0_19</title>
<path fill="none" stroke="black" d="M664,-498.7C664,-490.98 664,-481.71 664,-473.11"/>
<polygon fill="black" stroke="black" points="667.5,-473.1 664,-463.1 660.5,-473.1 667.5,-473.1"/>
</g>
<!-- _0_20 -->
<g id="node21" class="node">
<title>_0_20</title>
<polygon fill="none" stroke="red" points="819.5,-196 594.5,-196 594.5,-160 819.5,-160 819.5,-196"/>
<text text-anchor="middle" x="707" y="-174.3" font-family="Times,serif" font-size="14.00">9 &#160;&#160;&#160;&#160;Terminal &#39;b&#39;, input: [1, 1]</text>
</g>
<!-- _0_16&#45;&gt;_0_20 -->
<g id="edge22" class="edge">
<title>_0_16&#45;&gt;_0_20</title>
<path fill="none" stroke="black" d="M736.39,-355.54C776.24,-339.94 828.3,-312.21 853,-268 860.8,-254.03 862.18,-245.1 853,-232 843.23,-218.06 829.41,-207.78 814.12,-200.19"/>
<polygon fill="black" stroke="black" points="815.52,-196.98 804.97,-196.02 812.62,-203.35 815.52,-196.98"/>
</g>
<!-- _0_17&#45;&gt;_0_2 -->
<g id="edge23" class="edge">
<title>_0_17&#45;&gt;_0_2</title>
<path fill="none" stroke="black" d="M226,-621.79C226,-613.77 226,-604.25 226,-596.28"/>
<polygon fill="black" stroke="black" points="229.5,-596.06 226,-586.06 222.5,-596.06 229.5,-596.06"/>
</g>
<!-- _0_18&#45;&gt;_0_20 -->
<g id="edge24" class="edge">
<title>_0_18&#45;&gt;_0_20</title>
<path fill="none" stroke="black" d="M659.57,-231.7C667.2,-223.22 676.52,-212.86 684.88,-203.58"/>
<polygon fill="black" stroke="black" points="687.52,-205.88 691.61,-196.1 682.31,-201.2 687.52,-205.88"/>
</g>
</g>
</svg>
