<?xml version="1.0" encoding="UTF-8" standalone="no"?>
<!DOCTYPE svg PUBLIC "-//W3C//DTD SVG 1.1//EN"
 "http://www.w3.org/Graphics/SVG/1.1/DTD/svg11.dtd">
<!-- Generated by graphviz version 2.43.0 (0)
 -->
<!-- Title: g Pages: 1 -->
<svg width="879pt" height="1165pt"
 viewBox="0.00 0.00 879.00 1165.00" xmlns="http://www.w3.org/2000/svg" xmlns:xlink="http://www.w3.org/1999/xlink">
<g id="graph0" class="graph" transform="scale(1 1) rotate(0) translate(4 1161)">
<title>g</title>
<polygon fill="white" stroke="transparent" points="-4,4 -4,-1161 875,-1161 875,4 -4,4"/>
<g id="clust1" class="cluster">
<title>cluster_0</title>
<polygon fill="none" stroke="black" points="8,-8 8,-1149 863,-1149 863,-8 8,-8"/>
</g>
<!-- _0_0 -->
<g id="node1" class="node">
<title>_0_0</title>
<polygon fill="none" stroke="black" points="303.37,-1105 566.63,-1105 660.39,-1141 209.61,-1141 303.37,-1105"/>
<text text-anchor="middle" x="435" y="-1119.3" font-family="Times,serif" font-size="14.00">0 &#160;&#160;&#160;&#160;Nonterminal S, input: [0, 1]</text>
</g>
<!-- _0_1 -->
<g id="node2" class="node">
<title>_0_1</title>
<ellipse fill="none" stroke="black" cx="435" cy="-1051" rx="199.56" ry="18"/>
<text text-anchor="middle" x="435" y="-1047.3" font-family="Times,serif" font-size="14.00">1 &#160;&#160;&#160;&#160;Range , input: [0, 1], rsm: [S_0, S_3]</text>
</g>
<!-- _0_0&#45;&gt;_0_1 -->
<g id="edge7" class="edge">
<title>_0_0&#45;&gt;_0_1</title>
<path fill="none" stroke="black" d="M435,-1104.7C435,-1096.98 435,-1087.71 435,-1079.11"/>
<polygon fill="black" stroke="black" points="438.5,-1079.1 435,-1069.1 431.5,-1079.1 438.5,-1079.1"/>
</g>
<!-- _0_14 -->
<g id="node14" class="node">
<title>_0_14</title>
<text text-anchor="middle" x="435" y="-985.8" font-family="Times,serif" font-size="14.00">3 &#160;&#160;&#160;&#160;Intermediate input: 1, rsm: S_2, input: [0, 1]</text>
</g>
<!-- _0_1&#45;&gt;_0_14 -->
<g id="edge8" class="edge">
<title>_0_1&#45;&gt;_0_14</title>
<path fill="none" stroke="black" d="M435,-1032.79C435,-1024.77 435,-1015.25 435,-1007.28"/>
<polygon fill="black" stroke="black" points="438.5,-1007.06 435,-997.06 431.5,-1007.06 438.5,-1007.06"/>
</g>
<!-- _0_2 -->
<g id="node3" class="node">
<title>_0_2</title>
<text text-anchor="middle" x="229" y="-852.3" font-family="Times,serif" font-size="14.00">10 &#160;&#160;&#160;&#160;Intermediate input: 1, rsm: S_1, input: [0, 1]</text>
</g>
<!-- _0_3 -->
<g id="node4" class="node">
<title>_0_3</title>
<ellipse fill="none" stroke="black" cx="229" cy="-784" rx="205.26" ry="18"/>
<text text-anchor="middle" x="229" y="-780.3" font-family="Times,serif" font-size="14.00">11 &#160;&#160;&#160;&#160;Range , input: [1, 1], rsm: [S_1, S_2]</text>
</g>
<!-- _0_2&#45;&gt;_0_3 -->
<g id="edge10" class="edge">
<title>_0_2&#45;&gt;_0_3</title>
<path fill="none" stroke="black" d="M229,-848.29C229,-839.97 229,-825.29 229,-812.16"/>
<polygon fill="black" stroke="black" points="232.5,-812.12 229,-802.12 225.5,-812.12 232.5,-812.12"/>
</g>
<!-- _0_15 -->
<g id="node15" class="node">
<title>_0_15</title>
<ellipse fill="none" stroke="black" cx="652" cy="-784" rx="199.56" ry="18"/>
<text text-anchor="middle" x="652" y="-780.3" font-family="Times,serif" font-size="14.00">4 &#160;&#160;&#160;&#160;Range , input: [0, 1], rsm: [S_0, S_1]</text>
</g>
<!-- _0_2&#45;&gt;_0_15 -->
<g id="edge9" class="edge">
<title>_0_2&#45;&gt;_0_15</title>
<path fill="none" stroke="black" d="M268.41,-848.48C332.27,-837.91 460.29,-816.72 550.84,-801.74"/>
<polygon fill="black" stroke="black" points="551.57,-805.17 560.86,-800.08 550.43,-798.26 551.57,-805.17"/>
</g>
<!-- _0_4 -->
<g id="node5" class="node">
<title>_0_4</title>
<polygon fill="none" stroke="green" points="112.67,-694 385.33,-694 482.43,-730 15.57,-730 112.67,-694"/>
<text text-anchor="middle" x="249" y="-708.3" font-family="Times,serif" font-size="14.00">12 &#160;&#160;&#160;&#160;Nonterminal S, input: [1, 1]</text>
</g>
<!-- _0_3&#45;&gt;_0_4 -->
<g id="edge11" class="edge">
<title>_0_3&#45;&gt;_0_4</title>
<path fill="none" stroke="black" d="M233.94,-765.7C236.17,-757.9 238.85,-748.51 241.33,-739.83"/>
<polygon fill="black" stroke="black" points="244.73,-740.68 244.11,-730.1 238,-738.76 244.73,-740.68"/>
</g>
<!-- _0_5 -->
<g id="node6" class="node">
<title>_0_5</title>
<ellipse fill="none" stroke="black" cx="249" cy="-640" rx="205.26" ry="18"/>
<text text-anchor="middle" x="249" y="-636.3" font-family="Times,serif" font-size="14.00">13 &#160;&#160;&#160;&#160;Range , input: [1, 1], rsm: [S_0, S_3]</text>
</g>
<!-- _0_4&#45;&gt;_0_5 -->
<g id="edge12" class="edge">
<title>_0_4&#45;&gt;_0_5</title>
<path fill="none" stroke="black" d="M249,-693.7C249,-685.98 249,-676.71 249,-668.11"/>
<polygon fill="black" stroke="black" points="252.5,-668.1 249,-658.1 245.5,-668.1 252.5,-668.1"/>
</g>
<!-- _0_6 -->
<g id="node7" class="node">
<title>_0_6</title>
<text text-anchor="middle" x="249" y="-574.8" font-family="Times,serif" font-size="14.00">14 &#160;&#160;&#160;&#160;Intermediate input: 1, rsm: S_2, input: [1, 1]</text>
</g>
<!-- _0_5&#45;&gt;_0_6 -->
<g id="edge13" class="edge">
<title>_0_5&#45;&gt;_0_6</title>
<path fill="none" stroke="black" d="M249,-621.79C249,-613.77 249,-604.25 249,-596.28"/>
<polygon fill="black" stroke="black" points="252.5,-596.06 249,-586.06 245.5,-596.06 252.5,-596.06"/>
</g>
<!-- _0_7 -->
<g id="node8" class="node">
<title>_0_7</title>
<ellipse fill="none" stroke="black" cx="227" cy="-517" rx="205.26" ry="18"/>
<text text-anchor="middle" x="227" y="-513.3" font-family="Times,serif" font-size="14.00">15 &#160;&#160;&#160;&#160;Range , input: [1, 1], rsm: [S_0, S_2]</text>
</g>
<!-- _0_6&#45;&gt;_0_7 -->
<g id="edge14" class="edge">
<title>_0_6&#45;&gt;_0_7</title>
<path fill="none" stroke="black" d="M246.48,-570.67C244.11,-564.29 240.43,-554.32 236.9,-544.77"/>
<polygon fill="black" stroke="black" points="240.08,-543.29 233.33,-535.13 233.52,-545.72 240.08,-543.29"/>
</g>
<!-- _0_18 -->
<g id="node17" class="node">
<title>_0_18</title>
<ellipse fill="none" stroke="black" cx="650" cy="-517" rx="199.56" ry="18"/>
<text text-anchor="middle" x="650" y="-513.3" font-family="Times,serif" font-size="14.00">7 &#160;&#160;&#160;&#160;Range , input: [1, 1], rsm: [S_2, S_3]</text>
</g>
<!-- _0_6&#45;&gt;_0_18 -->
<g id="edge15" class="edge">
<title>_0_6&#45;&gt;_0_18</title>
<path fill="none" stroke="black" d="M293.06,-570.96C352.18,-562.19 459.16,-546.32 540.64,-534.23"/>
<polygon fill="black" stroke="black" points="541.57,-537.63 550.94,-532.7 540.54,-530.7 541.57,-537.63"/>
</g>
<!-- _0_8 -->
<g id="node9" class="node">
<title>_0_8</title>
<text text-anchor="middle" x="227" y="-441.3" font-family="Times,serif" font-size="14.00">16 &#160;&#160;&#160;&#160;Intermediate input: 0, rsm: S_1, input: [1, 1]</text>
</g>
<!-- _0_7&#45;&gt;_0_8 -->
<g id="edge16" class="edge">
<title>_0_7&#45;&gt;_0_8</title>
<path fill="none" stroke="black" d="M227,-498.7C227,-487.76 227,-473.68 227,-462.83"/>
<polygon fill="black" stroke="black" points="230.5,-462.62 227,-452.62 223.5,-462.62 230.5,-462.62"/>
</g>
<!-- _0_9 -->
<g id="node10" class="node">
<title>_0_9</title>
<ellipse fill="none" stroke="black" cx="221" cy="-373" rx="205.26" ry="18"/>
<text text-anchor="middle" x="221" y="-369.3" font-family="Times,serif" font-size="14.00">17 &#160;&#160;&#160;&#160;Range , input: [1, 0], rsm: [S_0, S_1]</text>
</g>
<!-- _0_8&#45;&gt;_0_9 -->
<g id="edge17" class="edge">
<title>_0_8&#45;&gt;_0_9</title>
<path fill="none" stroke="black" d="M226.42,-437.29C225.71,-428.97 224.45,-414.29 223.33,-401.16"/>
<polygon fill="black" stroke="black" points="226.81,-400.78 222.47,-391.12 219.83,-401.38 226.81,-400.78"/>
</g>
<!-- _0_10 -->
<g id="node11" class="node">
<title>_0_10</title>
<ellipse fill="none" stroke="black" cx="650" cy="-373" rx="205.26" ry="18"/>
<text text-anchor="middle" x="650" y="-369.3" font-family="Times,serif" font-size="14.00">18 &#160;&#160;&#160;&#160;Range , input: [0, 1], rsm: [S_1, S_2]</text>
</g>
<!-- _0_8&#45;&gt;_0_10 -->
<g id="edge18" class="edge">
<title>_0_8&#45;&gt;_0_10</title>
<path fill="none" stroke="black" d="M266.41,-437.48C330.17,-426.93 457.9,-405.79 548.42,-390.81"/>
<polygon fill="black" stroke="black" points="549.15,-394.24 558.44,-389.15 548,-387.33 549.15,-394.24"/>
</g>
<!-- _0_11 -->
<g id="node12" class="node">
<title>_0_11</title>
<polygon fill="none" stroke="red" points="337.5,-319 104.5,-319 104.5,-283 337.5,-283 337.5,-319"/>
<text text-anchor="middle" x="221" y="-297.3" font-family="Times,serif" font-size="14.00">19 &#160;&#160;&#160;&#160;Terminal &#39;a&#39;, input: [1, 0]</text>
</g>
<!-- _0_9&#45;&gt;_0_11 -->
<g id="edge19" class="edge">
<title>_0_9&#45;&gt;_0_11</title>
<path fill="none" stroke="black" d="M221,-354.7C221,-346.98 221,-337.71 221,-329.11"/>
<polygon fill="black" stroke="black" points="224.5,-329.1 221,-319.1 217.5,-329.1 224.5,-329.1"/>
</g>
<!-- _0_13 -->
<g id="node13" class="node">
<title>_0_13</title>
<polygon fill="none" stroke="green" points="485.67,-283 758.33,-283 855.43,-319 388.57,-319 485.67,-283"/>
<text text-anchor="middle" x="622" y="-297.3" font-family="Times,serif" font-size="14.00">20 &#160;&#160;&#160;&#160;Nonterminal S, input: [0, 1]</text>
</g>
<!-- _0_10&#45;&gt;_0_13 -->
<g id="edge20" class="edge">
<title>_0_10&#45;&gt;_0_13</title>
<path fill="none" stroke="black" d="M643.08,-354.7C639.93,-346.81 636.12,-337.3 632.62,-328.55"/>
<polygon fill="black" stroke="black" points="635.81,-327.09 628.84,-319.1 629.31,-329.69 635.81,-327.09"/>
</g>
<!-- _0_21 -->
<g id="node22" class="node">
<title>_0_21</title>
<ellipse fill="none" stroke="black" cx="622" cy="-229" rx="205.26" ry="18"/>
<text text-anchor="middle" x="622" y="-225.3" font-family="Times,serif" font-size="14.00">21 &#160;&#160;&#160;&#160;Range , input: [0, 1], rsm: [S_0, S_3]</text>
</g>
<!-- _0_13&#45;&gt;_0_21 -->
<g id="edge1" class="edge">
<title>_0_13&#45;&gt;_0_21</title>
<path fill="none" stroke="black" d="M622,-282.7C622,-274.98 622,-265.71 622,-257.11"/>
<polygon fill="black" stroke="black" points="625.5,-257.1 622,-247.1 618.5,-257.1 625.5,-257.1"/>
</g>
<!-- _0_17 -->
<g id="node16" class="node">
<title>_0_17</title>
<ellipse fill="none" stroke="black" cx="227" cy="-928" rx="199.56" ry="18"/>
<text text-anchor="middle" x="227" y="-924.3" font-family="Times,serif" font-size="14.00">6 &#160;&#160;&#160;&#160;Range , input: [0, 1], rsm: [S_0, S_2]</text>
</g>
<!-- _0_14&#45;&gt;_0_17 -->
<g id="edge21" class="edge">
<title>_0_14&#45;&gt;_0_17</title>
<path fill="none" stroke="black" d="M411.95,-981.91C383.61,-973.8 334.29,-959.69 293.7,-948.08"/>
<polygon fill="black" stroke="black" points="294.44,-944.65 283.86,-945.26 292.51,-951.38 294.44,-944.65"/>
</g>
<!-- _0_27 -->
<g id="node18" class="node">
<title>_0_27</title>
<ellipse fill="none" stroke="black" cx="650" cy="-928" rx="205.26" ry="18"/>
<text text-anchor="middle" x="650" y="-924.3" font-family="Times,serif" font-size="14.00">27 &#160;&#160;&#160;&#160;Range , input: [1, 1], rsm: [S_2, S_3]</text>
</g>
<!-- _0_14&#45;&gt;_0_27 -->
<g id="edge22" class="edge">
<title>_0_14&#45;&gt;_0_27</title>
<path fill="none" stroke="black" d="M458.83,-981.91C488.25,-973.76 539.53,-959.57 581.58,-947.93"/>
<polygon fill="black" stroke="black" points="582.52,-951.31 591.23,-945.26 580.66,-944.56 582.52,-951.31"/>
</g>
<!-- _0_19 -->
<g id="node20" class="node">
<title>_0_19</title>
<polygon fill="none" stroke="red" points="764,-730 540,-730 540,-694 764,-694 764,-730"/>
<text text-anchor="middle" x="652" y="-708.3" font-family="Times,serif" font-size="14.00">8 &#160;&#160;&#160;&#160;Terminal &#39;a&#39;, input: [0, 1]</text>
</g>
<!-- _0_15&#45;&gt;_0_19 -->
<g id="edge24" class="edge">
<title>_0_15&#45;&gt;_0_19</title>
<path fill="none" stroke="black" d="M652,-765.7C652,-757.98 652,-748.71 652,-740.11"/>
<polygon fill="black" stroke="black" points="655.5,-740.1 652,-730.1 648.5,-740.1 655.5,-740.1"/>
</g>
<!-- _0_17&#45;&gt;_0_2 -->
<g id="edge25" class="edge">
<title>_0_17&#45;&gt;_0_2</title>
<path fill="none" stroke="black" d="M227.49,-909.7C227.81,-898.76 228.21,-884.68 228.52,-873.83"/>
<polygon fill="black" stroke="black" points="232.02,-873.72 228.81,-863.62 225.03,-873.52 232.02,-873.72"/>
</g>
<!-- _0_20 -->
<g id="node21" class="node">
<title>_0_20</title>
<polygon fill="none" stroke="red" points="762.5,-463 537.5,-463 537.5,-427 762.5,-427 762.5,-463"/>
<text text-anchor="middle" x="650" y="-441.3" font-family="Times,serif" font-size="14.00">9 &#160;&#160;&#160;&#160;Terminal &#39;b&#39;, input: [1, 1]</text>
</g>
<!-- _0_18&#45;&gt;_0_20 -->
<g id="edge26" class="edge">
<title>_0_18&#45;&gt;_0_20</title>
<path fill="none" stroke="black" d="M650,-498.7C650,-490.98 650,-481.71 650,-473.11"/>
<polygon fill="black" stroke="black" points="653.5,-473.1 650,-463.1 646.5,-473.1 653.5,-473.1"/>
</g>
<!-- _0_28 -->
<g id="node19" class="node">
<title>_0_28</title>
<polygon fill="none" stroke="red" points="767,-874 533,-874 533,-838 767,-838 767,-874"/>
<text text-anchor="middle" x="650" y="-852.3" font-family="Times,serif" font-size="14.00">28 &#160;&#160;&#160;&#160;Terminal &#39;b&#39;, input: [1, 1]</text>
</g>
<!-- _0_27&#45;&gt;_0_28 -->
<g id="edge23" class="edge">
<title>_0_27&#45;&gt;_0_28</title>
<path fill="none" stroke="black" d="M650,-909.7C650,-901.98 650,-892.71 650,-884.11"/>
<polygon fill="black" stroke="black" points="653.5,-884.1 650,-874.1 646.5,-884.1 653.5,-884.1"/>
</g>
<!-- _0_22 -->
<g id="node23" class="node">
<title>_0_22</title>
<text text-anchor="middle" x="622" y="-163.8" font-family="Times,serif" font-size="14.00">22 &#160;&#160;&#160;&#160;Intermediate input: 1, rsm: S_1, input: [0, 1]</text>
</g>
<!-- _0_21&#45;&gt;_0_22 -->
<g id="edge2" class="edge">
<title>_0_21&#45;&gt;_0_22</title>
<path fill="none" stroke="black" d="M622,-210.79C622,-202.77 622,-193.25 622,-185.28"/>
<polygon fill="black" stroke="black" points="625.5,-185.06 622,-175.06 618.5,-185.06 625.5,-185.06"/>
</g>
<!-- _0_23 -->
<g id="node24" class="node">
<title>_0_23</title>
<ellipse fill="none" stroke="black" cx="221" cy="-106" rx="205.26" ry="18"/>
<text text-anchor="middle" x="221" y="-102.3" font-family="Times,serif" font-size="14.00">23 &#160;&#160;&#160;&#160;Range , input: [0, 1], rsm: [S_0, S_1]</text>
</g>
<!-- _0_22&#45;&gt;_0_23 -->
<g id="edge3" class="edge">
<title>_0_22&#45;&gt;_0_23</title>
<path fill="none" stroke="black" d="M577.94,-159.96C518.92,-151.2 412.19,-135.37 330.77,-123.29"/>
<polygon fill="black" stroke="black" points="330.87,-119.76 320.47,-121.76 329.84,-126.69 330.87,-119.76"/>
</g>
<!-- _0_24 -->
<g id="node25" class="node">
<title>_0_24</title>
<ellipse fill="none" stroke="black" cx="650" cy="-106" rx="205.26" ry="18"/>
<text text-anchor="middle" x="650" y="-102.3" font-family="Times,serif" font-size="14.00">24 &#160;&#160;&#160;&#160;Range , input: [1, 1], rsm: [S_1, S_3]</text>
</g>
<!-- _0_22&#45;&gt;_0_24 -->
<g id="edge4" class="edge">
<title>_0_22&#45;&gt;_0_24</title>
<path fill="none" stroke="black" d="M625.21,-159.67C628.25,-153.22 633.01,-143.11 637.55,-133.46"/>
<polygon fill="black" stroke="black" points="640.85,-134.67 641.94,-124.13 634.52,-131.69 640.85,-134.67"/>
</g>
<!-- _0_25 -->
<g id="node26" class="node">
<title>_0_25</title>
<polygon fill="none" stroke="red" points="337.5,-52 104.5,-52 104.5,-16 337.5,-16 337.5,-52"/>
<text text-anchor="middle" x="221" y="-30.3" font-family="Times,serif" font-size="14.00">25 &#160;&#160;&#160;&#160;Terminal &#39;a&#39;, input: [0, 1]</text>
</g>
<!-- _0_23&#45;&gt;_0_25 -->
<g id="edge5" class="edge">
<title>_0_23&#45;&gt;_0_25</title>
<path fill="none" stroke="black" d="M221,-87.7C221,-79.98 221,-70.71 221,-62.11"/>
<polygon fill="black" stroke="black" points="224.5,-62.1 221,-52.1 217.5,-62.1 224.5,-62.1"/>
</g>
<!-- _0_26 -->
<g id="node27" class="node">
<title>_0_26</title>
<polygon fill="none" stroke="red" points="767,-52 533,-52 533,-16 767,-16 767,-52"/>
<text text-anchor="middle" x="650" y="-30.3" font-family="Times,serif" font-size="14.00">26 &#160;&#160;&#160;&#160;Terminal &#39;b&#39;, input: [1, 1]</text>
</g>
<!-- _0_24&#45;&gt;_0_26 -->
<g id="edge6" class="edge">
<title>_0_24&#45;&gt;_0_26</title>
<path fill="none" stroke="black" d="M650,-87.7C650,-79.98 650,-70.71 650,-62.11"/>
<polygon fill="black" stroke="black" points="653.5,-62.1 650,-52.1 646.5,-62.1 653.5,-62.1"/>
</g>
</g>
</svg>
