<?xml version="1.0" encoding="UTF-8" standalone="no"?>
<!DOCTYPE svg PUBLIC "-//W3C//DTD SVG 1.1//EN"
 "http://www.w3.org/Graphics/SVG/1.1/DTD/svg11.dtd">
<!-- Generated by graphviz version 2.43.0 (0)
 -->
<!-- Title: %3 Pages: 1 -->
<svg width="96pt" height="204pt"
 viewBox="0.00 0.00 96.15 204.00" xmlns="http://www.w3.org/2000/svg" xmlns:xlink="http://www.w3.org/1999/xlink">
<g id="graph0" class="graph" transform="scale(1 1) rotate(0) translate(4 200)">
<title>%3</title>
<polygon fill="white" stroke="transparent" points="-4,4 -4,-200 92.15,-200 92.15,4 -4,4"/>
<!-- start -->
<g id="node1" class="node">
<title>start</title>
<ellipse fill="none" stroke="black" cx="33.15" cy="-178" rx="33.29" ry="18"/>
<text text-anchor="middle" x="33.15" y="-174.3" font-family="Times,serif" font-size="14.00">start</text>
</g>
<!-- 0 -->
<g id="node2" class="node">
<title>0</title>
<ellipse fill="none" stroke="black" cx="33.15" cy="-105" rx="27" ry="18"/>
<text text-anchor="middle" x="33.15" y="-101.3" font-family="Times,serif" font-size="14.00">0</text>
</g>
<!-- start&#45;&gt;0 -->
<g id="edge1" class="edge">
<title>start&#45;&gt;0</title>
<path fill="none" stroke="black" d="M33.15,-159.81C33.15,-151.79 33.15,-142.05 33.15,-133.07"/>
<polygon fill="black" stroke="black" points="36.65,-133.03 33.15,-123.03 29.65,-133.03 36.65,-133.03"/>
</g>
<!-- 1 -->
<g id="node3" class="node">
<title>1</title>
<ellipse fill="none" stroke="black" cx="33.15" cy="-18" rx="27" ry="18"/>
<text text-anchor="middle" x="33.15" y="-14.3" font-family="Times,serif" font-size="14.00">1</text>
</g>
<!-- 0&#45;&gt;1 -->
<g id="edge2" class="edge">
<title>0&#45;&gt;1</title>
<path fill="none" stroke="black" d="M24.1,-87.97C19.68,-78.25 15.78,-65.54 18.15,-54 18.78,-50.93 19.69,-47.79 20.76,-44.72"/>
<polygon fill="black" stroke="black" points="24.07,-45.87 24.55,-35.29 17.57,-43.26 24.07,-45.87"/>
<text text-anchor="middle" x="22.65" y="-57.8" font-family="Times,serif" font-size="14.00">a</text>
</g>
<!-- 1&#45;&gt;0 -->
<g id="edge3" class="edge">
<title>1&#45;&gt;0</title>
<path fill="none" stroke="black" d="M33.15,-36.18C33.15,-47.81 33.15,-63.42 33.15,-76.73"/>
<polygon fill="black" stroke="black" points="29.65,-76.8 33.15,-86.8 36.65,-76.8 29.65,-76.8"/>
<text text-anchor="middle" x="37.65" y="-57.8" font-family="Times,serif" font-size="14.00">a</text>
</g>
<!-- 1&#45;&gt;1 -->
<g id="edge4" class="edge">
<title>1&#45;&gt;1</title>
<path fill="none" stroke="black" d="M57.68,-25.75C68.65,-26.49 78.15,-23.91 78.15,-18 78.15,-14.03 73.86,-11.56 67.72,-10.59"/>
<polygon fill="black" stroke="black" points="67.79,-7.09 57.68,-10.25 67.55,-14.09 67.79,-7.09"/>
<text text-anchor="middle" x="83.15" y="-14.3" font-family="Times,serif" font-size="14.00">b</text>
</g>
</g>
</svg>
